# Blender v3.2.1 OBJ File: 'enemies.blend'
# www.blender.org
o carrier_antigrav_Circle.006
v -5.347490 0.364497 -13.824198
v -4.289744 3.166287 -13.744511
v -4.441917 3.106366 -14.622504
v -4.875271 2.885922 -15.371654
v -5.523829 2.538517 -15.877911
v -6.288857 2.117038 -16.064203
v -7.053885 1.685652 -15.902168
v -7.702445 1.310034 -15.416473
v -8.135798 1.047369 -14.681065
v -8.287971 0.937644 -13.807897
v -8.135798 0.997564 -12.929906
v -7.702444 1.218007 -12.180756
v -7.053885 1.565413 -11.674497
v -6.288856 1.986892 -11.488204
v -5.523829 2.418278 -11.650241
v -4.875270 2.793896 -12.135936
v -4.441917 3.056562 -12.871347
v -6.416766 -0.450769 0.098096
v -5.058022 3.148315 0.200458
v -5.253499 3.071343 -0.927381
v -5.810170 2.788169 -1.889711
v -6.643286 2.341903 -2.540034
v -7.626015 1.800486 -2.779340
v -8.608744 1.246342 -2.571193
v -9.441861 0.763837 -1.947286
v -9.998531 0.426425 -1.002604
v -10.194010 0.285476 0.119036
v -9.998532 0.362448 1.246873
v -9.441860 0.645622 2.209207
v -8.608744 1.091888 2.859529
v -7.626013 1.633305 3.098833
v -6.643285 2.187449 2.890687
v -5.810168 2.669955 2.266781
v -5.253498 3.007366 1.322097
v -3.018241 -0.269593 8.849019
v -2.299308 1.533311 8.900663
v -2.398633 1.496303 8.331629
v -2.682082 1.358640 7.846098
v -3.106503 1.141279 7.517987
v -3.607283 0.877312 7.397249
v -4.108180 0.606926 7.502267
v -4.532938 0.371284 7.817050
v -4.816893 0.206261 8.293675
v -4.916814 0.136980 8.859583
v -4.817489 0.173988 9.428617
v -4.534039 0.311651 9.914149
v -4.109618 0.529011 10.242260
v -3.608839 0.792978 10.362996
v -3.107941 1.063365 10.257979
v -2.683183 1.299006 9.943196
v -2.399229 1.464030 9.466570
v 5.347490 0.364497 -13.824198
v 4.289744 3.166287 -13.744511
v 4.441917 3.106366 -14.622504
v 4.875271 2.885922 -15.371654
v 5.523829 2.538517 -15.877911
v 6.288857 2.117038 -16.064203
v 7.053885 1.685652 -15.902168
v 7.702445 1.310034 -15.416473
v 8.135798 1.047369 -14.681065
v 8.287971 0.937644 -13.807897
v 8.135798 0.997564 -12.929906
v 7.702444 1.218007 -12.180756
v 7.053885 1.565413 -11.674497
v 6.288856 1.986892 -11.488204
v 5.523829 2.418278 -11.650241
v 4.875270 2.793896 -12.135936
v 4.441917 3.056562 -12.871347
v 6.416766 -0.450769 0.098096
v 5.058022 3.148315 0.200458
v 5.253499 3.071343 -0.927381
v 5.810170 2.788169 -1.889711
v 6.643286 2.341903 -2.540034
v 7.626015 1.800486 -2.779340
v 8.608744 1.246342 -2.571193
v 9.441861 0.763837 -1.947286
v 9.998531 0.426425 -1.002604
v 10.194010 0.285476 0.119036
v 9.998532 0.362448 1.246873
v 9.441860 0.645622 2.209207
v 8.608744 1.091888 2.859529
v 7.626013 1.633305 3.098833
v 6.643285 2.187449 2.890687
v 5.810168 2.669955 2.266781
v 5.253498 3.007366 1.322097
v 3.018241 -0.269593 8.849019
v 2.299308 1.533311 8.900663
v 2.398633 1.496303 8.331629
v 2.682082 1.358640 7.846098
v 3.106503 1.141279 7.517987
v 3.607283 0.877312 7.397249
v 4.108180 0.606926 7.502267
v 4.532938 0.371284 7.817050
v 4.816893 0.206261 8.293675
v 4.916814 0.136980 8.859583
v 4.817489 0.173988 9.428617
v 4.534039 0.311651 9.914149
v 4.109618 0.529011 10.242260
v 3.608839 0.792978 10.362996
v 3.107941 1.063365 10.257979
v 2.683183 1.299006 9.943196
v 2.399229 1.464030 9.466570
vt -0.000108 -0.000929
vt 0.999512 1.000208
vt 0.999245 1.000155
vt 0.999020 1.000004
vt 0.998869 0.999778
vt 0.998816 0.999512
vt 0.998869 0.999246
vt 0.999020 0.999020
vt 0.999245 0.998869
vt 0.999512 0.998816
vt 0.999778 0.998869
vt 1.000003 0.999020
vt 1.000154 0.999246
vt 1.000207 0.999512
vt 1.000154 0.999778
vt 1.000003 1.000004
vt 0.999778 1.000155
vt -0.000108 -0.000929
vt 0.999512 1.000208
vt 0.999245 1.000155
vt 0.999020 1.000004
vt 0.998869 0.999778
vt 0.998816 0.999512
vt 0.998869 0.999246
vt 0.999020 0.999020
vt 0.999245 0.998869
vt 0.999512 0.998816
vt 0.999778 0.998869
vt 1.000003 0.999020
vt 1.000154 0.999246
vt 1.000207 0.999512
vt 1.000154 0.999778
vt 1.000003 1.000004
vt 0.999778 1.000155
vt -0.000108 -0.000929
vt 0.999512 1.000208
vt 0.999245 1.000155
vt 0.999020 1.000004
vt 0.998869 0.999778
vt 0.998816 0.999512
vt 0.998869 0.999246
vt 0.999020 0.999020
vt 0.999245 0.998869
vt 0.999512 0.998816
vt 0.999778 0.998869
vt 1.000003 0.999020
vt 1.000154 0.999246
vt 1.000207 0.999512
vt 1.000154 0.999778
vt 1.000003 1.000004
vt 0.999778 1.000155
vt -0.000108 -0.000929
vt 0.999245 1.000155
vt 0.999512 1.000208
vt 0.999020 1.000004
vt 0.998869 0.999778
vt 0.998816 0.999512
vt 0.998869 0.999246
vt 0.999020 0.999020
vt 0.999245 0.998869
vt 0.999512 0.998816
vt 0.999778 0.998869
vt 1.000003 0.999020
vt 1.000154 0.999246
vt 1.000207 0.999512
vt 1.000154 0.999778
vt 1.000003 1.000004
vt 0.999778 1.000155
vt -0.000108 -0.000929
vt 0.999245 1.000155
vt 0.999512 1.000208
vt 0.999020 1.000004
vt 0.998869 0.999778
vt 0.998816 0.999512
vt 0.998869 0.999246
vt 0.999020 0.999020
vt 0.999245 0.998869
vt 0.999512 0.998816
vt 0.999778 0.998869
vt 1.000003 0.999020
vt 1.000154 0.999246
vt 1.000207 0.999512
vt 1.000154 0.999778
vt 1.000003 1.000004
vt 0.999778 1.000155
vt -0.000108 -0.000929
vt 0.999245 1.000155
vt 0.999512 1.000208
vt 0.999020 1.000004
vt 0.998869 0.999778
vt 0.998816 0.999512
vt 0.998869 0.999246
vt 0.999020 0.999020
vt 0.999245 0.998869
vt 0.999512 0.998816
vt 0.999778 0.998869
vt 1.000003 0.999020
vt 1.000154 0.999246
vt 1.000207 0.999512
vt 1.000154 0.999778
vt 1.000003 1.000004
vt 0.999778 1.000155
vn -0.9280 0.3464 0.1372
vn -0.8429 0.3872 0.3737
vn -0.6857 0.4697 0.5561
vn -0.4802 0.5814 0.6567
vn -0.2579 0.7054 0.6603
vn -0.0525 0.8226 0.5661
vn 0.1047 0.9154 0.3887
vn 0.1898 0.9695 0.1549
vn 0.1898 0.9768 -0.0996
vn 0.1047 0.9360 -0.3360
vn -0.0525 0.8535 -0.5185
vn -0.2579 0.7418 -0.6191
vn -0.4803 0.6178 -0.6226
vn -0.6857 0.5005 -0.5285
vn -0.8429 0.4078 -0.3510
vn -0.9280 0.3537 -0.1173
vn -0.4803 0.5814 0.6567
vn -0.9214 0.3635 0.1372
vn -0.8356 0.4027 0.3737
vn -0.6769 0.4823 0.5561
vn -0.4694 0.5902 0.6567
vn -0.2448 0.7100 0.6603
vn -0.0373 0.8235 0.5661
vn 0.1216 0.9133 0.3887
vn 0.2077 0.9658 0.1549
vn 0.2078 0.9731 -0.0996
vn 0.1220 0.9339 -0.3360
vn -0.0367 0.8543 -0.5185
vn -0.2442 0.7464 -0.6191
vn -0.4688 0.6266 -0.6226
vn -0.6763 0.5131 -0.5285
vn -0.8352 0.4233 -0.3510
vn -0.9213 0.3707 -0.1173
vn 0.9280 0.3464 0.1372
vn 0.8429 0.3872 0.3737
vn 0.6857 0.4697 0.5561
vn 0.4802 0.5814 0.6567
vn 0.2579 0.7054 0.6603
vn 0.0525 0.8226 0.5661
vn -0.1047 0.9154 0.3887
vn -0.1898 0.9695 0.1549
vn -0.1898 0.9768 -0.0996
vn -0.1047 0.9360 -0.3360
vn 0.0525 0.8535 -0.5185
vn 0.2579 0.7418 -0.6191
vn 0.4803 0.6178 -0.6226
vn 0.6857 0.5005 -0.5285
vn 0.8429 0.4078 -0.3510
vn 0.9280 0.3537 -0.1173
vn 0.4803 0.5814 0.6567
vn 0.9214 0.3635 0.1372
vn 0.8356 0.4027 0.3737
vn 0.6769 0.4823 0.5561
vn 0.4694 0.5902 0.6567
vn 0.2448 0.7100 0.6603
vn 0.0373 0.8235 0.5661
vn -0.1216 0.9133 0.3887
vn -0.2077 0.9658 0.1549
vn -0.2078 0.9731 -0.0996
vn -0.1220 0.9339 -0.3360
vn 0.0367 0.8543 -0.5185
vn 0.2442 0.7464 -0.6191
vn 0.4688 0.6266 -0.6226
vn 0.6763 0.5131 -0.5285
vn 0.8352 0.4233 -0.3510
vn 0.9213 0.3707 -0.1173
s off
f 1/1/1 2/2/1 3/3/1
f 1/1/2 3/3/2 4/4/2
f 1/1/3 4/4/3 5/5/3
f 1/1/4 5/5/4 6/6/4
f 1/1/5 6/6/5 7/7/5
f 1/1/6 7/7/6 8/8/6
f 1/1/7 8/8/7 9/9/7
f 1/1/8 9/9/8 10/10/8
f 1/1/9 10/10/9 11/11/9
f 1/1/10 11/11/10 12/12/10
f 1/1/11 12/12/11 13/13/11
f 1/1/12 13/13/12 14/14/12
f 1/1/13 14/14/13 15/15/13
f 1/1/14 15/15/14 16/16/14
f 1/1/15 16/16/15 17/17/15
f 1/1/16 17/17/16 2/2/16
f 18/18/1 19/19/1 20/20/1
f 18/18/2 20/20/2 21/21/2
f 18/18/3 21/21/3 22/22/3
f 18/18/17 22/22/17 23/23/17
f 18/18/5 23/23/5 24/24/5
f 18/18/6 24/24/6 25/25/6
f 18/18/7 25/25/7 26/26/7
f 18/18/8 26/26/8 27/27/8
f 18/18/9 27/27/9 28/28/9
f 18/18/10 28/28/10 29/29/10
f 18/18/11 29/29/11 30/30/11
f 18/18/12 30/30/12 31/31/12
f 18/18/13 31/31/13 32/32/13
f 18/18/14 32/32/14 33/33/14
f 18/18/15 33/33/15 34/34/15
f 18/18/16 34/34/16 19/19/16
f 35/35/18 36/36/18 37/37/18
f 35/35/19 37/37/19 38/38/19
f 35/35/20 38/38/20 39/39/20
f 35/35/21 39/39/21 40/40/21
f 35/35/22 40/40/22 41/41/22
f 35/35/23 41/41/23 42/42/23
f 35/35/24 42/42/24 43/43/24
f 35/35/25 43/43/25 44/44/25
f 35/35/26 44/44/26 45/45/26
f 35/35/27 45/45/27 46/46/27
f 35/35/28 46/46/28 47/47/28
f 35/35/29 47/47/29 48/48/29
f 35/35/30 48/48/30 49/49/30
f 35/35/31 49/49/31 50/50/31
f 35/35/32 50/50/32 51/51/32
f 35/35/33 51/51/33 36/36/33
f 52/52/34 54/53/34 53/54/34
f 52/52/35 55/55/35 54/53/35
f 52/52/36 56/56/36 55/55/36
f 52/52/37 57/57/37 56/56/37
f 52/52/38 58/58/38 57/57/38
f 52/52/39 59/59/39 58/58/39
f 52/52/40 60/60/40 59/59/40
f 52/52/41 61/61/41 60/60/41
f 52/52/42 62/62/42 61/61/42
f 52/52/43 63/63/43 62/62/43
f 52/52/44 64/64/44 63/63/44
f 52/52/45 65/65/45 64/64/45
f 52/52/46 66/66/46 65/65/46
f 52/52/47 67/67/47 66/66/47
f 52/52/48 68/68/48 67/67/48
f 52/52/49 53/54/49 68/68/49
f 69/69/34 71/70/34 70/71/34
f 69/69/35 72/72/35 71/70/35
f 69/69/36 73/73/36 72/72/36
f 69/69/50 74/74/50 73/73/50
f 69/69/38 75/75/38 74/74/38
f 69/69/39 76/76/39 75/75/39
f 69/69/40 77/77/40 76/76/40
f 69/69/41 78/78/41 77/77/41
f 69/69/42 79/79/42 78/78/42
f 69/69/43 80/80/43 79/79/43
f 69/69/44 81/81/44 80/80/44
f 69/69/45 82/82/45 81/81/45
f 69/69/46 83/83/46 82/82/46
f 69/69/47 84/84/47 83/83/47
f 69/69/48 85/85/48 84/84/48
f 69/69/49 70/71/49 85/85/49
f 86/86/51 88/87/51 87/88/51
f 86/86/52 89/89/52 88/87/52
f 86/86/53 90/90/53 89/89/53
f 86/86/54 91/91/54 90/90/54
f 86/86/55 92/92/55 91/91/55
f 86/86/56 93/93/56 92/92/56
f 86/86/57 94/94/57 93/93/57
f 86/86/58 95/95/58 94/94/58
f 86/86/59 96/96/59 95/95/59
f 86/86/60 97/97/60 96/96/60
f 86/86/61 98/98/61 97/97/61
f 86/86/62 99/99/62 98/98/62
f 86/86/63 100/100/63 99/99/63
f 86/86/64 101/101/64 100/100/64
f 86/86/65 102/102/65 101/101/65
f 86/86/66 87/88/66 102/102/66
