# Blender v3.2.1 OBJ File: 'foyd_importer.blend'
# www.blender.org
o alien_drone_b_rotor_Mesh.003
v 0.162845 0.003516 0.052917
v 0.138524 0.003516 0.100647
v 0.100645 0.003516 0.138550
v 0.052912 0.003516 0.162872
v 0.000001 0.003516 0.171234
v -0.052910 0.003516 0.162872
v -0.100643 0.003516 0.138550
v -0.138522 0.003516 0.100647
v -0.162843 0.003516 0.052917
v -0.171223 0.003516 0.000031
v -0.162843 0.003516 -0.052887
v -0.138522 0.003516 -0.100616
v -0.100643 0.003516 -0.138519
v -0.052910 0.003516 -0.162842
v 0.000001 0.003516 -0.171204
v 0.052912 0.003516 -0.162842
v 0.100645 0.003516 -0.138519
v 0.138524 0.003516 -0.100616
v 0.162845 0.003516 -0.052887
v 0.171225 0.003516 0.000031
v 0.162845 -0.186904 0.052917
v 0.138524 -0.186904 0.100647
v 0.100645 -0.186904 0.138550
v 0.052912 -0.186904 0.162872
v 0.000001 -0.186904 0.171234
v -0.052910 -0.186904 0.162872
v -0.100643 -0.186904 0.138550
v -0.138522 -0.186904 0.100647
v -0.162843 -0.186904 0.052917
v -0.171223 -0.186904 0.000031
v -0.162843 -0.186904 -0.052887
v -0.138522 -0.186904 -0.100616
v -0.100643 -0.186904 -0.138519
v -0.052910 -0.186904 -0.162842
v 0.000001 -0.186904 -0.171204
v 0.052912 -0.186904 -0.162842
v 0.100645 -0.186904 -0.138519
v 0.138524 -0.186904 -0.100616
v 0.162845 -0.186904 -0.052887
v 0.171225 -0.186904 0.000031
v 0.055538 0.003516 1.143738
v 0.000001 0.003516 1.176727
v 0.000001 -0.186904 1.176727
v 0.055538 -0.186904 1.143738
v -0.055536 0.003516 1.143738
v -0.055536 -0.186904 1.143738
v -0.944465 0.003516 -0.615143
v -0.951972 0.003516 -0.691620
v -0.951972 -0.186904 -0.691620
v -0.944465 -0.186904 -0.615143
v -0.865354 0.003516 -0.704895
v -0.865354 -0.186904 -0.704895
v 0.884373 0.003516 -0.713043
v 0.951974 0.003516 -0.691620
v 0.951974 -0.186904 -0.691620
v 0.884373 -0.186904 -0.713043
v 0.955334 0.003516 -0.615143
v 0.955334 -0.186904 -0.615143
v 0.000001 -0.186904 0.841553
v -0.122579 -0.186904 0.816772
v -0.122579 0.003516 0.816772
v 0.000001 0.003516 0.841553
v 0.062813 0.003516 0.816772
v 0.062813 -0.186904 0.816772
v 0.000001 -0.186904 0.506409
v -0.121704 -0.186904 0.489807
v -0.121704 0.003516 0.489807
v 0.000001 0.003516 0.506409
v 0.097255 0.003516 0.489807
v 0.097255 -0.186904 0.489807
v 0.680824 -0.186904 -0.494629
v 0.731922 -0.186904 -0.367950
v 0.731922 0.003516 -0.367950
v 0.680824 0.003516 -0.494629
v 0.623130 0.003516 -0.521545
v 0.623130 -0.186904 -0.521545
v 0.409674 -0.186904 -0.297638
v 0.467760 -0.186904 -0.180542
v 0.467760 0.003516 -0.180542
v 0.409674 0.003516 -0.297638
v 0.334720 0.003516 -0.354462
v 0.334720 -0.186904 -0.354462
v -0.680822 -0.186904 -0.494629
v -0.588716 -0.186904 -0.565002
v -0.588716 0.003516 -0.565002
v -0.680822 0.003516 -0.494629
v -0.683924 0.003516 -0.416870
v -0.683924 -0.186904 -0.416870
v -0.409672 -0.186904 -0.297638
v -0.328379 -0.186904 -0.397949
v -0.328379 0.003516 -0.397949
v -0.409672 0.003516 -0.297638
v -0.445117 0.003516 -0.218567
v -0.445117 -0.186904 -0.218567
v -0.228906 -0.186904 -0.166290
v -0.163876 -0.186904 -0.250336
v -0.163876 0.003516 -0.250336
v -0.228906 0.003516 -0.166290
v -0.320325 0.003516 -0.061035
v -0.320325 -0.186904 -0.061035
v 0.000001 -0.186904 0.282959
v -0.088520 -0.186904 0.271851
v -0.088520 0.003516 0.271851
v 0.000001 0.003516 0.282959
v 0.153723 0.003516 0.271851
v 0.153723 -0.186904 0.271851
v 0.228908 -0.186904 -0.166290
v 0.288933 -0.186904 -0.082764
v 0.288933 0.003516 -0.082764
v 0.228908 0.003516 -0.166290
v 0.152407 0.003516 -0.281128
v 0.152407 -0.186904 -0.281128
v 0.114698 0.066259 0.037292
v 0.097569 0.066259 0.070892
v 0.000001 0.066259 0.000031
v 0.070889 0.066259 0.097595
v 0.037269 0.066259 0.114716
v 0.000001 0.066259 0.120605
v -0.037267 0.066259 0.114716
v -0.070887 0.066259 0.097595
v -0.097568 0.066259 0.070892
v -0.114697 0.066259 0.037292
v -0.120600 0.066259 0.000031
v -0.114697 0.066259 -0.037262
v -0.097568 0.066259 -0.070862
v -0.070887 0.066259 -0.097565
v -0.037267 0.066259 -0.114685
v 0.000001 0.066259 -0.120575
v 0.037269 0.066259 -0.114685
v 0.070889 0.066259 -0.097565
v 0.097569 0.066259 -0.070862
v 0.114698 0.066259 -0.037262
v 0.120602 0.066259 0.000031
v 0.114698 -0.249648 0.037292
v 0.097569 -0.249648 0.070892
v 0.000001 -0.249648 0.000031
v 0.070889 -0.249648 0.097595
v 0.037269 -0.249648 0.114716
v 0.000001 -0.249648 0.120605
v -0.037267 -0.249648 0.114716
v -0.070887 -0.249648 0.097595
v -0.097568 -0.249648 0.070892
v -0.114697 -0.249648 0.037292
v -0.120600 -0.249648 0.000031
v -0.114697 -0.249648 -0.037262
v -0.097568 -0.249648 -0.070862
v -0.070887 -0.249648 -0.097565
v -0.037267 -0.249648 -0.114685
v 0.000001 -0.249648 -0.120575
v 0.037269 -0.249648 -0.114685
v 0.070889 -0.249648 -0.097565
v 0.097569 -0.249648 -0.070862
v 0.114698 -0.249648 -0.037262
v 0.120602 -0.249648 0.000031
vt 0.387500 0.312500
vt 0.375000 0.688440
vt 0.375000 0.312500
vt 0.400000 0.312500
vt 0.387500 0.688440
vt 0.412500 0.312500
vt 0.400000 0.688440
vt 0.425000 0.312500
vt 0.412500 0.688440
vt 0.412500 0.312500
vt 0.437500 0.312500
vt 0.425000 0.688440
vt 0.450000 0.312500
vt 0.437500 0.688440
vt 0.437500 0.312500
vt 0.462500 0.312500
vt 0.450000 0.688440
vt 0.475000 0.312500
vt 0.462500 0.688440
vt 0.487500 0.312500
vt 0.475000 0.688440
vt 0.500000 0.688440
vt 0.487500 0.688440
vt 0.500000 0.312500
vt 0.512500 0.688440
vt 0.500000 0.688440
vt 0.525000 0.312500
vt 0.512500 0.312500
vt 0.537500 0.312500
vt 0.525000 0.688440
vt 0.525000 0.312500
vt 0.550000 0.312500
vt 0.537500 0.688440
vt 0.562500 0.312500
vt 0.550000 0.688440
vt 0.575000 0.312500
vt 0.562500 0.688440
vt 0.587500 0.312500
vt 0.575000 0.688440
vt 0.575000 0.312500
vt 0.600000 0.312500
vt 0.587500 0.688440
vt 0.612500 0.312500
vt 0.600000 0.688440
vt 0.600000 0.312500
vt 0.625000 0.312500
vt 0.612500 0.688440
vt 0.626409 0.064408
vt 0.648603 0.107966
vt 0.500000 0.150000
vt 0.591842 0.029841
vt 0.548284 0.007647
vt 0.500000 -0.000000
vt 0.451716 0.007647
vt 0.408159 0.029841
vt 0.373591 0.064409
vt 0.351397 0.107966
vt 0.343750 0.156250
vt 0.351397 0.204534
vt 0.373591 0.248091
vt 0.408159 0.282659
vt 0.451716 0.304853
vt 0.500000 0.312500
vt 0.548284 0.304853
vt 0.591841 0.282659
vt 0.626409 0.248091
vt 0.648603 0.204534
vt 0.656250 0.156250
vt 0.648603 0.892034
vt 0.626409 0.935591
vt 0.500000 0.837500
vt 0.591841 0.970159
vt 0.548284 0.992353
vt 0.500000 1.000000
vt 0.451716 0.992353
vt 0.408159 0.970159
vt 0.373591 0.935591
vt 0.351397 0.892034
vt 0.343750 0.843750
vt 0.351397 0.795466
vt 0.373591 0.751909
vt 0.408159 0.717341
vt 0.451716 0.695147
vt 0.500000 0.687500
vt 0.548284 0.695147
vt 0.591842 0.717341
vt 0.626409 0.751908
vt 0.648603 0.795466
vt 0.656250 0.843750
vt 0.425000 0.312500
vt 0.412500 0.312500
vt 0.412500 0.688440
vt 0.425000 0.688440
vt 0.425000 0.688440
vt 0.412500 0.688440
vt 0.425000 0.312500
vt 0.437500 0.312500
vt 0.437500 0.688440
vt 0.500000 0.312500
vt 0.512500 0.312500
vt 0.500000 0.312500
vt 0.512500 0.688440
vt 0.512500 0.688440
vt 0.500000 0.688440
vt 0.512500 0.312500
vt 0.525000 0.688440
vt 0.525000 0.312500
vt 0.587500 0.312500
vt 0.575000 0.312500
vt 0.575000 0.688440
vt 0.587500 0.688440
vt 0.587500 0.688440
vt 0.575000 0.688440
vt 0.587500 0.312500
vt 0.600000 0.312500
vt 0.600000 0.688440
vt 0.425000 0.688440
vt 0.437500 0.688440
vt 0.437500 0.688440
vt 0.437500 0.312500
vt 0.425000 0.312500
vt 0.412500 0.312500
vt 0.412500 0.688440
vt 0.425000 0.688440
vt 0.437500 0.688440
vt 0.437500 0.312500
vt 0.425000 0.312500
vt 0.412500 0.312500
vt 0.412500 0.688440
vt 0.587500 0.688440
vt 0.600000 0.688440
vt 0.600000 0.688440
vt 0.600000 0.312500
vt 0.587500 0.312500
vt 0.575000 0.312500
vt 0.575000 0.688440
vt 0.587500 0.688440
vt 0.600000 0.688440
vt 0.600000 0.312500
vt 0.587500 0.312500
vt 0.575000 0.312500
vt 0.575000 0.688440
vt 0.512500 0.688440
vt 0.525000 0.688440
vt 0.525000 0.688440
vt 0.525000 0.312500
vt 0.512500 0.312500
vt 0.500000 0.312500
vt 0.500000 0.688440
vt 0.512500 0.688440
vt 0.525000 0.688440
vt 0.525000 0.312500
vt 0.512500 0.312500
vt 0.500000 0.312500
vt 0.500000 0.688440
vt 0.626409 0.064408
vt 0.591842 0.029841
vt 0.548284 0.007647
vt 0.500000 -0.000000
vt 0.451716 0.007647
vt 0.408159 0.029841
vt 0.373591 0.064409
vt 0.351397 0.107966
vt 0.343750 0.156250
vt 0.351397 0.204534
vt 0.373591 0.248091
vt 0.408159 0.282659
vt 0.451716 0.304853
vt 0.500000 0.312500
vt 0.548284 0.304853
vt 0.591841 0.282659
vt 0.626409 0.248091
vt 0.648603 0.204534
vt 0.656250 0.156250
vt 0.648603 0.107966
vt 0.626409 0.935591
vt 0.648603 0.892034
vt 0.548284 0.992353
vt 0.591841 0.970159
vt 0.500000 1.000000
vt 0.451716 0.992353
vt 0.373591 0.935591
vt 0.408159 0.970159
vt 0.351397 0.892034
vt 0.351397 0.795466
vt 0.343750 0.843750
vt 0.373591 0.751909
vt 0.451716 0.695147
vt 0.408159 0.717341
vt 0.500000 0.687500
vt 0.548284 0.695147
vt 0.626409 0.751908
vt 0.591842 0.717341
vt 0.648603 0.795466
vt 0.656250 0.843750
vt 0.625000 0.688440
vn 0.8091 -0.0000 0.5877
vn 0.9510 -0.0000 0.3091
vn 0.5879 -0.0000 0.8089
vn 0.4540 -0.0000 0.8910
vn 0.0000 0.0000 1.0000
vn 0.5107 0.0000 0.8598
vn -0.5107 0.0000 0.8598
vn -0.5879 -0.0000 0.8089
vn -0.4540 -0.0000 0.8910
vn -0.8091 -0.0000 0.5877
vn -0.9510 -0.0000 0.3091
vn -1.0000 -0.0000 0.0000
vn -0.9877 0.0000 -0.1564
vn -0.9952 0.0000 0.0977
vn -0.7519 0.0000 -0.6592
vn -0.1515 0.0000 -0.9885
vn -0.7501 0.0000 -0.6613
vn -0.3089 0.0000 -0.9511
vn -0.4540 0.0000 -0.8910
vn -0.0000 0.0000 -1.0000
vn 0.3089 0.0000 -0.9511
vn 0.4540 0.0000 -0.8910
vn 0.8092 0.0000 -0.5875
vn 0.3021 0.0000 -0.9533
vn 0.9990 0.0000 -0.0439
vn 1.0000 0.0000 0.0000
vn 0.9877 0.0000 -0.1564
vn -0.0000 1.0000 -0.0000
vn 0.0000 -1.0000 0.0000
vn 0.0801 0.9659 0.2463
vn 0.0801 -0.9659 0.2463
vn -0.0000 -0.9780 0.2087
vn 0.7341 0.0000 -0.6791
vn 0.9909 0.0000 -0.1343
vn -0.1181 0.9241 0.3634
vn 0.1926 0.8901 0.4131
vn -0.9505 0.0000 -0.3106
vn -0.9786 0.0000 -0.2060
vn -0.1181 -0.9241 0.3634
vn -0.2647 0.9605 -0.0860
vn -0.2648 -0.9605 -0.0860
vn -0.1629 -0.9795 -0.1183
vn -0.0517 -0.0000 0.9987
vn -0.5062 -0.0000 0.8624
vn -0.1985 0.9413 -0.2730
vn -0.4520 0.8883 -0.0813
vn 0.8705 0.0000 -0.4923
vn 0.7516 0.0000 -0.6596
vn 0.7515 -0.0000 -0.6598
vn -0.1984 -0.9413 -0.2730
vn 0.1639 0.9604 -0.2255
vn 0.1638 -0.9604 -0.2255
vn 0.1650 -0.9790 -0.1199
vn -0.9400 0.0000 -0.3412
vn -0.6781 -0.0000 -0.7350
vn 0.3280 0.9386 -0.1066
vn 0.2186 0.8889 -0.4026
vn 0.2306 -0.0000 0.9731
vn 0.3861 -0.0000 0.9224
vn 0.3281 -0.9386 -0.1065
vn -0.9949 -0.0000 0.1007
vn -0.9796 0.0000 0.2009
vn 0.9980 0.0000 0.0636
vn 0.9998 0.0000 0.0222
vn -0.9981 0.0000 -0.0624
vn 0.9864 0.0000 0.1646
vn 0.9864 0.0000 0.1645
vn 0.6654 0.0000 0.7465
vn 0.7419 0.0000 0.6705
vn -0.5464 0.0000 -0.8375
vn -0.5912 0.0000 -0.8065
vn 0.5413 0.0000 0.8408
vn -0.4548 -0.0000 -0.8906
vn -0.4549 0.0000 -0.8906
vn 0.4963 0.0000 -0.8681
vn 0.4513 0.0000 -0.8924
vn -0.6224 0.0000 0.7827
vn -0.6056 0.0000 0.7958
vn 0.5952 0.0000 -0.8036
vn -0.6995 0.0000 0.7146
vn -0.6995 -0.0000 0.7147
vn -0.9786 -0.0000 -0.2059
vn 0.3862 -0.0000 0.9224
vn 0.6297 0.6279 0.4574
vn 0.7402 0.6279 0.2406
vn 0.4575 0.6280 0.6295
vn 0.4576 0.6279 0.6296
vn 0.2403 0.6280 0.7402
vn 0.0000 0.6280 0.7782
vn -0.2403 0.6280 0.7402
vn -0.4575 0.6280 0.6295
vn -0.4576 0.6279 0.6296
vn -0.6297 0.6279 0.4574
vn -0.7402 0.6279 0.2406
vn -0.7402 0.6279 0.2405
vn -0.7783 0.6279 0.0000
vn -0.7402 0.6279 -0.2405
vn -0.6297 0.6279 -0.4574
vn -0.4575 0.6280 -0.6295
vn -0.2403 0.6280 -0.7402
vn 0.0000 0.6280 -0.7782
vn 0.2403 0.6280 -0.7402
vn 0.4575 0.6280 -0.6295
vn 0.6297 0.6279 -0.4574
vn 0.7402 0.6279 -0.2405
vn 0.7783 0.6279 0.0000
vn 0.7402 0.6279 0.2405
vn 0.6297 -0.6279 0.4574
vn 0.7402 -0.6279 0.2406
vn 0.7402 -0.6279 0.2405
vn 0.4575 -0.6280 0.6295
vn 0.4576 -0.6279 0.6296
vn 0.2403 -0.6280 0.7402
vn -0.2403 -0.6280 0.7402
vn 0.0000 -0.6280 0.7782
vn -0.4575 -0.6280 0.6295
vn -0.6297 -0.6279 0.4574
vn -0.4576 -0.6279 0.6296
vn -0.7402 -0.6279 0.2406
vn -0.7402 -0.6279 0.2405
vn -0.7783 -0.6279 0.0000
vn -0.7402 -0.6279 -0.2405
vn -0.4575 -0.6280 -0.6295
vn -0.6297 -0.6279 -0.4574
vn -0.2403 -0.6280 -0.7402
vn 0.0000 -0.6280 -0.7782
vn 0.2403 -0.6280 -0.7402
vn 0.4575 -0.6280 -0.6295
vn 0.7402 -0.6279 -0.2405
vn 0.6297 -0.6279 -0.4574
vn 0.7783 -0.6279 0.0000
vn 0.9909 -0.0000 -0.1344
s 1
f 2/1/1 21/2/2 1/3/2
f 3/4/3 22/5/1 2/1/1
f 4/6/4 23/7/3 3/4/3
f 42/8/5 44/9/6 41/10/6
f 45/11/7 43/12/5 42/8/5
f 7/13/8 26/14/9 6/15/9
f 8/16/10 27/17/8 7/13/8
f 9/18/11 28/19/10 8/16/10
f 10/20/12 29/21/11 9/18/11
f 10/20/12 31/22/13 30/23/12
f 47/24/14 49/25/15 50/26/14
f 51/27/16 49/25/15 48/28/17
f 14/29/18 33/30/19 13/31/19
f 15/32/20 34/33/18 14/29/18
f 16/34/21 35/35/20 15/32/20
f 17/36/22 36/37/21 16/34/21
f 54/38/23 56/39/24 53/40/24
f 57/41/25 55/42/23 54/38/23
f 20/43/26 39/44/27 19/45/27
f 1/46/2 40/47/26 20/43/26
f 114/48/28 113/49/28 115/50/28
f 116/51/28 114/48/28 115/50/28
f 117/52/28 116/51/28 115/50/28
f 118/53/28 117/52/28 115/50/28
f 119/54/28 118/53/28 115/50/28
f 120/55/28 119/54/28 115/50/28
f 121/56/28 120/55/28 115/50/28
f 122/57/28 121/56/28 115/50/28
f 123/58/28 122/57/28 115/50/28
f 124/59/28 123/58/28 115/50/28
f 125/60/28 124/59/28 115/50/28
f 126/61/28 125/60/28 115/50/28
f 127/62/28 126/61/28 115/50/28
f 128/63/28 127/62/28 115/50/28
f 129/64/28 128/63/28 115/50/28
f 130/65/28 129/64/28 115/50/28
f 131/66/28 130/65/28 115/50/28
f 132/67/28 131/66/28 115/50/28
f 133/68/28 132/67/28 115/50/28
f 113/49/28 133/68/28 115/50/28
f 134/69/29 135/70/29 136/71/29
f 135/70/29 137/72/29 136/71/29
f 137/72/29 138/73/29 136/71/29
f 138/73/29 139/74/29 136/71/29
f 139/74/29 140/75/29 136/71/29
f 140/75/29 141/76/29 136/71/29
f 141/76/29 142/77/29 136/71/29
f 142/77/29 143/78/29 136/71/29
f 143/78/29 144/79/29 136/71/29
f 144/79/29 145/80/29 136/71/29
f 145/80/29 146/81/29 136/71/29
f 146/81/29 147/82/29 136/71/29
f 147/82/29 148/83/29 136/71/29
f 148/83/29 149/84/29 136/71/29
f 149/84/29 150/85/29 136/71/29
f 150/85/29 151/86/29 136/71/29
f 151/86/29 152/87/29 136/71/29
f 152/87/29 153/88/29 136/71/29
f 153/88/29 154/89/29 136/71/29
f 154/89/29 134/69/29 136/71/29
f 4/6/30 104/90/28 105/91/28
f 24/92/31 101/93/29 25/94/32
f 4/6/33 106/95/34 24/92/33
f 6/15/35 104/90/28 5/96/36
f 26/14/37 103/97/38 6/15/37
f 26/14/39 101/93/29 102/98/29
f 11/99/40 98/100/28 99/101/28
f 31/22/41 95/102/29 32/103/42
f 11/99/43 100/104/44 31/22/43
f 13/31/45 98/100/28 12/105/46
f 13/31/47 96/106/48 97/107/49
f 33/30/50 95/102/29 96/106/29
f 17/36/51 110/108/28 111/109/28
f 37/110/52 107/111/29 38/112/53
f 17/36/54 112/113/55 37/110/54
f 19/45/56 110/108/28 18/114/57
f 39/44/58 109/115/59 19/45/58
f 39/44/60 107/111/29 108/116/29
f 59/117/29 46/118/29 60/119/29
f 60/119/61 45/11/62 61/120/61
f 62/121/28 45/11/28 42/8/28
f 62/121/28 41/10/28 63/122/28
f 63/122/63 44/9/64 64/123/63
f 59/117/29 44/9/29 43/12/29
f 65/124/29 60/119/29 66/125/29
f 66/125/65 61/120/61 67/126/65
f 68/127/28 61/120/28 62/121/28
f 68/127/28 63/122/28 69/128/28
f 69/128/66 64/123/63 70/129/67
f 65/124/29 64/123/29 59/117/29
f 71/130/29 58/131/29 72/132/29
f 73/133/68 58/131/69 57/41/69
f 74/134/28 57/41/28 54/38/28
f 74/134/28 53/40/28 75/135/28
f 75/135/70 56/39/71 76/136/70
f 71/130/29 56/39/29 55/42/29
f 77/137/29 72/132/29 78/138/29
f 79/139/72 72/132/68 73/133/68
f 80/140/28 73/133/28 74/134/28
f 80/140/28 75/135/28 81/141/28
f 81/141/73 76/136/70 82/142/74
f 77/137/29 76/136/29 71/130/29
f 83/143/29 52/144/29 84/145/29
f 85/146/75 52/144/76 51/27/76
f 86/147/28 51/27/28 48/28/28
f 86/147/28 47/24/28 87/148/28
f 87/148/77 50/26/78 88/149/77
f 83/143/29 50/26/29 49/25/29
f 89/150/29 84/145/29 90/151/29
f 91/152/79 84/145/75 85/146/75
f 92/153/28 85/146/28 86/147/28
f 92/153/28 87/148/28 93/154/28
f 94/155/80 87/148/77 88/149/77
f 89/150/29 88/149/29 83/143/29
f 96/106/29 89/150/29 90/151/29
f 97/107/49 90/151/79 91/152/79
f 92/153/28 97/107/28 91/152/28
f 93/154/28 98/100/28 92/153/28
f 100/104/44 93/154/81 94/155/80
f 95/102/29 94/155/29 89/150/29
f 66/125/29 101/93/29 65/124/29
f 67/126/65 102/98/82 66/125/65
f 104/90/28 67/126/28 68/127/28
f 69/128/28 104/90/28 68/127/28
f 106/95/34 69/128/66 70/129/67
f 101/93/29 70/129/29 65/124/29
f 78/138/29 107/111/29 77/137/29
f 79/139/72 108/116/83 78/138/72
f 110/108/28 79/139/28 80/140/28
f 81/141/28 110/108/28 80/140/28
f 112/113/55 81/141/73 82/142/74
f 107/111/29 82/142/29 77/137/29
f 2/156/84 113/49/85 114/48/84
f 2/156/84 116/51/86 3/157/87
f 4/158/30 116/51/86 117/52/88
f 5/159/36 117/52/88 118/53/89
f 5/159/36 119/54/90 6/160/35
f 6/160/35 120/55/91 7/161/92
f 8/162/93 120/55/91 121/56/93
f 8/162/93 122/57/94 9/163/95
f 9/163/95 123/58/96 10/164/96
f 11/165/40 123/58/96 124/59/97
f 12/166/46 124/59/97 125/60/98
f 12/166/46 126/61/99 13/167/45
f 14/168/100 126/61/99 127/62/100
f 15/169/101 127/62/100 128/63/101
f 15/169/101 129/64/102 16/170/102
f 16/170/102 130/65/103 17/171/51
f 18/172/57 130/65/103 131/66/104
f 18/172/57 132/67/105 19/173/56
f 19/173/56 133/68/106 20/174/106
f 1/175/107 133/68/106 113/49/85
f 22/176/108 134/69/109 21/177/110
f 22/176/108 137/72/111 135/70/108
f 24/178/31 137/72/111 23/179/112
f 25/180/32 138/73/113 24/178/31
f 25/180/32 140/75/114 139/74/115
f 26/181/39 141/76/116 140/75/114
f 28/182/117 141/76/116 27/183/118
f 28/182/117 143/78/119 142/77/117
f 29/184/120 144/79/121 143/78/119
f 31/185/41 144/79/121 30/186/121
f 32/187/42 145/80/122 31/185/41
f 32/187/42 147/82/123 146/81/124
f 34/188/125 147/82/123 33/189/50
f 35/190/126 148/83/125 34/188/125
f 35/190/126 150/85/127 149/84/126
f 36/191/127 151/86/128 150/85/127
f 38/192/53 151/86/128 37/193/52
f 38/192/53 153/88/129 152/87/130
f 39/194/60 154/89/131 153/88/129
f 21/177/110 154/89/131 40/195/131
f 2/1/1 22/5/1 21/2/2
f 3/4/3 23/7/3 22/5/1
f 4/6/4 24/92/4 23/7/3
f 42/8/5 43/12/5 44/9/6
f 45/11/7 46/118/7 43/12/5
f 7/13/8 27/17/8 26/14/9
f 8/16/10 28/19/10 27/17/8
f 9/18/11 29/21/11 28/19/10
f 10/20/12 30/23/12 29/21/11
f 10/20/12 11/99/13 31/22/13
f 47/24/14 48/28/17 49/25/15
f 51/27/16 52/144/16 49/25/15
f 14/29/18 34/33/18 33/30/19
f 15/32/20 35/35/20 34/33/18
f 16/34/21 36/37/21 35/35/20
f 17/36/22 37/110/22 36/37/21
f 54/38/23 55/42/23 56/39/24
f 57/41/25 58/131/25 55/42/23
f 20/43/26 40/47/26 39/44/27
f 1/46/2 21/196/2 40/47/26
f 4/6/30 5/96/36 104/90/28
f 24/92/31 106/95/29 101/93/29
f 4/6/33 105/91/132 106/95/34
f 6/15/35 103/97/28 104/90/28
f 26/14/37 102/98/82 103/97/38
f 26/14/39 25/94/32 101/93/29
f 11/99/40 12/105/46 98/100/28
f 31/22/41 100/104/29 95/102/29
f 11/99/43 99/101/44 100/104/44
f 13/31/45 97/107/28 98/100/28
f 13/31/47 33/30/47 96/106/48
f 33/30/50 32/103/42 95/102/29
f 17/36/51 18/114/57 110/108/28
f 37/110/52 112/113/29 107/111/29
f 17/36/54 111/109/55 112/113/55
f 19/45/56 109/115/28 110/108/28
f 39/44/58 108/116/83 109/115/59
f 39/44/60 38/112/53 107/111/29
f 59/117/29 43/12/29 46/118/29
f 60/119/61 46/118/62 45/11/62
f 62/121/28 61/120/28 45/11/28
f 62/121/28 42/8/28 41/10/28
f 63/122/63 41/10/64 44/9/64
f 59/117/29 64/123/29 44/9/29
f 65/124/29 59/117/29 60/119/29
f 66/125/65 60/119/61 61/120/61
f 68/127/28 67/126/28 61/120/28
f 68/127/28 62/121/28 63/122/28
f 69/128/66 63/122/63 64/123/63
f 65/124/29 70/129/29 64/123/29
f 71/130/29 55/42/29 58/131/29
f 73/133/68 72/132/68 58/131/69
f 74/134/28 73/133/28 57/41/28
f 74/134/28 54/38/28 53/40/28
f 75/135/70 53/40/71 56/39/71
f 71/130/29 76/136/29 56/39/29
f 77/137/29 71/130/29 72/132/29
f 79/139/72 78/138/72 72/132/68
f 80/140/28 79/139/28 73/133/28
f 80/140/28 74/134/28 75/135/28
f 81/141/73 75/135/70 76/136/70
f 77/137/29 82/142/29 76/136/29
f 83/143/29 49/25/29 52/144/29
f 85/146/75 84/145/75 52/144/76
f 86/147/28 85/146/28 51/27/28
f 86/147/28 48/28/28 47/24/28
f 87/148/77 47/24/78 50/26/78
f 83/143/29 88/149/29 50/26/29
f 89/150/29 83/143/29 84/145/29
f 91/152/79 90/151/79 84/145/75
f 92/153/28 91/152/28 85/146/28
f 92/153/28 86/147/28 87/148/28
f 94/155/80 93/154/81 87/148/77
f 89/150/29 94/155/29 88/149/29
f 96/106/29 95/102/29 89/150/29
f 97/107/49 96/106/48 90/151/79
f 92/153/28 98/100/28 97/107/28
f 93/154/28 99/101/28 98/100/28
f 100/104/44 99/101/44 93/154/81
f 95/102/29 100/104/29 94/155/29
f 66/125/29 102/98/29 101/93/29
f 67/126/65 103/97/38 102/98/82
f 104/90/28 103/97/28 67/126/28
f 69/128/28 105/91/28 104/90/28
f 106/95/34 105/91/132 69/128/66
f 101/93/29 106/95/29 70/129/29
f 78/138/29 108/116/29 107/111/29
f 79/139/72 109/115/59 108/116/83
f 110/108/28 109/115/28 79/139/28
f 81/141/28 111/109/28 110/108/28
f 112/113/55 111/109/55 81/141/73
f 107/111/29 112/113/29 82/142/29
f 2/156/84 1/175/107 113/49/85
f 2/156/84 114/48/84 116/51/86
f 4/158/30 3/157/87 116/51/86
f 5/159/36 4/158/30 117/52/88
f 5/159/36 118/53/89 119/54/90
f 6/160/35 119/54/90 120/55/91
f 8/162/93 7/161/92 120/55/91
f 8/162/93 121/56/93 122/57/94
f 9/163/95 122/57/94 123/58/96
f 11/165/40 10/164/96 123/58/96
f 12/166/46 11/165/40 124/59/97
f 12/166/46 125/60/98 126/61/99
f 14/168/100 13/167/45 126/61/99
f 15/169/101 14/168/100 127/62/100
f 15/169/101 128/63/101 129/64/102
f 16/170/102 129/64/102 130/65/103
f 18/172/57 17/171/51 130/65/103
f 18/172/57 131/66/104 132/67/105
f 19/173/56 132/67/105 133/68/106
f 1/175/107 20/174/106 133/68/106
f 22/176/108 135/70/108 134/69/109
f 22/176/108 23/179/112 137/72/111
f 24/178/31 138/73/113 137/72/111
f 25/180/32 139/74/115 138/73/113
f 25/180/32 26/181/39 140/75/114
f 26/181/39 27/183/118 141/76/116
f 28/182/117 142/77/117 141/76/116
f 28/182/117 29/184/120 143/78/119
f 29/184/120 30/186/121 144/79/121
f 31/185/41 145/80/122 144/79/121
f 32/187/42 146/81/124 145/80/122
f 32/187/42 33/189/50 147/82/123
f 34/188/125 148/83/125 147/82/123
f 35/190/126 149/84/126 148/83/125
f 35/190/126 36/191/127 150/85/127
f 36/191/127 37/193/52 151/86/128
f 38/192/53 152/87/130 151/86/128
f 38/192/53 39/194/60 153/88/129
f 39/194/60 40/195/131 154/89/131
f 21/177/110 134/69/109 154/89/131
