# Blender v2.90.1 OBJ File: ''
# www.blender.org
o Cylinder
v 0.941756 -0.376790 -1.969898
v 0.941756 0.376790 -1.969898
v 1.136847 -0.376790 -1.950683
v 1.136847 0.376790 -1.950683
v 1.324440 -0.376790 -1.893778
v 1.324440 0.376790 -1.893778
v 1.497327 -0.376790 -1.801368
v 1.497327 0.376790 -1.801368
v 1.648863 -0.376790 -1.677005
v 1.648863 0.376790 -1.677005
v 1.773226 -0.376790 -1.525468
v 1.773226 0.376790 -1.525468
v 1.865636 -0.376790 -1.352582
v 1.865636 0.376790 -1.352582
v 1.922542 -0.376790 -1.164988
v 1.922542 0.376790 -1.164988
v 1.941756 -0.376790 -0.969898
v 1.941756 0.376790 -0.969898
v 1.922542 -0.376790 -0.774808
v 1.922542 0.376790 -0.774808
v 1.865636 -0.376790 -0.587215
v 1.865636 0.376790 -0.587215
v 1.773226 -0.376790 -0.414328
v 1.773226 0.376790 -0.414328
v 1.648863 -0.376790 -0.262791
v 1.648863 0.376790 -0.262791
v 1.497327 -0.376790 -0.138428
v 1.497327 0.376790 -0.138428
v 1.324440 -0.376790 -0.046018
v 1.324440 0.376790 -0.046018
v 1.136847 -0.376790 0.010887
v 1.136847 0.376790 0.010887
v 0.941756 -0.376790 0.030102
v 0.941756 0.376790 0.030102
v 0.746666 -0.376790 0.010887
v 0.746666 0.376790 0.010887
v 0.559073 -0.376790 -0.046019
v 0.559073 0.376790 -0.046019
v 0.386186 -0.376790 -0.138429
v 0.386186 0.376790 -0.138429
v 0.234649 -0.376790 -0.262792
v 0.234649 0.376790 -0.262792
v 0.110286 -0.376790 -0.414328
v 0.110286 0.376790 -0.414328
v 0.017877 -0.376790 -0.587215
v 0.017877 0.376790 -0.587215
v -0.039029 -0.376790 -0.774809
v -0.039029 0.376790 -0.774809
v -0.058244 -0.376790 -0.969899
v -0.058244 0.376790 -0.969899
v -0.039029 -0.376790 -1.164989
v -0.039029 0.376790 -1.164989
v 0.017877 -0.376790 -1.352583
v 0.017877 0.376790 -1.352583
v 0.110288 -0.376790 -1.525469
v 0.110288 0.376790 -1.525469
v 0.234651 -0.376790 -1.677006
v 0.234651 0.376790 -1.677006
v 0.386187 -0.376790 -1.801368
v 0.386187 0.376790 -1.801368
v 0.559074 -0.376790 -1.893778
v 0.559074 0.376790 -1.893778
v 0.746668 -0.376790 -1.950684
v 0.746668 0.376790 -1.950684
v -0.941756 -0.376790 -1.969898
v -0.941756 0.376790 -1.969898
v -1.136847 -0.376790 -1.950683
v -1.136847 0.376790 -1.950683
v -1.324440 -0.376790 -1.893778
v -1.324440 0.376790 -1.893778
v -1.497327 -0.376790 -1.801368
v -1.497327 0.376790 -1.801368
v -1.648863 -0.376790 -1.677005
v -1.648863 0.376790 -1.677005
v -1.773226 -0.376790 -1.525468
v -1.773226 0.376790 -1.525468
v -1.865636 -0.376790 -1.352582
v -1.865636 0.376790 -1.352582
v -1.922542 -0.376790 -1.164988
v -1.922542 0.376790 -1.164988
v -1.941756 -0.376790 -0.969898
v -1.941756 0.376790 -0.969898
v -1.922542 -0.376790 -0.774808
v -1.922542 0.376790 -0.774808
v -1.865636 -0.376790 -0.587215
v -1.865636 0.376790 -0.587215
v -1.773226 -0.376790 -0.414328
v -1.773226 0.376790 -0.414328
v -1.648863 -0.376790 -0.262791
v -1.648863 0.376790 -0.262791
v -1.497327 -0.376790 -0.138428
v -1.497327 0.376790 -0.138428
v -1.324440 -0.376790 -0.046018
v -1.324440 0.376790 -0.046018
v -1.136847 -0.376790 0.010887
v -1.136847 0.376790 0.010887
v -0.941756 -0.376790 0.030102
v -0.941756 0.376790 0.030102
v -0.746666 -0.376790 0.010887
v -0.746666 0.376790 0.010887
v -0.559073 -0.376790 -0.046019
v -0.559073 0.376790 -0.046019
v -0.386186 -0.376790 -0.138429
v -0.386186 0.376790 -0.138429
v -0.234649 -0.376790 -0.262792
v -0.234649 0.376790 -0.262792
v -0.110286 -0.376790 -0.414328
v -0.110286 0.376790 -0.414328
v -0.017877 -0.376790 -0.587215
v -0.017877 0.376790 -0.587215
v 0.039029 -0.376790 -0.774809
v 0.039029 0.376790 -0.774809
v 0.058244 -0.376790 -0.969899
v 0.058244 0.376790 -0.969899
v 0.039029 -0.376790 -1.164989
v 0.039029 0.376790 -1.164989
v -0.017877 -0.376790 -1.352583
v -0.017877 0.376790 -1.352583
v -0.110288 -0.376790 -1.525469
v -0.110288 0.376790 -1.525469
v -0.234651 -0.376790 -1.677006
v -0.234651 0.376790 -1.677006
v -0.386187 -0.376790 -1.801368
v -0.386187 0.376790 -1.801368
v -0.559074 -0.376790 -1.893778
v -0.559074 0.376790 -1.893778
v -0.746668 -0.376790 -1.950684
v -0.746668 0.376790 -1.950684
v 0.941756 -0.376790 1.969898
v 0.941756 0.376790 1.969898
v 1.136847 -0.376790 1.950683
v 1.136847 0.376790 1.950683
v 1.324440 -0.376790 1.893778
v 1.324440 0.376790 1.893778
v 1.497327 -0.376790 1.801368
v 1.497327 0.376790 1.801368
v 1.648863 -0.376790 1.677005
v 1.648863 0.376790 1.677005
v 1.773226 -0.376790 1.525468
v 1.773226 0.376790 1.525468
v 1.865636 -0.376790 1.352582
v 1.865636 0.376790 1.352582
v 1.922542 -0.376790 1.164988
v 1.922542 0.376790 1.164988
v 1.941756 -0.376790 0.969898
v 1.941756 0.376790 0.969898
v 1.922542 -0.376790 0.774808
v 1.922542 0.376790 0.774808
v 1.865636 -0.376790 0.587215
v 1.865636 0.376790 0.587215
v 1.773226 -0.376790 0.414328
v 1.773226 0.376790 0.414328
v 1.648863 -0.376790 0.262791
v 1.648863 0.376790 0.262791
v 1.497327 -0.376790 0.138428
v 1.497327 0.376790 0.138428
v 1.324440 -0.376790 0.046018
v 1.324440 0.376790 0.046018
v 1.136847 -0.376790 -0.010887
v 1.136847 0.376790 -0.010887
v 0.941756 -0.376790 -0.030102
v 0.941756 0.376790 -0.030102
v 0.746666 -0.376790 -0.010887
v 0.746666 0.376790 -0.010887
v 0.559073 -0.376790 0.046019
v 0.559073 0.376790 0.046019
v 0.386186 -0.376790 0.138429
v 0.386186 0.376790 0.138429
v 0.234649 -0.376790 0.262792
v 0.234649 0.376790 0.262792
v 0.110286 -0.376790 0.414328
v 0.110286 0.376790 0.414328
v 0.017877 -0.376790 0.587215
v 0.017877 0.376790 0.587215
v -0.039029 -0.376790 0.774809
v -0.039029 0.376790 0.774809
v -0.058244 -0.376790 0.969899
v -0.058244 0.376790 0.969899
v -0.039029 -0.376790 1.164989
v -0.039029 0.376790 1.164989
v 0.017877 -0.376790 1.352583
v 0.017877 0.376790 1.352583
v 0.110288 -0.376790 1.525469
v 0.110288 0.376790 1.525469
v 0.234651 -0.376790 1.677006
v 0.234651 0.376790 1.677006
v 0.386187 -0.376790 1.801368
v 0.386187 0.376790 1.801368
v 0.559074 -0.376790 1.893778
v 0.559074 0.376790 1.893778
v 0.746668 -0.376790 1.950684
v 0.746668 0.376790 1.950684
v -0.941756 -0.376790 1.969898
v -0.941756 0.376790 1.969898
v -1.136847 -0.376790 1.950683
v -1.136847 0.376790 1.950683
v -1.324440 -0.376790 1.893778
v -1.324440 0.376790 1.893778
v -1.497327 -0.376790 1.801368
v -1.497327 0.376790 1.801368
v -1.648863 -0.376790 1.677005
v -1.648863 0.376790 1.677005
v -1.773226 -0.376790 1.525468
v -1.773226 0.376790 1.525468
v -1.865636 -0.376790 1.352582
v -1.865636 0.376790 1.352582
v -1.922542 -0.376790 1.164988
v -1.922542 0.376790 1.164988
v -1.941756 -0.376790 0.969898
v -1.941756 0.376790 0.969898
v -1.922542 -0.376790 0.774808
v -1.922542 0.376790 0.774808
v -1.865636 -0.376790 0.587215
v -1.865636 0.376790 0.587215
v -1.773226 -0.376790 0.414328
v -1.773226 0.376790 0.414328
v -1.648863 -0.376790 0.262791
v -1.648863 0.376790 0.262791
v -1.497327 -0.376790 0.138428
v -1.497327 0.376790 0.138428
v -1.324440 -0.376790 0.046018
v -1.324440 0.376790 0.046018
v -1.136847 -0.376790 -0.010887
v -1.136847 0.376790 -0.010887
v -0.941756 -0.376790 -0.030102
v -0.941756 0.376790 -0.030102
v -0.746666 -0.376790 -0.010887
v -0.746666 0.376790 -0.010887
v -0.559073 -0.376790 0.046019
v -0.559073 0.376790 0.046019
v -0.386186 -0.376790 0.138429
v -0.386186 0.376790 0.138429
v -0.234649 -0.376790 0.262792
v -0.234649 0.376790 0.262792
v -0.110286 -0.376790 0.414328
v -0.110286 0.376790 0.414328
v -0.017877 -0.376790 0.587215
v -0.017877 0.376790 0.587215
v 0.039029 -0.376790 0.774809
v 0.039029 0.376790 0.774809
v 0.058244 -0.376790 0.969899
v 0.058244 0.376790 0.969899
v 0.039029 -0.376790 1.164989
v 0.039029 0.376790 1.164989
v -0.017877 -0.376790 1.352583
v -0.017877 0.376790 1.352583
v -0.110288 -0.376790 1.525469
v -0.110288 0.376790 1.525469
v -0.234651 -0.376790 1.677006
v -0.234651 0.376790 1.677006
v -0.386187 -0.376790 1.801368
v -0.386187 0.376790 1.801368
v -0.559074 -0.376790 1.893778
v -0.559074 0.376790 1.893778
v -0.746668 -0.376790 1.950684
v -0.746668 0.376790 1.950684
vn 0.0980 0.0000 -0.9952
vn 0.2903 0.0000 -0.9569
vn 0.4714 0.0000 -0.8819
vn 0.6344 0.0000 -0.7730
vn 0.7730 0.0000 -0.6344
vn 0.8819 0.0000 -0.4714
vn 0.9569 0.0000 -0.2903
vn 0.9952 0.0000 -0.0980
vn 0.9952 0.0000 0.0980
vn 0.9569 0.0000 0.2903
vn 0.8819 0.0000 0.4714
vn 0.7730 0.0000 0.6344
vn 0.6344 0.0000 0.7730
vn 0.4714 0.0000 0.8819
vn 0.2903 0.0000 0.9569
vn 0.0980 0.0000 0.9952
vn -0.0980 0.0000 0.9952
vn -0.2903 0.0000 0.9569
vn -0.4714 0.0000 0.8819
vn -0.6344 0.0000 0.7730
vn -0.7730 0.0000 0.6344
vn -0.8819 0.0000 0.4714
vn -0.9569 0.0000 0.2903
vn -0.9952 0.0000 0.0980
vn -0.9952 0.0000 -0.0980
vn -0.9569 0.0000 -0.2903
vn -0.8819 0.0000 -0.4714
vn -0.7730 0.0000 -0.6344
vn -0.6344 0.0000 -0.7730
vn -0.4714 0.0000 -0.8819
vn 0.0000 1.0000 -0.0000
vn -0.2903 0.0000 -0.9569
vn -0.0980 0.0000 -0.9952
vn 0.0000 -1.0000 -0.0000
s off
f 1//1 2//1 4//1 3//1
f 3//2 4//2 6//2 5//2
f 5//3 6//3 8//3 7//3
f 7//4 8//4 10//4 9//4
f 9//5 10//5 12//5 11//5
f 11//6 12//6 14//6 13//6
f 13//7 14//7 16//7 15//7
f 15//8 16//8 18//8 17//8
f 17//9 18//9 20//9 19//9
f 19//10 20//10 22//10 21//10
f 21//11 22//11 24//11 23//11
f 23//12 24//12 26//12 25//12
f 25//13 26//13 28//13 27//13
f 27//14 28//14 30//14 29//14
f 29//15 30//15 32//15 31//15
f 31//16 32//16 34//16 33//16
f 33//17 34//17 36//17 35//17
f 35//18 36//18 38//18 37//18
f 37//19 38//19 40//19 39//19
f 39//20 40//20 42//20 41//20
f 41//21 42//21 44//21 43//21
f 43//22 44//22 46//22 45//22
f 45//23 46//23 48//23 47//23
f 47//24 48//24 50//24 49//24
f 49//25 50//25 52//25 51//25
f 51//26 52//26 54//26 53//26
f 53//27 54//27 56//27 55//27
f 55//28 56//28 58//28 57//28
f 57//29 58//29 60//29 59//29
f 59//30 60//30 62//30 61//30
f 4//31 2//31 64//31 62//31 60//31 58//31 56//31 54//31 52//31 50//31 48//31 46//31 44//31 42//31 40//31 38//31 36//31 34//31 32//31 30//31 28//31 26//31 24//31 22//31 20//31 18//31 16//31 14//31 12//31 10//31 8//31 6//31
f 61//32 62//32 64//32 63//32
f 63//33 64//33 2//33 1//33
f 1//34 3//34 5//34 7//34 9//34 11//34 13//34 15//34 17//34 19//34 21//34 23//34 25//34 27//34 29//34 31//34 33//34 35//34 37//34 39//34 41//34 43//34 45//34 47//34 49//34 51//34 53//34 55//34 57//34 59//34 61//34 63//34
f 65//33 67//33 68//33 66//33
f 67//32 69//32 70//32 68//32
f 69//30 71//30 72//30 70//30
f 71//29 73//29 74//29 72//29
f 73//28 75//28 76//28 74//28
f 75//27 77//27 78//27 76//27
f 77//26 79//26 80//26 78//26
f 79//25 81//25 82//25 80//25
f 81//24 83//24 84//24 82//24
f 83//23 85//23 86//23 84//23
f 85//22 87//22 88//22 86//22
f 87//21 89//21 90//21 88//21
f 89//20 91//20 92//20 90//20
f 91//19 93//19 94//19 92//19
f 93//18 95//18 96//18 94//18
f 95//17 97//17 98//17 96//17
f 97//16 99//16 100//16 98//16
f 99//15 101//15 102//15 100//15
f 101//14 103//14 104//14 102//14
f 103//13 105//13 106//13 104//13
f 105//12 107//12 108//12 106//12
f 107//11 109//11 110//11 108//11
f 109//10 111//10 112//10 110//10
f 111//9 113//9 114//9 112//9
f 113//8 115//8 116//8 114//8
f 115//7 117//7 118//7 116//7
f 117//6 119//6 120//6 118//6
f 119//5 121//5 122//5 120//5
f 121//4 123//4 124//4 122//4
f 123//3 125//3 126//3 124//3
f 68//31 70//31 72//31 74//31 76//31 78//31 80//31 82//31 84//31 86//31 88//31 90//31 92//31 94//31 96//31 98//31 100//31 102//31 104//31 106//31 108//31 110//31 112//31 114//31 116//31 118//31 120//31 122//31 124//31 126//31 128//31 66//31
f 125//2 127//2 128//2 126//2
f 127//1 65//1 66//1 128//1
f 65//34 127//34 125//34 123//34 121//34 119//34 117//34 115//34 113//34 111//34 109//34 107//34 105//34 103//34 101//34 99//34 97//34 95//34 93//34 91//34 89//34 87//34 85//34 83//34 81//34 79//34 77//34 75//34 73//34 71//34 69//34 67//34
f 129//16 131//16 132//16 130//16
f 131//15 133//15 134//15 132//15
f 133//14 135//14 136//14 134//14
f 135//13 137//13 138//13 136//13
f 137//12 139//12 140//12 138//12
f 139//11 141//11 142//11 140//11
f 141//10 143//10 144//10 142//10
f 143//9 145//9 146//9 144//9
f 145//8 147//8 148//8 146//8
f 147//7 149//7 150//7 148//7
f 149//6 151//6 152//6 150//6
f 151//5 153//5 154//5 152//5
f 153//4 155//4 156//4 154//4
f 155//3 157//3 158//3 156//3
f 157//2 159//2 160//2 158//2
f 159//1 161//1 162//1 160//1
f 161//33 163//33 164//33 162//33
f 163//32 165//32 166//32 164//32
f 165//30 167//30 168//30 166//30
f 167//29 169//29 170//29 168//29
f 169//28 171//28 172//28 170//28
f 171//27 173//27 174//27 172//27
f 173//26 175//26 176//26 174//26
f 175//25 177//25 178//25 176//25
f 177//24 179//24 180//24 178//24
f 179//23 181//23 182//23 180//23
f 181//22 183//22 184//22 182//22
f 183//21 185//21 186//21 184//21
f 185//20 187//20 188//20 186//20
f 187//19 189//19 190//19 188//19
f 132//31 134//31 136//31 138//31 140//31 142//31 144//31 146//31 148//31 150//31 152//31 154//31 156//31 158//31 160//31 162//31 164//31 166//31 168//31 170//31 172//31 174//31 176//31 178//31 180//31 182//31 184//31 186//31 188//31 190//31 192//31 130//31
f 189//18 191//18 192//18 190//18
f 191//17 129//17 130//17 192//17
f 129//34 191//34 189//34 187//34 185//34 183//34 181//34 179//34 177//34 175//34 173//34 171//34 169//34 167//34 165//34 163//34 161//34 159//34 157//34 155//34 153//34 151//34 149//34 147//34 145//34 143//34 141//34 139//34 137//34 135//34 133//34 131//34
f 193//17 194//17 196//17 195//17
f 195//18 196//18 198//18 197//18
f 197//19 198//19 200//19 199//19
f 199//20 200//20 202//20 201//20
f 201//21 202//21 204//21 203//21
f 203//22 204//22 206//22 205//22
f 205//23 206//23 208//23 207//23
f 207//24 208//24 210//24 209//24
f 209//25 210//25 212//25 211//25
f 211//26 212//26 214//26 213//26
f 213//27 214//27 216//27 215//27
f 215//28 216//28 218//28 217//28
f 217//29 218//29 220//29 219//29
f 219//30 220//30 222//30 221//30
f 221//32 222//32 224//32 223//32
f 223//33 224//33 226//33 225//33
f 225//1 226//1 228//1 227//1
f 227//2 228//2 230//2 229//2
f 229//3 230//3 232//3 231//3
f 231//4 232//4 234//4 233//4
f 233//5 234//5 236//5 235//5
f 235//6 236//6 238//6 237//6
f 237//7 238//7 240//7 239//7
f 239//8 240//8 242//8 241//8
f 241//9 242//9 244//9 243//9
f 243//10 244//10 246//10 245//10
f 245//11 246//11 248//11 247//11
f 247//12 248//12 250//12 249//12
f 249//13 250//13 252//13 251//13
f 251//14 252//14 254//14 253//14
f 196//31 194//31 256//31 254//31 252//31 250//31 248//31 246//31 244//31 242//31 240//31 238//31 236//31 234//31 232//31 230//31 228//31 226//31 224//31 222//31 220//31 218//31 216//31 214//31 212//31 210//31 208//31 206//31 204//31 202//31 200//31 198//31
f 253//15 254//15 256//15 255//15
f 255//16 256//16 194//16 193//16
f 193//34 195//34 197//34 199//34 201//34 203//34 205//34 207//34 209//34 211//34 213//34 215//34 217//34 219//34 221//34 223//34 225//34 227//34 229//34 231//34 233//34 235//34 237//34 239//34 241//34 243//34 245//34 247//34 249//34 251//34 253//34 255//34
