# Blender v2.90.1 OBJ File: ''
# www.blender.org
o Circle_Circle.001
v -1.028956 -0.404018 1.207061
v -1.028956 0.676438 0.779946
v -1.368648 0.644455 0.839467
v -1.656625 0.553375 1.008966
v -1.849046 0.417064 1.262639
v -1.916615 0.256275 1.561867
v -1.849046 0.095485 1.861096
v -1.656625 -0.040825 2.114769
v -1.368648 -0.131905 2.284268
v -1.028956 -0.163888 2.343788
v -0.689264 -0.131905 2.284268
v -0.401287 -0.040826 2.114769
v -0.208867 0.095485 1.861096
v -0.141298 0.256275 1.561867
v -0.208867 0.417065 1.262639
v -0.401287 0.553375 1.008966
v -0.689264 0.644455 0.839466
v 1.137238 -0.413103 0.988290
v 1.137238 0.492658 0.640095
v 0.853516 0.465476 0.689554
v 0.612989 0.388069 0.830400
v 0.452274 0.272220 1.041190
v 0.395838 0.135568 1.289834
v 0.452274 -0.001084 1.538479
v 0.612989 -0.116932 1.749269
v 0.853516 -0.194339 1.890115
v 1.137237 -0.221521 1.939573
v 1.420959 -0.194339 1.890115
v 1.661486 -0.116932 1.749269
v 1.822202 -0.001084 1.538479
v 1.878637 0.135568 1.289834
v 1.822202 0.272221 1.041190
v 1.661486 0.388069 0.830399
v 1.420959 0.465476 0.689554
v -1.028956 -0.404017 -1.207061
v -1.028956 0.676439 -0.779946
v -1.368648 0.644455 -0.839466
v -1.656625 0.553376 -1.008966
v -1.849046 0.417065 -1.262639
v -1.916615 0.256275 -1.561867
v -1.849046 0.095486 -1.861096
v -1.656625 -0.040825 -2.114769
v -1.368648 -0.131905 -2.284268
v -1.028956 -0.163888 -2.343788
v -0.689264 -0.131905 -2.284268
v -0.401287 -0.040825 -2.114769
v -0.208867 0.095486 -1.861096
v -0.141298 0.256275 -1.561867
v -0.208867 0.417065 -1.262639
v -0.401287 0.553376 -1.008965
v -0.689264 0.644456 -0.839466
v 1.137238 -0.413103 -0.988291
v 1.137238 0.492658 -0.640095
v 0.853516 0.465476 -0.689554
v 0.612989 0.388069 -0.830400
v 0.452274 0.272221 -1.041190
v 0.395838 0.135569 -1.289834
v 0.452274 -0.001083 -1.538479
v 0.612989 -0.116931 -1.749269
v 0.853516 -0.194338 -1.890115
v 1.137237 -0.221520 -1.939573
v 1.420959 -0.194339 -1.890115
v 1.661486 -0.116931 -1.749269
v 1.822202 -0.001083 -1.538479
v 1.878637 0.135569 -1.289834
v 1.822202 0.272221 -1.041190
v 1.661486 0.388069 -0.830399
v 1.420959 0.465476 -0.689554
vt -0.000108 -0.000929
vt 0.999512 1.000208
vt 0.999245 1.000155
vt 0.999020 1.000004
vt 0.998869 0.999778
vt 0.998816 0.999512
vt 0.998869 0.999246
vt 0.999020 0.999020
vt 0.999245 0.998869
vt 0.999512 0.998816
vt 0.999778 0.998869
vt 1.000003 0.999020
vt 1.000154 0.999246
vt 1.000207 0.999512
vt 1.000154 0.999778
vt 1.000003 1.000004
vt 0.999778 1.000155
vt -0.000108 -0.000929
vt 0.999512 1.000208
vt 0.999245 1.000155
vt 0.999020 1.000004
vt 0.998869 0.999778
vt 0.998816 0.999512
vt 0.998869 0.999246
vt 0.999020 0.999020
vt 0.999245 0.998869
vt 0.999512 0.998816
vt 0.999778 0.998869
vt 1.000003 0.999020
vt 1.000154 0.999246
vt 1.000207 0.999512
vt 1.000154 0.999778
vt 1.000003 1.000004
vt 0.999778 1.000155
vt -0.000108 -0.000929
vt 0.999245 1.000155
vt 0.999512 1.000208
vt 0.999020 1.000004
vt 0.998869 0.999778
vt 0.998816 0.999512
vt 0.998869 0.999246
vt 0.999020 0.999020
vt 0.999245 0.998869
vt 0.999512 0.998816
vt 0.999778 0.998869
vt 1.000003 0.999020
vt 1.000154 0.999246
vt 1.000207 0.999512
vt 1.000154 0.999778
vt 1.000003 1.000004
vt 0.999778 1.000155
vt -0.000108 -0.000929
vt 0.999245 1.000155
vt 0.999512 1.000208
vt 0.999020 1.000004
vt 0.998869 0.999778
vt 0.998816 0.999512
vt 0.998869 0.999246
vt 0.999020 0.999020
vt 0.999245 0.998869
vt 0.999512 0.998816
vt 0.999778 0.998869
vt 1.000003 0.999020
vt 1.000154 0.999246
vt 1.000207 0.999512
vt 1.000154 0.999778
vt 1.000003 1.000004
vt 0.999778 1.000155
vn 0.1273 0.3646 0.9224
vn 0.3625 0.4108 0.8366
vn 0.5425 0.4960 0.6780
vn 0.6399 0.6073 0.4708
vn 0.6399 0.7278 0.2466
vn 0.5425 0.8391 0.0394
vn 0.3625 0.9243 -0.1192
vn 0.1273 0.9704 -0.2050
vn -0.1273 0.9704 -0.2050
vn -0.3625 0.9243 -0.1192
vn -0.5425 0.8391 0.0394
vn -0.6399 0.7278 0.2466
vn -0.6399 0.6073 0.4708
vn -0.5425 0.4960 0.6780
vn -0.3625 0.4108 0.8366
vn -0.1273 0.3646 0.9224
vn 0.1273 0.3559 0.9258
vn 0.3625 0.4028 0.8404
vn 0.5425 0.4895 0.6827
vn 0.6399 0.6028 0.4765
vn 0.6399 0.7254 0.2534
vn 0.5425 0.8387 0.0473
vn 0.3625 0.9254 -0.1104
vn 0.1273 0.9723 -0.1958
vn -0.1273 0.9723 -0.1958
vn -0.3625 0.9254 -0.1104
vn -0.5425 0.8387 0.0473
vn -0.6399 0.7254 0.2534
vn -0.6399 0.6028 0.4765
vn -0.5425 0.4895 0.6827
vn -0.3625 0.4028 0.8404
vn -0.1273 0.3559 0.9258
vn 0.1273 0.3646 -0.9224
vn 0.3625 0.4108 -0.8366
vn 0.5425 0.4960 -0.6780
vn 0.6399 0.6073 -0.4708
vn 0.6399 0.7278 -0.2466
vn 0.5425 0.8391 -0.0394
vn 0.3625 0.9243 0.1192
vn 0.1273 0.9704 0.2050
vn -0.1273 0.9704 0.2050
vn -0.3625 0.9243 0.1192
vn -0.5425 0.8391 -0.0394
vn -0.6399 0.7278 -0.2466
vn -0.6399 0.6073 -0.4708
vn -0.5425 0.4960 -0.6780
vn -0.3625 0.4108 -0.8366
vn -0.1273 0.3646 -0.9224
vn 0.1273 0.3559 -0.9258
vn 0.3625 0.4028 -0.8404
vn 0.5425 0.4895 -0.6827
vn 0.6399 0.6028 -0.4765
vn 0.6399 0.7254 -0.2534
vn 0.5425 0.8387 -0.0473
vn 0.3625 0.9254 0.1104
vn 0.1273 0.9723 0.1958
vn -0.1273 0.9723 0.1958
vn -0.3625 0.9254 0.1104
vn -0.5425 0.8387 -0.0473
vn -0.6399 0.7254 -0.2534
vn -0.6399 0.6028 -0.4765
vn -0.5425 0.4895 -0.6827
vn -0.3625 0.4028 -0.8404
vn -0.1273 0.3559 -0.9258
s off
f 1/1/1 2/2/1 3/3/1
f 1/1/2 3/3/2 4/4/2
f 1/1/3 4/4/3 5/5/3
f 1/1/4 5/5/4 6/6/4
f 1/1/5 6/6/5 7/7/5
f 1/1/6 7/7/6 8/8/6
f 1/1/7 8/8/7 9/9/7
f 1/1/8 9/9/8 10/10/8
f 1/1/9 10/10/9 11/11/9
f 1/1/10 11/11/10 12/12/10
f 1/1/11 12/12/11 13/13/11
f 1/1/12 13/13/12 14/14/12
f 1/1/13 14/14/13 15/15/13
f 1/1/14 15/15/14 16/16/14
f 1/1/15 16/16/15 17/17/15
f 1/1/16 17/17/16 2/2/16
f 18/18/17 19/19/17 20/20/17
f 18/18/18 20/20/18 21/21/18
f 18/18/19 21/21/19 22/22/19
f 18/18/20 22/22/20 23/23/20
f 18/18/21 23/23/21 24/24/21
f 18/18/22 24/24/22 25/25/22
f 18/18/23 25/25/23 26/26/23
f 18/18/24 26/26/24 27/27/24
f 18/18/25 27/27/25 28/28/25
f 18/18/26 28/28/26 29/29/26
f 18/18/27 29/29/27 30/30/27
f 18/18/28 30/30/28 31/31/28
f 18/18/29 31/31/29 32/32/29
f 18/18/30 32/32/30 33/33/30
f 18/18/31 33/33/31 34/34/31
f 18/18/32 34/34/32 19/19/32
f 35/35/33 37/36/33 36/37/33
f 35/35/34 38/38/34 37/36/34
f 35/35/35 39/39/35 38/38/35
f 35/35/36 40/40/36 39/39/36
f 35/35/37 41/41/37 40/40/37
f 35/35/38 42/42/38 41/41/38
f 35/35/39 43/43/39 42/42/39
f 35/35/40 44/44/40 43/43/40
f 35/35/41 45/45/41 44/44/41
f 35/35/42 46/46/42 45/45/42
f 35/35/43 47/47/43 46/46/43
f 35/35/44 48/48/44 47/47/44
f 35/35/45 49/49/45 48/48/45
f 35/35/46 50/50/46 49/49/46
f 35/35/47 51/51/47 50/50/47
f 35/35/48 36/37/48 51/51/48
f 52/52/49 54/53/49 53/54/49
f 52/52/50 55/55/50 54/53/50
f 52/52/51 56/56/51 55/55/51
f 52/52/52 57/57/52 56/56/52
f 52/52/53 58/58/53 57/57/53
f 52/52/54 59/59/54 58/58/54
f 52/52/55 60/60/55 59/59/55
f 52/52/56 61/61/56 60/60/56
f 52/52/57 62/62/57 61/61/57
f 52/52/58 63/63/58 62/62/58
f 52/52/59 64/64/59 63/63/59
f 52/52/60 65/65/60 64/64/60
f 52/52/61 66/66/61 65/65/61
f 52/52/62 67/67/62 66/66/62
f 52/52/63 68/68/63 67/67/63
f 52/52/64 53/54/64 68/68/64
