# Blender v2.90.1 OBJ File: ''
# www.blender.org
o Circle
v 0.000000 0.000000 -1.000000
v -0.382683 0.000000 -0.923880
v -0.707107 0.000000 -0.707107
v -0.923880 0.000000 -0.382683
v -1.000000 0.000000 0.000000
v -0.923880 0.000000 0.382684
v -0.707107 0.000000 0.707107
v -0.382683 0.000000 0.923880
v -0.000000 0.000000 1.000000
v 0.382683 0.000000 0.923880
v 0.707107 0.000000 0.707107
v 0.923880 0.000000 0.382684
v 1.000000 0.000000 -0.000000
v 0.923879 0.000000 -0.382684
v 0.707107 0.000000 -0.707107
v 0.382683 0.000000 -0.923880
vt 0.000000 0.000000
vt 0.000000 0.000000
vt 0.000000 0.000000
vt 0.000000 0.000000
vt 0.000000 0.000000
vt 0.000000 0.000000
vt 0.000000 0.000000
vt 0.000000 0.000000
vt 0.000000 0.000000
vt 0.000000 0.000000
vt 0.000000 0.000000
vt 0.000000 0.000000
vt 0.000000 0.000000
vt 0.000000 0.000000
vt 0.000000 0.000000
vt 0.000000 0.000000
vn 0.0000 1.0000 0.0000
s off
f 11/1/1 13/2/1 1/3/1
f 1/3/1 2/4/1 3/5/1
f 3/5/1 4/6/1 5/7/1
f 5/7/1 6/8/1 7/9/1
f 7/9/1 8/10/1 9/11/1
f 9/11/1 10/12/1 11/1/1
f 11/1/1 12/13/1 13/2/1
f 13/2/1 14/14/1 1/3/1
f 14/14/1 15/15/1 1/3/1
f 15/15/1 16/16/1 1/3/1
f 1/3/1 3/5/1 5/7/1
f 5/7/1 7/9/1 1/3/1
f 7/9/1 9/11/1 1/3/1
f 9/11/1 11/1/1 1/3/1
