# Blender v2.90.1 OBJ File: 'map.blend'
# www.blender.org
o africa_Plane.004
v 0.139120 0.000000 0.024619
v 0.174743 0.000000 -0.028945
v 0.230972 0.000000 -0.078018
v 0.260109 0.000000 -0.116866
v 0.302536 0.000000 -0.195586
v 0.311225 0.000000 -0.252326
v 0.291801 0.000000 -0.240569
v 0.231994 0.000000 -0.232391
v 0.200302 0.000000 -0.232390
v 0.190590 0.000000 -0.247726
v 0.188545 0.000000 -0.268172
v 0.138450 0.000000 -0.304976
v 0.115448 0.000000 -0.358138
v 0.093468 0.000000 -0.385230
v 0.089889 0.000000 -0.413344
v 0.074043 0.000000 -0.437880
v 0.072510 0.000000 -0.461905
v 0.037239 0.000000 -0.515578
v 0.016792 0.000000 -0.562605
v -0.123879 0.000000 -0.607938
v -0.099343 0.000000 -0.594873
v -0.073851 0.000000 -0.587863
v -0.037205 0.000000 -0.583402
v -0.002791 0.000000 -0.591049
v -0.136944 0.000000 -0.614948
v -0.163711 0.000000 -0.608257
v -0.168172 0.000000 -0.594236
v -0.162436 0.000000 -0.581490
v -0.173270 0.000000 -0.571930
v -0.185379 0.000000 -0.569700
v -0.208641 0.000000 -0.584358
v -0.227441 0.000000 -0.586270
v -0.232540 0.000000 -0.596785
v -0.237320 0.000000 -0.609850
v -0.255801 0.000000 -0.611443
v -0.292765 0.000000 -0.622277
v -0.304874 0.000000 -0.632793
v -0.300732 0.000000 -0.646814
v -0.301688 0.000000 -0.669119
v -0.298182 0.000000 -0.678998
v -0.306786 0.000000 -0.686327
v -0.314752 0.000000 -0.690469
v -0.327499 0.000000 -0.688876
v -0.348211 0.000000 -0.683140
v -0.372110 0.000000 -0.685689
v -0.401426 0.000000 -0.683459
v -0.434566 0.000000 -0.679954
v -0.463563 0.000000 -0.670394
v -0.485551 0.000000 -0.658604
v -0.493198 0.000000 -0.655417
v -0.519328 0.000000 -0.657011
v -0.531755 0.000000 -0.659878
v -0.536216 0.000000 -0.664658
v -0.541633 0.000000 -0.662109
v -0.552786 0.000000 -0.635024
v -0.578597 0.000000 -0.618772
v -0.592618 0.000000 -0.602840
v -0.601859 0.000000 -0.589456
v -0.604727 0.000000 -0.577985
v -0.602815 0.000000 -0.569381
v -0.612056 0.000000 -0.553448
v -0.630219 0.000000 -0.534648
v -0.641372 0.000000 -0.531461
v -0.655393 0.000000 -0.528275
v -0.661447 0.000000 -0.509793
v -0.675468 0.000000 -0.503101
v -0.681841 0.000000 -0.491630
v -0.683115 0.000000 -0.477928
v -0.688214 0.000000 -0.466775
v -0.701916 0.000000 -0.457852
v -0.704146 0.000000 -0.443832
v -0.716574 0.000000 -0.421207
v -0.708289 0.000000 -0.399539
v -0.709882 0.000000 -0.381057
v -0.706058 0.000000 -0.369904
v -0.705740 0.000000 -0.345687
v -0.715299 0.000000 -0.322425
v -0.723584 0.000000 -0.302668
v -0.721035 0.000000 -0.291834
v -0.716574 0.000000 -0.280044
v -0.719442 0.000000 -0.264430
v -0.714980 0.000000 -0.253914
v -0.703828 0.000000 -0.243717
v -0.692675 0.000000 -0.232565
v -0.676423 0.000000 -0.216313
v -0.667820 0.000000 -0.207072
v -0.666545 0.000000 -0.191140
v -0.657623 0.000000 -0.181899
v -0.640416 0.000000 -0.168515
v -0.597398 0.000000 -0.135694
v -0.577960 0.000000 -0.120080
v -0.556929 0.000000 -0.127090
v -0.532711 0.000000 -0.136969
v -0.509131 0.000000 -0.133463
v -0.498615 0.000000 -0.127728
v -0.488418 0.000000 -0.129640
v -0.452410 0.000000 -0.147803
v -0.432973 0.000000 -0.154495
v -0.404612 0.000000 -0.155769
v -0.389317 0.000000 -0.149396
v -0.386130 0.000000 -0.133463
v -0.373703 0.000000 -0.120080
v -0.335465 0.000000 -0.124860
v -0.321125 0.000000 -0.119443
v -0.312203 0.000000 -0.091401
v -0.319213 0.000000 -0.062404
v -0.328773 0.000000 -0.025121
v -0.319532 0.000000 0.001964
v -0.292765 0.000000 0.023314
v -0.279063 0.000000 0.037972
v -0.274283 0.000000 0.060596
v -0.267273 0.000000 0.081628
v -0.263449 0.000000 0.105208
v -0.267273 0.000000 0.114130
v -0.264723 0.000000 0.125283
v -0.255164 0.000000 0.145358
v -0.254208 0.000000 0.159698
v -0.261856 0.000000 0.169257
v -0.277788 0.000000 0.200167
v -0.281931 0.000000 0.218011
v -0.285117 0.000000 0.242229
v -0.285436 0.000000 0.263897
v -0.278107 0.000000 0.280786
v -0.269185 0.000000 0.295444
v -0.257713 0.000000 0.332089
v -0.243692 0.000000 0.348340
v -0.246242 0.000000 0.368734
v -0.244648 0.000000 0.396138
v -0.239550 0.000000 0.416532
v -0.231584 0.000000 0.429278
v -0.220431 0.000000 0.449035
v -0.209278 0.000000 0.461781
v -0.206091 0.000000 0.480900
v -0.193664 0.000000 0.498426
v -0.187609 0.000000 0.514996
v -0.193345 0.000000 0.518501
v -0.197806 0.000000 0.522325
v -0.196532 0.000000 0.529335
v -0.191752 0.000000 0.535708
v -0.185379 0.000000 0.547817
v -0.171677 0.000000 0.552278
v -0.161480 0.000000 0.552916
v -0.145229 0.000000 0.550685
v -0.136306 0.000000 0.546861
v -0.109539 0.000000 0.543993
v -0.086596 0.000000 0.543675
v -0.070982 0.000000 0.537620
v -0.050270 0.000000 0.525193
v -0.029557 0.000000 0.504480
v -0.009801 0.000000 0.478351
v 0.004220 0.000000 0.456364
v 0.018241 0.000000 0.448716
v 0.025888 0.000000 0.420675
v 0.023976 0.000000 0.405061
v 0.032580 0.000000 0.392633
v 0.055842 0.000000 0.383711
v 0.065083 0.000000 0.375426
v 0.069225 0.000000 0.366185
v 0.066994 0.000000 0.356625
v 0.064127 0.000000 0.336550
v 0.061896 0.000000 0.312014
v 0.057116 0.000000 0.300861
v 0.062533 0.000000 0.293213
v 0.084839 0.000000 0.273775
v 0.099178 0.000000 0.263260
v 0.121166 0.000000 0.248602
v 0.136780 0.000000 0.238405
v 0.146976 0.000000 0.223747
v 0.153349 0.000000 0.203990
v 0.155580 0.000000 0.188376
v 0.151119 0.000000 0.167983
v 0.152393 0.000000 0.146633
v 0.151756 0.000000 0.139941
v 0.139329 0.000000 0.125920
v 0.135824 0.000000 0.105845
v 0.134868 0.000000 0.084814
v 0.137098 0.000000 0.069200
v 0.126264 0.000000 0.059322
v 0.131044 0.000000 0.044664
v 0.026870 0.000000 -0.046541
v 0.045225 0.000000 -0.056177
v 0.063120 0.000000 -0.046082
v 0.058990 0.000000 -0.032317
v 0.049354 0.000000 -0.013962
v 0.050731 0.000000 -0.004326
v 0.042930 0.000000 -0.000196
v 0.031459 0.000000 -0.001573
v 0.019987 0.000000 -0.002949
v 0.018152 0.000000 -0.017174
v 0.019528 0.000000 -0.033693
v -0.021693 0.000000 0.013837
v -0.021693 0.000000 0.059341
v -0.007544 0.000000 0.080372
v 0.003162 0.000000 0.103697
v 0.010045 0.000000 0.105609
v 0.008898 0.000000 0.093756
v -0.001426 0.000000 0.073872
v -0.001809 0.000000 0.067753
v -0.009839 0.000000 0.063547
v -0.007544 0.000000 0.049781
v 0.049813 0.000000 0.119375
v 0.055549 0.000000 0.139642
v 0.054784 0.000000 0.162585
v 0.052490 0.000000 0.175968
v 0.058608 0.000000 0.195087
v 0.066256 0.000000 0.201205
v 0.069315 0.000000 0.197382
v 0.065109 0.000000 0.186675
v 0.062432 0.000000 0.174821
v 0.068932 0.000000 0.154555
v 0.066256 0.000000 0.145760
v 0.060902 0.000000 0.131994
v 0.200920 0.000000 0.243452
v 0.235041 0.000000 0.223192
v 0.265964 0.000000 0.196535
v 0.273428 0.000000 0.167744
v 0.276627 0.000000 0.161347
v 0.293688 0.000000 0.181606
v 0.295821 0.000000 0.200800
v 0.295821 0.000000 0.226391
v 0.287290 0.000000 0.242386
v 0.285158 0.000000 0.281839
v 0.264898 0.000000 0.324491
v 0.243572 0.000000 0.360745
v 0.236108 0.000000 0.383138
v 0.223312 0.000000 0.394867
v 0.204119 0.000000 0.396999
v 0.190257 0.000000 0.378872
v 0.188124 0.000000 0.343684
v 0.183859 0.000000 0.326624
v 0.194522 0.000000 0.308496
v 0.199853 0.000000 0.292502
v 0.193456 0.000000 0.255181
vt 0.000000 0.000000
vt 0.000000 0.000000
vt 0.000000 0.000000
vt 0.000000 0.000000
vt 0.000000 0.000000
vt 0.000000 0.000000
vt 0.000000 0.000000
vt 0.000000 0.000000
vt 0.000000 0.000000
vt 0.000000 0.000000
vt 0.000000 0.000000
vt 0.000000 0.000000
vt 0.000000 0.000000
vt 0.000000 0.000000
vt 0.000000 0.000000
vt 0.000000 0.000000
vt 0.000000 0.000000
vt 0.000000 0.000000
vt 0.000000 0.000000
vt 0.000000 0.000000
vt 0.000000 0.000000
vt 0.000000 0.000000
vt 0.000000 0.000000
vt 0.000000 0.000000
vt 0.000000 0.000000
vt 0.000000 0.000000
vt 0.000000 0.000000
vt 0.000000 0.000000
vt 0.000000 0.000000
vt 0.000000 0.000000
vt 0.000000 0.000000
vt 0.000000 0.000000
vt 0.000000 0.000000
vt 0.000000 0.000000
vt 0.000000 0.000000
vt 0.000000 0.000000
vt 0.000000 0.000000
vt 0.000000 0.000000
vt 0.000000 0.000000
vt 0.000000 0.000000
vt 0.000000 0.000000
vt 0.000000 0.000000
vt 0.000000 0.000000
vt 0.000000 0.000000
vt 0.000000 0.000000
vt 0.000000 0.000000
vt 0.000000 0.000000
vt 0.000000 0.000000
vt 0.000000 0.000000
vt 0.000000 0.000000
vt 0.000000 0.000000
vt 0.000000 0.000000
vt 0.000000 0.000000
vt 0.000000 0.000000
vt 0.000000 0.000000
vt 0.000000 0.000000
vt 0.000000 0.000000
vt 0.000000 0.000000
vt 0.000000 0.000000
vt 0.000000 0.000000
vt 0.000000 0.000000
vt 0.000000 0.000000
vt 0.000000 0.000000
vt 0.000000 0.000000
vt 0.000000 0.000000
vt 0.000000 0.000000
vt 0.000000 0.000000
vt 0.000000 0.000000
vt 0.000000 0.000000
vt 0.000000 0.000000
vt 0.000000 0.000000
vt 0.000000 0.000000
vt 0.000000 0.000000
vt 0.000000 0.000000
vt 0.000000 0.000000
vt 0.000000 0.000000
vt 0.000000 0.000000
vt 0.000000 0.000000
vt 0.000000 0.000000
vt 0.000000 0.000000
vt 0.000000 0.000000
vt 0.000000 0.000000
vt 0.000000 0.000000
vt 0.000000 0.000000
vt 0.000000 0.000000
vt 0.000000 0.000000
vt 0.000000 0.000000
vt 0.000000 0.000000
vt 0.000000 0.000000
vt 0.000000 0.000000
vt 0.000000 0.000000
vt 0.000000 0.000000
vt 0.000000 0.000000
vt 0.000000 0.000000
vt 0.000000 0.000000
vt 0.000000 0.000000
vt 0.000000 0.000000
vt 0.000000 0.000000
vt 0.000000 0.000000
vt 0.000000 0.000000
vt 0.000000 0.000000
vt 0.000000 0.000000
vt 0.000000 0.000000
vt 0.000000 0.000000
vt 0.000000 0.000000
vt 0.000000 0.000000
vt 0.000000 0.000000
vt 0.000000 0.000000
vt 0.000000 0.000000
vt 0.000000 0.000000
vt 0.000000 0.000000
vt 0.000000 0.000000
vt 0.000000 0.000000
vt 0.000000 0.000000
vt 0.000000 0.000000
vt 0.000000 0.000000
vt 0.000000 0.000000
vt 0.000000 0.000000
vt 0.000000 0.000000
vt 0.000000 0.000000
vt 0.000000 0.000000
vt 0.000000 0.000000
vt 0.000000 0.000000
vt 0.000000 0.000000
vt 0.000000 0.000000
vt 0.000000 0.000000
vt 0.000000 0.000000
vt 0.000000 0.000000
vt 0.000000 0.000000
vt 0.000000 0.000000
vt 0.000000 0.000000
vt 0.000000 0.000000
vt 0.000000 0.000000
vt 0.000000 0.000000
vt 0.000000 0.000000
vt 0.000000 0.000000
vt 0.000000 0.000000
vt 0.000000 0.000000
vt 0.000000 0.000000
vt 0.000000 0.000000
vt 0.000000 0.000000
vt 0.000000 0.000000
vt 0.000000 0.000000
vt 0.000000 0.000000
vt 0.000000 0.000000
vt 0.000000 0.000000
vt 0.000000 0.000000
vt 0.000000 0.000000
vt 0.000000 0.000000
vt 0.000000 0.000000
vt 0.000000 0.000000
vt 0.000000 0.000000
vt 0.000000 0.000000
vt 0.000000 0.000000
vt 0.000000 0.000000
vt 0.000000 0.000000
vt 0.000000 0.000000
vt 0.000000 0.000000
vt 0.000000 0.000000
vt 0.000000 0.000000
vt 0.000000 0.000000
vt 0.000000 0.000000
vt 0.000000 0.000000
vt 0.000000 0.000000
vt 0.000000 0.000000
vt 0.000000 0.000000
vt 0.000000 0.000000
vt 0.000000 0.000000
vt 0.000000 0.000000
vt 0.000000 0.000000
vt 0.000000 0.000000
vt 0.000000 0.000000
vt 0.000000 0.000000
vt 0.000000 0.000000
vt 0.000000 0.000000
vt 0.000000 0.000000
vt 0.000000 0.000000
vt 0.000000 0.000000
vt 0.000000 0.000000
vt 0.000000 0.000000
vt 0.000000 0.000000
vt 0.000000 0.000000
vt 0.000000 0.000000
vt 0.000000 0.000000
vt 0.000000 0.000000
vt 0.000000 0.000000
vt 0.000000 0.000000
vt 0.000000 0.000000
vt 0.000000 0.000000
vt 0.000000 0.000000
vt 0.000000 0.000000
vt 0.000000 0.000000
vt 0.000000 0.000000
vt 0.000000 0.000000
vt 0.000000 0.000000
vt 0.000000 0.000000
vt 0.000000 0.000000
vt 0.000000 0.000000
vt 0.000000 0.000000
vt 0.000000 0.000000
vt 0.000000 0.000000
vt 0.000000 0.000000
vt 0.000000 0.000000
vt 0.000000 0.000000
vt 0.000000 0.000000
vt 0.000000 0.000000
vt 0.000000 0.000000
vt 0.000000 0.000000
vt 0.000000 0.000000
vt 0.000000 0.000000
vt 0.000000 0.000000
vt 0.000000 0.000000
vt 0.000000 0.000000
vt 0.000000 0.000000
vt 0.000000 0.000000
vt 0.000000 0.000000
vt 0.000000 0.000000
vt 0.000000 0.000000
vt 0.000000 0.000000
vt 0.000000 0.000000
vt 0.000000 0.000000
vt 0.000000 0.000000
vt 0.000000 0.000000
vt 0.000000 0.000000
vt 0.000000 0.000000
vt 0.000000 0.000000
vt 0.000000 0.000000
vt 0.000000 0.000000
vt 0.000000 0.000000
vt 0.000000 0.000000
vt 0.000000 0.000000
vt 0.000000 0.000000
vt 0.000000 0.000000
vn 0.0000 1.0000 0.0000
s off
f 178/1/1 186/2/1 196/3/1
f 69/4/1 73/5/1 75/6/1
f 212/7/1 211/8/1 174/9/1
f 160/10/1 161/11/1 162/12/1
f 224/13/1 223/14/1 231/15/1
f 1/16/1 2/17/1 182/18/1
f 183/19/1 184/20/1 185/21/1
f 1/16/1 182/18/1 183/19/1
f 179/22/1 1/16/1 185/21/1
f 1/16/1 183/19/1 185/21/1
f 176/23/1 177/24/1 178/1/1
f 178/1/1 179/22/1 185/21/1
f 186/2/1 187/25/1 200/26/1
f 187/25/1 188/27/1 200/26/1
f 178/1/1 185/21/1 186/2/1
f 175/28/1 176/23/1 195/29/1
f 176/23/1 178/1/1 196/3/1
f 196/3/1 195/29/1 176/23/1
f 198/30/1 197/31/1 196/3/1
f 200/26/1 199/32/1 198/30/1
f 108/33/1 109/34/1 191/35/1
f 200/26/1 198/30/1 186/2/1
f 198/30/1 196/3/1 186/2/1
f 189/36/1 108/33/1 191/35/1
f 189/36/1 191/35/1 188/27/1
f 191/35/1 200/26/1 188/27/1
f 182/18/1 2/17/1 3/37/1
f 3/37/1 4/38/1 9/39/1
f 4/38/1 5/40/1 8/41/1
f 3/37/1 9/39/1 182/18/1
f 5/40/1 6/42/1 7/43/1
f 5/40/1 7/43/1 8/41/1
f 9/39/1 4/38/1 8/41/1
f 181/44/1 182/18/1 9/39/1
f 10/45/1 11/46/1 12/47/1
f 9/39/1 10/45/1 181/44/1
f 10/45/1 12/47/1 181/44/1
f 12/47/1 13/48/1 14/49/1
f 14/49/1 15/50/1 16/51/1
f 16/51/1 17/52/1 18/53/1
f 18/53/1 19/54/1 23/55/1
f 19/54/1 24/56/1 23/55/1
f 14/49/1 16/51/1 30/57/1
f 16/51/1 18/53/1 29/58/1
f 16/51/1 29/58/1 30/57/1
f 18/53/1 23/55/1 22/59/1
f 181/44/1 12/47/1 180/60/1
f 12/47/1 14/49/1 180/60/1
f 18/53/1 22/59/1 29/58/1
f 22/59/1 21/61/1 29/58/1
f 190/62/1 180/60/1 105/63/1
f 180/60/1 14/49/1 104/64/1
f 105/63/1 180/60/1 104/64/1
f 108/33/1 189/36/1 106/65/1
f 189/36/1 190/62/1 105/63/1
f 106/65/1 189/36/1 105/63/1
f 106/65/1 107/66/1 108/33/1
f 21/61/1 20/67/1 28/68/1
f 29/58/1 21/61/1 28/68/1
f 20/67/1 25/69/1 28/68/1
f 25/69/1 26/70/1 28/68/1
f 26/70/1 27/71/1 28/68/1
f 30/57/1 31/72/1 32/73/1
f 14/49/1 30/57/1 104/64/1
f 104/64/1 30/57/1 103/74/1
f 30/57/1 32/73/1 100/75/1
f 103/74/1 30/57/1 100/75/1
f 101/76/1 102/77/1 103/74/1
f 33/78/1 34/79/1 35/80/1
f 32/73/1 33/78/1 35/80/1
f 100/75/1 32/73/1 99/81/1
f 100/75/1 101/76/1 103/74/1
f 36/82/1 32/73/1 35/80/1
f 37/83/1 38/84/1 44/85/1
f 38/84/1 39/86/1 44/85/1
f 32/73/1 36/82/1 99/81/1
f 36/82/1 37/83/1 49/87/1
f 99/81/1 36/82/1 61/88/1
f 61/88/1 36/82/1 50/89/1
f 39/86/1 40/90/1 41/91/1
f 99/81/1 61/88/1 98/92/1
f 36/82/1 49/87/1 50/89/1
f 39/86/1 41/91/1 42/93/1
f 42/93/1 43/94/1 39/86/1
f 43/94/1 44/85/1 39/86/1
f 44/85/1 45/95/1 37/83/1
f 45/95/1 46/96/1 37/83/1
f 46/96/1 47/97/1 37/83/1
f 47/97/1 48/98/1 37/83/1
f 48/98/1 49/87/1 37/83/1
f 95/99/1 96/100/1 94/101/1
f 96/100/1 97/102/1 94/101/1
f 97/102/1 98/92/1 76/103/1
f 91/104/1 92/105/1 90/106/1
f 92/105/1 93/107/1 90/106/1
f 93/107/1 94/101/1 97/102/1
f 98/92/1 61/88/1 62/108/1
f 50/89/1 51/109/1 55/110/1
f 52/111/1 53/112/1 54/113/1
f 50/89/1 55/110/1 60/114/1
f 51/109/1 52/111/1 55/110/1
f 93/107/1 97/102/1 76/103/1
f 61/88/1 50/89/1 60/114/1
f 52/111/1 54/113/1 55/110/1
f 55/110/1 56/115/1 60/114/1
f 56/115/1 57/116/1 60/114/1
f 57/116/1 58/117/1 60/114/1
f 58/117/1 59/118/1 60/114/1
f 90/106/1 93/107/1 89/119/1
f 98/92/1 62/108/1 75/6/1
f 88/120/1 89/119/1 86/121/1
f 86/121/1 89/119/1 93/107/1
f 86/121/1 87/122/1 88/120/1
f 83/123/1 84/124/1 80/125/1
f 84/124/1 85/126/1 76/103/1
f 85/126/1 86/121/1 76/103/1
f 76/103/1 86/121/1 93/107/1
f 98/92/1 75/6/1 76/103/1
f 63/127/1 64/128/1 65/129/1
f 62/108/1 63/127/1 65/129/1
f 81/130/1 82/131/1 80/125/1
f 82/131/1 83/123/1 80/125/1
f 84/124/1 76/103/1 80/125/1
f 65/129/1 66/132/1 67/133/1
f 62/108/1 65/129/1 68/134/1
f 78/135/1 79/136/1 77/137/1
f 79/136/1 80/125/1 77/137/1
f 65/129/1 67/133/1 68/134/1
f 69/4/1 70/138/1 71/139/1
f 68/134/1 69/4/1 62/108/1
f 76/103/1 77/137/1 80/125/1
f 73/5/1 74/140/1 75/6/1
f 75/6/1 62/108/1 69/4/1
f 69/4/1 71/139/1 73/5/1
f 71/139/1 72/141/1 73/5/1
f 191/35/1 109/34/1 110/142/1
f 110/142/1 111/143/1 191/35/1
f 111/143/1 112/144/1 191/35/1
f 113/145/1 114/146/1 115/147/1
f 113/145/1 115/147/1 192/148/1
f 115/147/1 201/149/1 194/150/1
f 194/150/1 201/149/1 195/29/1
f 191/35/1 112/144/1 192/148/1
f 112/144/1 113/145/1 192/148/1
f 194/150/1 193/151/1 115/147/1
f 193/151/1 192/148/1 115/147/1
f 174/9/1 175/28/1 212/7/1
f 175/28/1 195/29/1 201/149/1
f 173/152/1 174/9/1 172/153/1
f 175/28/1 201/149/1 212/7/1
f 171/154/1 172/153/1 174/9/1
f 169/155/1 170/156/1 207/157/1
f 170/156/1 171/154/1 207/157/1
f 208/158/1 207/157/1 171/154/1
f 210/159/1 209/160/1 208/158/1
f 210/159/1 208/158/1 171/154/1
f 211/8/1 210/159/1 174/9/1
f 210/159/1 171/154/1 174/9/1
f 201/149/1 115/147/1 116/161/1
f 117/162/1 118/163/1 120/164/1
f 118/163/1 119/165/1 120/164/1
f 201/149/1 116/161/1 117/162/1
f 203/166/1 202/167/1 201/149/1
f 204/168/1 203/166/1 201/149/1
f 201/149/1 117/162/1 204/168/1
f 204/168/1 117/162/1 205/169/1
f 120/164/1 121/170/1 124/171/1
f 121/170/1 122/172/1 123/173/1
f 124/171/1 125/174/1 126/175/1
f 121/170/1 123/173/1 124/171/1
f 120/164/1 124/171/1 117/162/1
f 117/162/1 124/171/1 205/169/1
f 124/171/1 126/175/1 162/12/1
f 126/175/1 127/176/1 130/177/1
f 127/176/1 128/178/1 130/177/1
f 128/178/1 129/179/1 130/177/1
f 130/177/1 131/180/1 132/181/1
f 132/181/1 133/182/1 134/183/1
f 135/184/1 136/185/1 139/186/1
f 136/185/1 137/187/1 138/188/1
f 136/185/1 138/188/1 139/186/1
f 139/186/1 140/189/1 141/190/1
f 135/184/1 139/186/1 141/190/1
f 141/190/1 142/191/1 135/184/1
f 142/191/1 143/192/1 135/184/1
f 143/192/1 144/193/1 135/184/1
f 134/183/1 135/184/1 144/193/1
f 130/177/1 132/181/1 126/175/1
f 132/181/1 134/183/1 149/194/1
f 134/183/1 144/193/1 145/195/1
f 145/195/1 146/196/1 147/197/1
f 134/183/1 145/195/1 149/194/1
f 205/169/1 124/171/1 162/12/1
f 126/175/1 132/181/1 154/198/1
f 149/194/1 145/195/1 148/199/1
f 145/195/1 147/197/1 148/199/1
f 149/194/1 150/200/1 132/181/1
f 151/201/1 152/202/1 153/203/1
f 150/200/1 151/201/1 132/181/1
f 169/155/1 207/157/1 168/204/1
f 207/157/1 206/205/1 166/206/1
f 168/204/1 207/157/1 167/207/1
f 206/205/1 205/169/1 163/208/1
f 163/208/1 205/169/1 162/12/1
f 132/181/1 151/201/1 154/198/1
f 151/201/1 153/203/1 154/198/1
f 155/209/1 156/210/1 159/211/1
f 156/210/1 157/212/1 159/211/1
f 157/212/1 158/213/1 159/211/1
f 126/175/1 154/198/1 155/209/1
f 166/206/1 206/205/1 165/214/1
f 167/207/1 207/157/1 166/206/1
f 126/175/1 155/209/1 162/12/1
f 155/209/1 159/211/1 160/10/1
f 165/214/1 206/205/1 164/215/1
f 164/215/1 206/205/1 163/208/1
f 155/209/1 160/10/1 162/12/1
f 214/216/1 213/217/1 232/218/1
f 213/217/1 233/219/1 232/218/1
f 217/220/1 216/221/1 218/222/1
f 216/221/1 215/223/1 218/222/1
f 215/223/1 214/216/1 221/224/1
f 214/216/1 232/218/1 222/225/1
f 221/224/1 214/216/1 222/225/1
f 231/15/1 230/226/1 229/227/1
f 232/218/1 231/15/1 223/14/1
f 220/228/1 219/229/1 215/223/1
f 219/229/1 218/222/1 215/223/1
f 223/14/1 222/225/1 232/218/1
f 221/224/1 220/228/1 215/223/1
f 231/15/1 229/227/1 224/13/1
f 229/227/1 228/230/1 224/13/1
f 228/230/1 227/231/1 226/232/1
f 226/232/1 225/233/1 228/230/1
f 225/233/1 224/13/1 228/230/1
