# Blender v2.90.1 OBJ File: 'map.blend'
# www.blender.org
o arctic_Plane.002
v -0.597535 0.000000 -1.341048
v -0.513964 0.000000 -1.373924
v -0.892996 0.000000 -1.382102
v -0.645846 0.000000 -1.392837
v -0.652491 0.000000 -1.254310
v -0.659136 0.000000 -1.227218
v -0.694407 0.000000 -1.205238
v -0.782328 0.000000 -1.191437
v -0.824755 0.000000 -1.163322
v -0.898363 0.000000 -1.150032
v -0.967882 0.000000 -1.061600
v -1.000086 0.000000 -1.085114
v -1.021044 0.000000 -1.087669
v -1.039446 0.000000 -1.162300
v -1.015932 0.000000 -1.206772
v -0.992929 0.000000 -1.203705
v -0.986795 0.000000 -1.218017
v -1.026155 0.000000 -1.211883
v -1.022066 0.000000 -1.232330
v -0.988840 0.000000 -1.233352
v -1.023088 0.000000 -1.248176
v -1.000086 0.000000 -1.266067
v -1.007242 0.000000 -1.296737
v -1.030756 0.000000 -1.306961
v -1.076250 0.000000 -1.306961
v -1.114588 0.000000 -1.300315
v -1.127367 0.000000 -1.321273
v -1.098741 0.000000 -1.319740
v -1.123789 0.000000 -1.335075
v -1.022066 0.000000 -1.354499
v -1.049669 0.000000 -1.360633
v -0.989862 0.000000 -1.371879
v -0.970949 0.000000 -1.368812
v -0.964815 0.000000 -1.375968
v -0.657636 0.000000 -1.161544
v -0.633853 0.000000 -1.160901
v -0.606856 0.000000 -1.168186
v -0.592715 0.000000 -1.160473
v -0.583716 0.000000 -1.151474
v -0.598286 0.000000 -1.140761
v -0.623997 0.000000 -1.134761
v -0.651423 0.000000 -1.124048
v -0.674563 0.000000 -1.130476
v -0.686562 0.000000 -1.132619
v -0.693847 0.000000 -1.144189
v -0.703703 0.000000 -1.144617
v -0.684848 0.000000 -1.151045
v -0.699418 0.000000 -1.156616
v -0.687419 0.000000 -1.165615
v -0.675420 0.000000 -1.166044
v -0.672421 0.000000 -1.154902
v -0.627955 0.000000 -1.297248
v -0.626733 0.000000 -1.276066
v -0.613247 0.000000 -1.317713
v -0.644922 0.000000 -1.266911
v -0.610914 0.000000 -1.300233
v -0.609836 0.000000 -1.286945
v -0.590035 0.000000 -1.319980
v -0.649424 0.000000 -1.259678
v -0.617856 0.000000 -1.296588
v -0.617495 0.000000 -1.281864
v -0.588797 0.000000 -1.315618
v -0.636258 0.000000 -1.270556
v -0.618754 0.000000 -1.313350
v -0.617676 0.000000 -1.292025
v -0.608639 0.000000 -1.331662
vt 0.000000 0.000000
vt 0.000000 0.000000
vt 0.000000 0.000000
vt 0.000000 0.000000
vt 0.000000 0.000000
vt 0.000000 0.000000
vt 0.000000 0.000000
vt 0.000000 0.000000
vt 0.000000 0.000000
vt 0.000000 0.000000
vt 0.000000 0.000000
vt 0.000000 0.000000
vt 0.000000 0.000000
vt 0.000000 0.000000
vt 0.000000 0.000000
vt 0.000000 0.000000
vt 0.000000 0.000000
vt 0.000000 0.000000
vt 0.000000 0.000000
vt 0.000000 0.000000
vt 0.000000 0.000000
vt 0.000000 0.000000
vt 0.000000 0.000000
vt 0.000000 0.000000
vt 0.000000 0.000000
vt 0.000000 0.000000
vt 0.000000 0.000000
vt 0.000000 0.000000
vt 0.000000 0.000000
vt 0.000000 0.000000
vt 0.000000 0.000000
vt 0.000000 0.000000
vt 0.000000 0.000000
vt 0.000000 0.000000
vt 0.000000 0.000000
vt 0.000000 0.000000
vt 0.000000 0.000000
vt 0.000000 0.000000
vt 0.000000 0.000000
vt 0.000000 0.000000
vt 0.000000 0.000000
vt 0.000000 0.000000
vt 0.000000 0.000000
vt 0.000000 0.000000
vt 0.000000 0.000000
vt 0.000000 0.000000
vt 0.000000 0.000000
vt 0.000000 0.000000
vt 0.000000 0.000000
vt 0.000000 0.000000
vt 0.000000 0.000000
vt 0.000000 0.000000
vt 0.000000 0.000000
vt 0.000000 0.000000
vt 0.000000 0.000000
vt 0.000000 0.000000
vt 0.000000 0.000000
vt 0.000000 0.000000
vt 0.000000 0.000000
vt 0.000000 0.000000
vt 0.000000 0.000000
vt 0.000000 0.000000
vt 0.000000 0.000000
vt 0.000000 0.000000
vt 0.000000 0.000000
vt 0.000000 0.000000
vn 0.0000 1.0000 0.0000
s off
f 16/1/1 12/2/1 10/3/1
f 47/4/1 43/5/1 51/6/1
f 1/7/1 2/8/1 4/9/1
f 4/9/1 3/10/1 59/11/1
f 3/10/1 34/12/1 33/13/1
f 33/13/1 32/14/1 23/15/1
f 32/14/1 31/16/1 30/17/1
f 3/10/1 33/13/1 22/18/1
f 4/9/1 59/11/1 55/19/1
f 66/20/1 1/7/1 4/9/1
f 62/21/1 58/22/1 54/23/1
f 58/22/1 66/20/1 54/23/1
f 66/20/1 4/9/1 64/24/1
f 66/20/1 64/24/1 54/23/1
f 32/14/1 30/17/1 23/15/1
f 30/17/1 29/25/1 28/26/1
f 28/26/1 27/27/1 26/28/1
f 28/26/1 26/28/1 25/29/1
f 30/17/1 28/26/1 25/29/1
f 64/24/1 4/9/1 52/30/1
f 60/31/1 56/32/1 64/24/1
f 52/30/1 4/9/1 55/19/1
f 30/17/1 25/29/1 24/33/1
f 30/17/1 24/33/1 23/15/1
f 60/31/1 64/24/1 52/30/1
f 57/34/1 65/35/1 61/36/1
f 65/35/1 52/30/1 61/36/1
f 22/18/1 21/37/1 20/38/1
f 33/13/1 23/15/1 22/18/1
f 53/39/1 61/36/1 52/30/1
f 55/19/1 63/40/1 52/30/1
f 63/40/1 53/39/1 52/30/1
f 3/10/1 22/18/1 20/38/1
f 20/38/1 19/41/1 17/42/1
f 19/41/1 18/43/1 17/42/1
f 3/10/1 20/38/1 9/44/1
f 8/45/1 3/10/1 9/44/1
f 16/1/1 15/46/1 14/47/1
f 3/10/1 8/45/1 59/11/1
f 20/38/1 17/42/1 10/3/1
f 16/1/1 14/47/1 12/2/1
f 14/47/1 13/48/1 12/2/1
f 17/42/1 16/1/1 10/3/1
f 9/44/1 20/38/1 10/3/1
f 12/2/1 11/49/1 10/3/1
f 8/45/1 7/50/1 5/51/1
f 7/50/1 6/52/1 5/51/1
f 5/51/1 59/11/1 8/45/1
f 36/53/1 35/54/1 42/55/1
f 35/54/1 51/6/1 42/55/1
f 51/6/1 50/56/1 47/4/1
f 50/56/1 49/57/1 47/4/1
f 49/57/1 48/58/1 47/4/1
f 47/4/1 46/59/1 45/60/1
f 45/60/1 44/61/1 47/4/1
f 44/61/1 43/5/1 47/4/1
f 43/5/1 42/55/1 51/6/1
f 42/55/1 41/62/1 36/53/1
f 41/62/1 40/63/1 37/64/1
f 40/63/1 39/65/1 38/66/1
f 37/64/1 40/63/1 38/66/1
f 37/64/1 36/53/1 41/62/1
