# Blender v2.90.1 OBJ File: 'map.blend'
# www.blender.org
o uk_Plane.006
v -0.456270 0.000000 -1.027242
v -0.482436 0.000000 -1.037549
v -0.505946 0.000000 -1.041556
v -0.469749 0.000000 -1.052615
v -0.472128 0.000000 -1.009005
v -0.446755 0.000000 -0.981253
v -0.441204 0.000000 -0.958258
v -0.424553 0.000000 -0.954294
v -0.419796 0.000000 -0.946365
v -0.428518 0.000000 -0.935264
v -0.434068 0.000000 -0.932092
v -0.423760 0.000000 -0.927335
v -0.440411 0.000000 -0.918613
v -0.454684 0.000000 -0.918613
v -0.483229 0.000000 -0.914648
v -0.518117 0.000000 -0.906719
v -0.508602 0.000000 -0.917820
v -0.499880 0.000000 -0.925749
v -0.484814 0.000000 -0.924956
v -0.484814 0.000000 -0.928921
v -0.498294 0.000000 -0.933678
v -0.511773 0.000000 -0.935264
v -0.497501 0.000000 -0.945572
v -0.499087 0.000000 -0.956672
v -0.480850 0.000000 -0.963016
v -0.484021 0.000000 -0.976495
v -0.489572 0.000000 -0.982839
v -0.481643 0.000000 -0.988389
v -0.503844 0.000000 -0.988389
v -0.498058 0.000000 -0.999868
v -0.503156 0.000000 -1.002417
v -0.507617 0.000000 -0.997318
v -0.512397 0.000000 -0.995406
v -0.513991 0.000000 -1.002735
v -0.512397 0.000000 -1.008152
v -0.508573 0.000000 -1.015482
v -0.515902 0.000000 -1.014526
v -0.517496 0.000000 -1.017393
v -0.512716 0.000000 -1.022492
v -0.512397 0.000000 -1.028228
v -0.518770 0.000000 -1.028546
v -0.516540 0.000000 -1.034919
v -0.510804 0.000000 -1.036194
v -0.539801 0.000000 -0.993601
v -0.524506 0.000000 -0.991901
v -0.514946 0.000000 -0.988715
v -0.511123 0.000000 -0.980111
v -0.513991 0.000000 -0.975331
v -0.521638 0.000000 -0.972463
v -0.520364 0.000000 -0.966409
v -0.519408 0.000000 -0.956212
v -0.532472 0.000000 -0.943466
v -0.544263 0.000000 -0.941873
v -0.555734 0.000000 -0.935499
v -0.566250 0.000000 -0.931994
v -0.580908 0.000000 -0.941235
v -0.574853 0.000000 -0.946652
v -0.567206 0.000000 -0.949520
v -0.563382 0.000000 -0.957805
v -0.568162 0.000000 -0.963541
v -0.573260 0.000000 -0.966409
v -0.568480 0.000000 -0.970551
v -0.570073 0.000000 -0.974694
v -0.569118 0.000000 -0.979155
v -0.559558 0.000000 -0.979155
v -0.551273 0.000000 -0.978836
v -0.549361 0.000000 -0.982660
v -0.553503 0.000000 -0.984891
v -0.549042 0.000000 -0.989033
vt 0.000000 0.000000
vt 0.000000 0.000000
vt 0.000000 0.000000
vt 0.000000 0.000000
vt 0.000000 0.000000
vt 0.000000 0.000000
vt 0.000000 0.000000
vt 0.000000 0.000000
vt 0.000000 0.000000
vt 0.000000 0.000000
vt 0.000000 0.000000
vt 0.000000 0.000000
vt 0.000000 0.000000
vt 0.000000 0.000000
vt 0.000000 0.000000
vt 0.000000 0.000000
vt 0.000000 0.000000
vt 0.000000 0.000000
vt 0.000000 0.000000
vt 0.000000 0.000000
vt 0.000000 0.000000
vt 0.000000 0.000000
vt 0.000000 0.000000
vt 0.000000 0.000000
vt 0.000000 0.000000
vt 0.000000 0.000000
vt 0.000000 0.000000
vt 0.000000 0.000000
vt 0.000000 0.000000
vt 0.000000 0.000000
vt 0.000000 0.000000
vt 0.000000 0.000000
vt 0.000000 0.000000
vt 0.000000 0.000000
vt 0.000000 0.000000
vt 0.000000 0.000000
vt 0.000000 0.000000
vt 0.000000 0.000000
vt 0.000000 0.000000
vt 0.000000 0.000000
vt 0.000000 0.000000
vt 0.000000 0.000000
vt 0.000000 0.000000
vt 0.000000 0.000000
vt 0.000000 0.000000
vt 0.000000 0.000000
vt 0.000000 0.000000
vt 0.000000 0.000000
vt 0.000000 0.000000
vt 0.000000 0.000000
vt 0.000000 0.000000
vt 0.000000 0.000000
vt 0.000000 0.000000
vt 0.000000 0.000000
vt 0.000000 0.000000
vt 0.000000 0.000000
vt 0.000000 0.000000
vt 0.000000 0.000000
vt 0.000000 0.000000
vt 0.000000 0.000000
vt 0.000000 0.000000
vt 0.000000 0.000000
vt 0.000000 0.000000
vt 0.000000 0.000000
vt 0.000000 0.000000
vt 0.000000 0.000000
vt 0.000000 0.000000
vt 0.000000 0.000000
vt 0.000000 0.000000
vn 0.0000 1.0000 0.0000
s off
f 23/1/1 21/2/1 20/3/1
f 65/4/1 62/5/1 59/6/1
f 5/7/1 1/8/1 2/9/1
f 2/9/1 4/10/1 3/11/1
f 43/12/1 42/13/1 40/14/1
f 42/13/1 41/15/1 40/14/1
f 2/9/1 3/11/1 40/14/1
f 3/11/1 43/12/1 40/14/1
f 7/16/1 6/17/1 25/18/1
f 6/17/1 5/7/1 28/19/1
f 5/7/1 2/9/1 36/20/1
f 36/20/1 40/14/1 39/21/1
f 39/21/1 38/22/1 37/23/1
f 2/9/1 40/14/1 36/20/1
f 6/17/1 28/19/1 26/24/1
f 9/25/1 8/26/1 10/27/1
f 8/26/1 7/16/1 10/27/1
f 11/28/1 10/27/1 7/16/1
f 13/29/1 12/30/1 11/28/1
f 14/31/1 13/29/1 11/28/1
f 39/21/1 37/23/1 36/20/1
f 36/20/1 35/32/1 31/33/1
f 35/32/1 34/34/1 31/33/1
f 34/34/1 33/35/1 32/36/1
f 34/34/1 32/36/1 31/33/1
f 5/7/1 36/20/1 30/37/1
f 28/19/1 5/7/1 30/37/1
f 30/37/1 29/38/1 28/19/1
f 36/20/1 31/33/1 30/37/1
f 14/31/1 11/28/1 7/16/1
f 17/39/1 16/40/1 15/41/1
f 15/41/1 14/31/1 19/42/1
f 14/31/1 7/16/1 20/3/1
f 19/42/1 14/31/1 20/3/1
f 28/19/1 27/43/1 26/24/1
f 25/18/1 24/44/1 23/1/1
f 26/24/1 25/18/1 6/17/1
f 18/45/1 17/39/1 15/41/1
f 19/42/1 18/45/1 15/41/1
f 23/1/1 22/46/1 21/2/1
f 7/16/1 25/18/1 20/3/1
f 25/18/1 23/1/1 20/3/1
f 45/47/1 44/48/1 49/49/1
f 44/48/1 69/50/1 67/51/1
f 69/50/1 68/52/1 67/51/1
f 66/53/1 65/4/1 59/6/1
f 65/4/1 64/54/1 63/55/1
f 44/48/1 67/51/1 49/49/1
f 65/4/1 63/55/1 62/5/1
f 67/51/1 66/53/1 49/49/1
f 47/56/1 46/57/1 48/58/1
f 46/57/1 45/47/1 49/49/1
f 49/49/1 48/58/1 46/57/1
f 51/59/1 50/60/1 52/61/1
f 50/60/1 49/49/1 66/53/1
f 52/61/1 66/53/1 53/62/1
f 55/63/1 54/64/1 58/65/1
f 54/64/1 53/62/1 58/65/1
f 58/65/1 53/62/1 59/6/1
f 57/66/1 56/67/1 55/63/1
f 58/65/1 57/66/1 55/63/1
f 52/61/1 50/60/1 66/53/1
f 59/6/1 53/62/1 66/53/1
f 62/5/1 61/68/1 60/69/1
f 62/5/1 60/69/1 59/6/1
