# Blender v3.2.1 OBJ File: 'cursor.blend'
# www.blender.org
o Circle
v -0.000000 0.000000 -0.972392
v -0.047713 0.000000 -0.971221
v -0.095311 0.000000 -0.967710
v -0.142680 0.000000 -0.961867
v -0.189704 0.000000 -0.953708
v -0.236272 0.000000 -0.943251
v -0.282271 0.000000 -0.930521
v -0.327589 0.000000 -0.915550
v -0.372118 0.000000 -0.898373
v -0.415751 0.000000 -0.879032
v -0.458382 0.000000 -0.857573
v -0.499909 0.000000 -0.834049
v -0.540232 0.000000 -0.808514
v -0.579253 0.000000 -0.781033
v -0.616879 0.000000 -0.751669
v -0.653019 0.000000 -0.720495
v -0.687585 0.000000 -0.687585
v -0.720495 0.000000 -0.653019
v -0.751669 0.000000 -0.616879
v -0.781033 0.000000 -0.579253
v -0.808514 0.000000 -0.540232
v -0.834049 0.000000 -0.499909
v -0.857573 0.000000 -0.458382
v -0.879032 0.000000 -0.415751
v -0.898373 0.000000 -0.372118
v -0.915550 0.000000 -0.327589
v -0.930521 0.000000 -0.282270
v -0.943251 0.000000 -0.236272
v -0.953708 0.000000 -0.189704
v -0.961867 0.000000 -0.142680
v -0.967710 0.000000 -0.095311
v -0.971221 0.000000 -0.047713
v -0.972392 0.000000 0.000000
v -0.971221 0.000000 0.047713
v -0.967710 0.000000 0.095311
v -0.961867 0.000000 0.142680
v -0.953708 0.000000 0.189704
v -0.943251 0.000000 0.236272
v -0.930521 0.000000 0.282271
v -0.915550 0.000000 0.327589
v -0.898373 0.000000 0.372118
v -0.879032 0.000000 0.415751
v -0.857573 0.000000 0.458382
v -0.834049 0.000000 0.499909
v -0.808514 0.000000 0.540232
v -0.781033 0.000000 0.579253
v -0.751669 0.000000 0.616879
v -0.720495 0.000000 0.653019
v -0.687585 0.000000 0.687585
v -0.653019 0.000000 0.720495
v -0.616879 0.000000 0.751669
v -0.579253 0.000000 0.781033
v -0.540232 0.000000 0.808514
v -0.499909 0.000000 0.834049
v -0.458383 0.000000 0.857573
v -0.415751 0.000000 0.879032
v -0.372118 0.000000 0.898373
v -0.327589 0.000000 0.915550
v -0.282271 0.000000 0.930521
v -0.236272 0.000000 0.943251
v -0.189704 0.000000 0.953708
v -0.142680 0.000000 0.961867
v -0.095311 0.000000 0.967710
v -0.047713 0.000000 0.971221
v 0.000000 0.000000 0.972392
v 0.047713 0.000000 0.971221
v 0.095311 0.000000 0.967710
v 0.142680 0.000000 0.961867
v 0.189704 0.000000 0.953708
v 0.236272 0.000000 0.943251
v 0.282270 0.000000 0.930521
v 0.327589 0.000000 0.915550
v 0.372118 0.000000 0.898373
v 0.415751 0.000000 0.879032
v 0.458382 0.000000 0.857573
v 0.499909 0.000000 0.834049
v 0.540232 0.000000 0.808514
v 0.579253 0.000000 0.781033
v 0.616879 0.000000 0.751669
v 0.653019 0.000000 0.720495
v 0.687585 0.000000 0.687585
v 0.720495 0.000000 0.653019
v 0.751669 0.000000 0.616879
v 0.781033 0.000000 0.579253
v 0.808514 0.000000 0.540232
v 0.834048 0.000000 0.499909
v 0.857573 0.000000 0.458382
v 0.879032 0.000000 0.415751
v 0.898373 0.000000 0.372118
v 0.915550 0.000000 0.327589
v 0.930521 0.000000 0.282270
v 0.943251 0.000000 0.236272
v 0.953708 0.000000 0.189704
v 0.961867 0.000000 0.142679
v 0.967710 0.000000 0.095311
v 0.971221 0.000000 0.047713
v 0.972392 0.000000 -0.000000
v 0.971221 0.000000 -0.047713
v 0.967710 0.000000 -0.095311
v 0.961867 0.000000 -0.142679
v 0.953708 0.000000 -0.189704
v 0.943251 0.000000 -0.236272
v 0.930521 0.000000 -0.282270
v 0.915550 0.000000 -0.327589
v 0.898373 0.000000 -0.372118
v 0.879032 0.000000 -0.415751
v 0.857573 0.000000 -0.458382
v 0.834048 0.000000 -0.499909
v 0.808515 0.000000 -0.540232
v 0.781033 0.000000 -0.579253
v 0.751669 0.000000 -0.616879
v 0.720495 0.000000 -0.653019
v 0.687585 0.000000 -0.687585
v 0.653019 0.000000 -0.720495
v 0.616879 0.000000 -0.751669
v 0.579253 0.000000 -0.781033
v 0.540232 0.000000 -0.808514
v 0.499909 0.000000 -0.834049
v 0.458382 0.000000 -0.857573
v 0.415751 0.000000 -0.879032
v 0.372118 0.000000 -0.898373
v 0.327589 0.000000 -0.915550
v 0.282271 0.000000 -0.930521
v 0.236272 0.000000 -0.943251
v 0.189704 0.000000 -0.953708
v 0.142679 0.000000 -0.961867
v 0.095311 0.000000 -0.967710
v 0.047713 0.000000 -0.971221
v -0.000000 0.000000 -1.031821
v -0.050629 0.000000 -1.030578
v -0.101136 0.000000 -1.026852
v -0.151400 0.000000 -1.020653
v -0.201298 0.000000 -1.011995
v -0.250712 0.000000 -1.000899
v -0.299522 0.000000 -0.987391
v -0.347610 0.000000 -0.971505
v -0.394861 0.000000 -0.953278
v -0.441160 0.000000 -0.932755
v -0.486397 0.000000 -0.909985
v -0.530462 0.000000 -0.885022
v -0.573249 0.000000 -0.857928
v -0.614655 0.000000 -0.828766
v -0.654580 0.000000 -0.797608
v -0.692929 0.000000 -0.764529
v -0.729608 0.000000 -0.729608
v -0.764529 0.000000 -0.692929
v -0.797608 0.000000 -0.654580
v -0.828766 0.000000 -0.614655
v -0.857928 0.000000 -0.573249
v -0.885022 0.000000 -0.530462
v -0.909985 0.000000 -0.486397
v -0.932755 0.000000 -0.441160
v -0.953278 0.000000 -0.394861
v -0.971505 0.000000 -0.347610
v -0.987391 0.000000 -0.299522
v -1.000899 0.000000 -0.250712
v -1.011995 0.000000 -0.201298
v -1.020653 0.000000 -0.151400
v -1.026852 0.000000 -0.101136
v -1.030578 0.000000 -0.050629
v -1.031821 0.000000 0.000000
v -1.030578 0.000000 0.050629
v -1.026852 0.000000 0.101136
v -1.020653 0.000000 0.151400
v -1.011995 0.000000 0.201298
v -1.000899 0.000000 0.250712
v -0.987391 0.000000 0.299522
v -0.971505 0.000000 0.347610
v -0.953278 0.000000 0.394861
v -0.932755 0.000000 0.441160
v -0.909985 0.000000 0.486397
v -0.885022 0.000000 0.530462
v -0.857928 0.000000 0.573249
v -0.828766 0.000000 0.614655
v -0.797608 0.000000 0.654580
v -0.764529 0.000000 0.692929
v -0.729608 0.000000 0.729608
v -0.692929 0.000000 0.764529
v -0.654580 0.000000 0.797608
v -0.614655 0.000000 0.828766
v -0.573249 0.000000 0.857928
v -0.530462 0.000000 0.885022
v -0.486397 0.000000 0.909985
v -0.441160 0.000000 0.932755
v -0.394861 0.000000 0.953278
v -0.347610 0.000000 0.971505
v -0.299522 0.000000 0.987391
v -0.250712 0.000000 1.000899
v -0.201298 0.000000 1.011995
v -0.151400 0.000000 1.020653
v -0.101136 0.000000 1.026852
v -0.050629 0.000000 1.030578
v 0.000000 0.000000 1.031821
v 0.050629 0.000000 1.030578
v 0.101136 0.000000 1.026852
v 0.151400 0.000000 1.020653
v 0.201298 0.000000 1.011995
v 0.250712 0.000000 1.000899
v 0.299522 0.000000 0.987391
v 0.347610 0.000000 0.971505
v 0.394861 0.000000 0.953278
v 0.441160 0.000000 0.932755
v 0.486397 0.000000 0.909985
v 0.530462 0.000000 0.885022
v 0.573249 0.000000 0.857928
v 0.614655 0.000000 0.828766
v 0.654580 0.000000 0.797608
v 0.692929 0.000000 0.764529
v 0.729608 0.000000 0.729608
v 0.764529 0.000000 0.692929
v 0.797608 0.000000 0.654580
v 0.828766 0.000000 0.614655
v 0.857928 0.000000 0.573249
v 0.885022 0.000000 0.530462
v 0.909985 0.000000 0.486397
v 0.932755 0.000000 0.441160
v 0.953278 0.000000 0.394861
v 0.971505 0.000000 0.347610
v 0.987391 0.000000 0.299522
v 1.000899 0.000000 0.250712
v 1.011995 0.000000 0.201298
v 1.020653 0.000000 0.151400
v 1.026852 0.000000 0.101136
v 1.030578 0.000000 0.050629
v 1.031821 0.000000 -0.000000
v 1.030578 0.000000 -0.050629
v 1.026852 0.000000 -0.101136
v 1.020653 0.000000 -0.151400
v 1.011995 0.000000 -0.201298
v 1.000899 0.000000 -0.250712
v 0.987391 0.000000 -0.299522
v 0.971505 0.000000 -0.347610
v 0.953278 0.000000 -0.394861
v 0.932755 0.000000 -0.441160
v 0.909985 0.000000 -0.486397
v 0.885022 0.000000 -0.530462
v 0.857928 0.000000 -0.573249
v 0.828766 0.000000 -0.614655
v 0.797608 0.000000 -0.654580
v 0.764529 0.000000 -0.692929
v 0.729608 0.000000 -0.729608
v 0.692929 0.000000 -0.764529
v 0.654580 0.000000 -0.797608
v 0.614655 0.000000 -0.828766
v 0.573249 0.000000 -0.857928
v 0.530462 0.000000 -0.885022
v 0.486397 0.000000 -0.909985
v 0.441160 0.000000 -0.932755
v 0.394861 0.000000 -0.953278
v 0.347610 0.000000 -0.971505
v 0.299522 0.000000 -0.987391
v 0.250712 0.000000 -1.000899
v 0.201298 0.000000 -1.011995
v 0.151399 0.000000 -1.020653
v 0.101136 0.000000 -1.026852
v 0.050629 0.000000 -1.030578
vt 0.000000 0.000000
vt 0.000000 0.000000
vt 0.000000 0.000000
vt 0.000000 0.000000
vt 0.000000 0.000000
vt 0.000000 0.000000
vt 0.000000 0.000000
vt 0.000000 0.000000
vt 0.000000 0.000000
vt 0.000000 0.000000
vt 0.000000 0.000000
vt 0.000000 0.000000
vt 0.000000 0.000000
vt 0.000000 0.000000
vt 0.000000 0.000000
vt 0.000000 0.000000
vt 0.000000 0.000000
vt 0.000000 0.000000
vt 0.000000 0.000000
vt 0.000000 0.000000
vt 0.000000 0.000000
vt 0.000000 0.000000
vt 0.000000 0.000000
vt 0.000000 0.000000
vt 0.000000 0.000000
vt 0.000000 0.000000
vt 0.000000 0.000000
vt 0.000000 0.000000
vt 0.000000 0.000000
vt 0.000000 0.000000
vt 0.000000 0.000000
vt 0.000000 0.000000
vt 0.000000 0.000000
vt 0.000000 0.000000
vt 0.000000 0.000000
vt 0.000000 0.000000
vt 0.000000 0.000000
vt 0.000000 0.000000
vt 0.000000 0.000000
vt 0.000000 0.000000
vt 0.000000 0.000000
vt 0.000000 0.000000
vt 0.000000 0.000000
vt 0.000000 0.000000
vt 0.000000 0.000000
vt 0.000000 0.000000
vt 0.000000 0.000000
vt 0.000000 0.000000
vt 0.000000 0.000000
vt 0.000000 0.000000
vt 0.000000 0.000000
vt 0.000000 0.000000
vt 0.000000 0.000000
vt 0.000000 0.000000
vt 0.000000 0.000000
vt 0.000000 0.000000
vt 0.000000 0.000000
vt 0.000000 0.000000
vt 0.000000 0.000000
vt 0.000000 0.000000
vt 0.000000 0.000000
vt 0.000000 0.000000
vt 0.000000 0.000000
vt 0.000000 0.000000
vt 0.000000 0.000000
vt 0.000000 0.000000
vt 0.000000 0.000000
vt 0.000000 0.000000
vt 0.000000 0.000000
vt 0.000000 0.000000
vt 0.000000 0.000000
vt 0.000000 0.000000
vt 0.000000 0.000000
vt 0.000000 0.000000
vt 0.000000 0.000000
vt 0.000000 0.000000
vt 0.000000 0.000000
vt 0.000000 0.000000
vt 0.000000 0.000000
vt 0.000000 0.000000
vt 0.000000 0.000000
vt 0.000000 0.000000
vt 0.000000 0.000000
vt 0.000000 0.000000
vt 0.000000 0.000000
vt 0.000000 0.000000
vt 0.000000 0.000000
vt 0.000000 0.000000
vt 0.000000 0.000000
vt 0.000000 0.000000
vt 0.000000 0.000000
vt 0.000000 0.000000
vt 0.000000 0.000000
vt 0.000000 0.000000
vt 0.000000 0.000000
vt 0.000000 0.000000
vt 0.000000 0.000000
vt 0.000000 0.000000
vt 0.000000 0.000000
vt 0.000000 0.000000
vt 0.000000 0.000000
vt 0.000000 0.000000
vt 0.000000 0.000000
vt 0.000000 0.000000
vt 0.000000 0.000000
vt 0.000000 0.000000
vt 0.000000 0.000000
vt 0.000000 0.000000
vt 0.000000 0.000000
vt 0.000000 0.000000
vt 0.000000 0.000000
vt 0.000000 0.000000
vt 0.000000 0.000000
vt 0.000000 0.000000
vt 0.000000 0.000000
vt 0.000000 0.000000
vt 0.000000 0.000000
vt 0.000000 0.000000
vt 0.000000 0.000000
vt 0.000000 0.000000
vt 0.000000 0.000000
vt 0.000000 0.000000
vt 0.000000 0.000000
vt 0.000000 0.000000
vt 0.000000 0.000000
vt 0.000000 0.000000
vt 0.000000 0.000000
vt 0.000000 0.000000
vt 0.000000 0.000000
vt 0.000000 0.000000
vt 0.000000 0.000000
vt 0.000000 0.000000
vt 0.000000 0.000000
vt 0.000000 0.000000
vt 0.000000 0.000000
vt 0.000000 0.000000
vt 0.000000 0.000000
vt 0.000000 0.000000
vt 0.000000 0.000000
vt 0.000000 0.000000
vt 0.000000 0.000000
vt 0.000000 0.000000
vt 0.000000 0.000000
vt 0.000000 0.000000
vt 0.000000 0.000000
vt 0.000000 0.000000
vt 0.000000 0.000000
vt 0.000000 0.000000
vt 0.000000 0.000000
vt 0.000000 0.000000
vt 0.000000 0.000000
vt 0.000000 0.000000
vt 0.000000 0.000000
vt 0.000000 0.000000
vt 0.000000 0.000000
vt 0.000000 0.000000
vt 0.000000 0.000000
vt 0.000000 0.000000
vt 0.000000 0.000000
vt 0.000000 0.000000
vt 0.000000 0.000000
vt 0.000000 0.000000
vt 0.000000 0.000000
vt 0.000000 0.000000
vt 0.000000 0.000000
vt 0.000000 0.000000
vt 0.000000 0.000000
vt 0.000000 0.000000
vt 0.000000 0.000000
vt 0.000000 0.000000
vt 0.000000 0.000000
vt 0.000000 0.000000
vt 0.000000 0.000000
vt 0.000000 0.000000
vt 0.000000 0.000000
vt 0.000000 0.000000
vt 0.000000 0.000000
vt 0.000000 0.000000
vt 0.000000 0.000000
vt 0.000000 0.000000
vt 0.000000 0.000000
vt 0.000000 0.000000
vt 0.000000 0.000000
vt 0.000000 0.000000
vt 0.000000 0.000000
vt 0.000000 0.000000
vt 0.000000 0.000000
vt 0.000000 0.000000
vt 0.000000 0.000000
vt 0.000000 0.000000
vt 0.000000 0.000000
vt 0.000000 0.000000
vt 0.000000 0.000000
vt 0.000000 0.000000
vt 0.000000 0.000000
vt 0.000000 0.000000
vt 0.000000 0.000000
vt 0.000000 0.000000
vt 0.000000 0.000000
vt 0.000000 0.000000
vt 0.000000 0.000000
vt 0.000000 0.000000
vt 0.000000 0.000000
vt 0.000000 0.000000
vt 0.000000 0.000000
vt 0.000000 0.000000
vt 0.000000 0.000000
vt 0.000000 0.000000
vt 0.000000 0.000000
vt 0.000000 0.000000
vt 0.000000 0.000000
vt 0.000000 0.000000
vt 0.000000 0.000000
vt 0.000000 0.000000
vt 0.000000 0.000000
vt 0.000000 0.000000
vt 0.000000 0.000000
vt 0.000000 0.000000
vt 0.000000 0.000000
vt 0.000000 0.000000
vt 0.000000 0.000000
vt 0.000000 0.000000
vt 0.000000 0.000000
vt 0.000000 0.000000
vt 0.000000 0.000000
vt 0.000000 0.000000
vt 0.000000 0.000000
vt 0.000000 0.000000
vt 0.000000 0.000000
vt 0.000000 0.000000
vt 0.000000 0.000000
vt 0.000000 0.000000
vt 0.000000 0.000000
vt 0.000000 0.000000
vt 0.000000 0.000000
vt 0.000000 0.000000
vt 0.000000 0.000000
vt 0.000000 0.000000
vt 0.000000 0.000000
vt 0.000000 0.000000
vt 0.000000 0.000000
vt 0.000000 0.000000
vt 0.000000 0.000000
vt 0.000000 0.000000
vt 0.000000 0.000000
vt 0.000000 0.000000
vt 0.000000 0.000000
vt 0.000000 0.000000
vt 0.000000 0.000000
vt 0.000000 0.000000
vt 0.000000 0.000000
vt 0.000000 0.000000
vt 0.000000 0.000000
vt 0.000000 0.000000
vt 0.000000 0.000000
vt 0.000000 0.000000
vn 0.0000 1.0000 0.0000
s off
f 91/1/1 90/2/1 218/3/1 219/4/1
f 40/5/1 39/6/1 167/7/1 168/8/1
f 92/9/1 91/1/1 219/4/1 220/10/1
f 41/11/1 40/5/1 168/8/1 169/12/1
f 93/13/1 92/9/1 220/10/1 221/14/1
f 42/15/1 41/11/1 169/12/1 170/16/1
f 94/17/1 93/13/1 221/14/1 222/18/1
f 43/19/1 42/15/1 170/16/1 171/20/1
f 95/21/1 94/17/1 222/18/1 223/22/1
f 44/23/1 43/19/1 171/20/1 172/24/1
f 96/25/1 95/21/1 223/22/1 224/26/1
f 45/27/1 44/23/1 172/24/1 173/28/1
f 97/29/1 96/25/1 224/26/1 225/30/1
f 46/31/1 45/27/1 173/28/1 174/32/1
f 98/33/1 97/29/1 225/30/1 226/34/1
f 47/35/1 46/31/1 174/32/1 175/36/1
f 99/37/1 98/33/1 226/34/1 227/38/1
f 48/39/1 47/35/1 175/36/1 176/40/1
f 100/41/1 99/37/1 227/38/1 228/42/1
f 49/43/1 48/39/1 176/40/1 177/44/1
f 101/45/1 100/41/1 228/42/1 229/46/1
f 50/47/1 49/43/1 177/44/1 178/48/1
f 102/49/1 101/45/1 229/46/1 230/50/1
f 51/51/1 50/47/1 178/48/1 179/52/1
f 103/53/1 102/49/1 230/50/1 231/54/1
f 52/55/1 51/51/1 179/52/1 180/56/1
f 104/57/1 103/53/1 231/54/1 232/58/1
f 53/59/1 52/55/1 180/56/1 181/60/1
f 2/61/1 1/62/1 129/63/1 130/64/1
f 105/65/1 104/57/1 232/58/1 233/66/1
f 54/67/1 53/59/1 181/60/1 182/68/1
f 3/69/1 2/61/1 130/64/1 131/70/1
f 106/71/1 105/65/1 233/66/1 234/72/1
f 55/73/1 54/67/1 182/68/1 183/74/1
f 4/75/1 3/69/1 131/70/1 132/76/1
f 107/77/1 106/71/1 234/72/1 235/78/1
f 56/79/1 55/73/1 183/74/1 184/80/1
f 5/81/1 4/75/1 132/76/1 133/82/1
f 108/83/1 107/77/1 235/78/1 236/84/1
f 57/85/1 56/79/1 184/80/1 185/86/1
f 6/87/1 5/81/1 133/82/1 134/88/1
f 109/89/1 108/83/1 236/84/1 237/90/1
f 58/91/1 57/85/1 185/86/1 186/92/1
f 7/93/1 6/87/1 134/88/1 135/94/1
f 110/95/1 109/89/1 237/90/1 238/96/1
f 59/97/1 58/91/1 186/92/1 187/98/1
f 8/99/1 7/93/1 135/94/1 136/100/1
f 111/101/1 110/95/1 238/96/1 239/102/1
f 60/103/1 59/97/1 187/98/1 188/104/1
f 9/105/1 8/99/1 136/100/1 137/106/1
f 112/107/1 111/101/1 239/102/1 240/108/1
f 61/109/1 60/103/1 188/104/1 189/110/1
f 10/111/1 9/105/1 137/106/1 138/112/1
f 113/113/1 112/107/1 240/108/1 241/114/1
f 62/115/1 61/109/1 189/110/1 190/116/1
f 11/117/1 10/111/1 138/112/1 139/118/1
f 114/119/1 113/113/1 241/114/1 242/120/1
f 63/121/1 62/115/1 190/116/1 191/122/1
f 12/123/1 11/117/1 139/118/1 140/124/1
f 115/125/1 114/119/1 242/120/1 243/126/1
f 64/127/1 63/121/1 191/122/1 192/128/1
f 13/129/1 12/123/1 140/124/1 141/130/1
f 116/131/1 115/125/1 243/126/1 244/132/1
f 65/133/1 64/127/1 192/128/1 193/134/1
f 14/135/1 13/129/1 141/130/1 142/136/1
f 117/137/1 116/131/1 244/132/1 245/138/1
f 66/139/1 65/133/1 193/134/1 194/140/1
f 15/141/1 14/135/1 142/136/1 143/142/1
f 118/143/1 117/137/1 245/138/1 246/144/1
f 67/145/1 66/139/1 194/140/1 195/146/1
f 16/147/1 15/141/1 143/142/1 144/148/1
f 119/149/1 118/143/1 246/144/1 247/150/1
f 68/151/1 67/145/1 195/146/1 196/152/1
f 17/153/1 16/147/1 144/148/1 145/154/1
f 120/155/1 119/149/1 247/150/1 248/156/1
f 69/157/1 68/151/1 196/152/1 197/158/1
f 18/159/1 17/153/1 145/154/1 146/160/1
f 121/161/1 120/155/1 248/156/1 249/162/1
f 70/163/1 69/157/1 197/158/1 198/164/1
f 19/165/1 18/159/1 146/160/1 147/166/1
f 122/167/1 121/161/1 249/162/1 250/168/1
f 71/169/1 70/163/1 198/164/1 199/170/1
f 20/171/1 19/165/1 147/166/1 148/172/1
f 123/173/1 122/167/1 250/168/1 251/174/1
f 72/175/1 71/169/1 199/170/1 200/176/1
f 21/177/1 20/171/1 148/172/1 149/178/1
f 124/179/1 123/173/1 251/174/1 252/180/1
f 73/181/1 72/175/1 200/176/1 201/182/1
f 22/183/1 21/177/1 149/178/1 150/184/1
f 125/185/1 124/179/1 252/180/1 253/186/1
f 74/187/1 73/181/1 201/182/1 202/188/1
f 23/189/1 22/183/1 150/184/1 151/190/1
f 126/191/1 125/185/1 253/186/1 254/192/1
f 75/193/1 74/187/1 202/188/1 203/194/1
f 24/195/1 23/189/1 151/190/1 152/196/1
f 127/197/1 126/191/1 254/192/1 255/198/1
f 76/199/1 75/193/1 203/194/1 204/200/1
f 25/201/1 24/195/1 152/196/1 153/202/1
f 128/203/1 127/197/1 255/198/1 256/204/1
f 77/205/1 76/199/1 204/200/1 205/206/1
f 26/207/1 25/201/1 153/202/1 154/208/1
f 1/62/1 128/203/1 256/204/1 129/63/1
f 78/209/1 77/205/1 205/206/1 206/210/1
f 27/211/1 26/207/1 154/208/1 155/212/1
f 79/213/1 78/209/1 206/210/1 207/214/1
f 28/215/1 27/211/1 155/212/1 156/216/1
f 80/217/1 79/213/1 207/214/1 208/218/1
f 29/219/1 28/215/1 156/216/1 157/220/1
f 81/221/1 80/217/1 208/218/1 209/222/1
f 30/223/1 29/219/1 157/220/1 158/224/1
f 82/225/1 81/221/1 209/222/1 210/226/1
f 31/227/1 30/223/1 158/224/1 159/228/1
f 83/229/1 82/225/1 210/226/1 211/230/1
f 32/231/1 31/227/1 159/228/1 160/232/1
f 84/233/1 83/229/1 211/230/1 212/234/1
f 33/235/1 32/231/1 160/232/1 161/236/1
f 85/237/1 84/233/1 212/234/1 213/238/1
f 34/239/1 33/235/1 161/236/1 162/240/1
f 86/241/1 85/237/1 213/238/1 214/242/1
f 35/243/1 34/239/1 162/240/1 163/244/1
f 87/245/1 86/241/1 214/242/1 215/246/1
f 36/247/1 35/243/1 163/244/1 164/248/1
f 88/249/1 87/245/1 215/246/1 216/250/1
f 37/251/1 36/247/1 164/248/1 165/252/1
f 89/253/1 88/249/1 216/250/1 217/254/1
f 38/255/1 37/251/1 165/252/1 166/256/1
f 90/2/1 89/253/1 217/254/1 218/3/1
f 39/6/1 38/255/1 166/256/1 167/7/1
