# Blender v3.2.1 OBJ File: 'cursor.blend'
# www.blender.org
o Circle.001
v -0.100361 0.000000 -1.076049
v -0.158653 0.000000 -1.069552
v -0.210942 0.000000 -1.060479
v -0.262724 0.000000 -1.048851
v -0.313872 0.000000 -1.034697
v -0.364264 0.000000 -1.018049
v -0.413778 0.000000 -0.998950
v -0.462296 0.000000 -0.977443
v -0.509700 0.000000 -0.953582
v -0.555876 0.000000 -0.927424
v -0.600713 0.000000 -0.899031
v -0.644103 0.000000 -0.868472
v -0.685941 0.000000 -0.835822
v -0.726127 0.000000 -0.801157
v -0.764563 0.000000 -0.764563
v -0.801157 0.000000 -0.726127
v -0.835822 0.000000 -0.685941
v -0.868472 0.000000 -0.644103
v -0.899031 0.000000 -0.600713
v -0.927424 0.000000 -0.555876
v -0.953582 0.000000 -0.509700
v -0.977443 0.000000 -0.462296
v -0.998950 0.000000 -0.413778
v -1.018049 0.000000 -0.364264
v -1.034697 0.000000 -0.313872
v -1.048851 0.000000 -0.262724
v -1.060479 0.000000 -0.210942
v -1.069552 0.000000 -0.158653
v -1.076049 0.000000 -0.099947
v -0.100310 0.000000 -1.119992
v -0.165132 0.000000 -1.113230
v -0.219557 0.000000 -1.103786
v -0.273453 0.000000 -1.091684
v -0.326690 0.000000 -1.076951
v -0.379139 0.000000 -1.059624
v -0.430676 0.000000 -1.039744
v -0.481175 0.000000 -1.017359
v -0.530515 0.000000 -0.992524
v -0.578577 0.000000 -0.965297
v -0.625245 0.000000 -0.935745
v -0.670406 0.000000 -0.903938
v -0.713953 0.000000 -0.869954
v -0.755780 0.000000 -0.833874
v -0.795786 0.000000 -0.795786
v -0.833874 0.000000 -0.755780
v -0.869954 0.000000 -0.713953
v -0.903938 0.000000 -0.670406
v -0.935745 0.000000 -0.625245
v -0.965297 0.000000 -0.578577
v -0.992524 0.000000 -0.530515
v -1.017359 0.000000 -0.481175
v -1.039744 0.000000 -0.430676
v -1.059624 0.000000 -0.379139
v -1.076951 0.000000 -0.326689
v -1.091684 0.000000 -0.273453
v -1.103786 0.000000 -0.219557
v -1.113230 0.000000 -0.165132
v -1.119992 0.000000 -0.100310
v -1.193230 0.000000 -0.165132
v -1.199992 0.000000 -0.100310
v -0.100310 0.000000 -1.199992
v -0.165132 0.000000 -1.193230
v 0.100361 0.000000 -1.076049
v 0.158653 0.000000 -1.069552
v 0.210942 0.000000 -1.060479
v 0.262724 0.000000 -1.048851
v 0.313872 0.000000 -1.034697
v 0.364264 0.000000 -1.018049
v 0.413778 0.000000 -0.998950
v 0.462296 0.000000 -0.977443
v 0.509700 0.000000 -0.953582
v 0.555876 0.000000 -0.927424
v 0.600713 0.000000 -0.899031
v 0.644103 0.000000 -0.868472
v 0.685941 0.000000 -0.835822
v 0.726127 0.000000 -0.801157
v 0.764563 0.000000 -0.764563
v 0.801157 0.000000 -0.726127
v 0.835822 0.000000 -0.685941
v 0.868472 0.000000 -0.644103
v 0.899031 0.000000 -0.600713
v 0.927424 0.000000 -0.555876
v 0.953582 0.000000 -0.509700
v 0.977443 0.000000 -0.462296
v 0.998950 0.000000 -0.413778
v 1.018049 0.000000 -0.364264
v 1.034697 0.000000 -0.313872
v 1.048851 0.000000 -0.262724
v 1.060479 0.000000 -0.210942
v 1.069552 0.000000 -0.158653
v 1.076049 0.000000 -0.099947
v 0.100310 0.000000 -1.119992
v 0.165132 0.000000 -1.113230
v 0.219557 0.000000 -1.103786
v 0.273453 0.000000 -1.091684
v 0.326690 0.000000 -1.076951
v 0.379139 0.000000 -1.059624
v 0.430676 0.000000 -1.039744
v 0.481175 0.000000 -1.017359
v 0.530515 0.000000 -0.992524
v 0.578577 0.000000 -0.965297
v 0.625245 0.000000 -0.935745
v 0.670406 0.000000 -0.903938
v 0.713953 0.000000 -0.869954
v 0.755780 0.000000 -0.833874
v 0.795786 0.000000 -0.795786
v 0.833874 0.000000 -0.755780
v 0.869954 0.000000 -0.713953
v 0.903938 0.000000 -0.670406
v 0.935745 0.000000 -0.625245
v 0.965297 0.000000 -0.578577
v 0.992524 0.000000 -0.530515
v 1.017359 0.000000 -0.481175
v 1.039744 0.000000 -0.430676
v 1.059624 0.000000 -0.379139
v 1.076951 0.000000 -0.326689
v 1.091684 0.000000 -0.273453
v 1.103786 0.000000 -0.219557
v 1.113230 0.000000 -0.165132
v 1.119992 0.000000 -0.100310
v 1.193230 0.000000 -0.165132
v 1.199992 0.000000 -0.100310
v 0.100310 0.000000 -1.199992
v 0.165132 0.000000 -1.193230
v -0.100361 0.000000 1.076049
v -0.158653 0.000000 1.069552
v -0.210942 0.000000 1.060479
v -0.262724 0.000000 1.048851
v -0.313872 0.000000 1.034697
v -0.364264 0.000000 1.018049
v -0.413778 0.000000 0.998950
v -0.462296 0.000000 0.977443
v -0.509700 0.000000 0.953582
v -0.555876 0.000000 0.927424
v -0.600713 0.000000 0.899031
v -0.644103 0.000000 0.868472
v -0.685941 0.000000 0.835822
v -0.726127 0.000000 0.801157
v -0.764563 0.000000 0.764563
v -0.801157 0.000000 0.726127
v -0.835822 0.000000 0.685941
v -0.868472 0.000000 0.644103
v -0.899031 0.000000 0.600713
v -0.927424 0.000000 0.555876
v -0.953582 0.000000 0.509700
v -0.977443 0.000000 0.462296
v -0.998950 0.000000 0.413778
v -1.018049 0.000000 0.364264
v -1.034697 0.000000 0.313872
v -1.048851 0.000000 0.262724
v -1.060479 0.000000 0.210942
v -1.069552 0.000000 0.158653
v -1.076049 0.000000 0.099947
v -0.100310 0.000000 1.119992
v -0.165132 0.000000 1.113230
v -0.219557 0.000000 1.103786
v -0.273453 0.000000 1.091684
v -0.326690 0.000000 1.076951
v -0.379139 0.000000 1.059624
v -0.430676 0.000000 1.039744
v -0.481175 0.000000 1.017359
v -0.530515 0.000000 0.992524
v -0.578577 0.000000 0.965297
v -0.625245 0.000000 0.935745
v -0.670406 0.000000 0.903938
v -0.713953 0.000000 0.869954
v -0.755780 0.000000 0.833874
v -0.795786 0.000000 0.795786
v -0.833874 0.000000 0.755780
v -0.869954 0.000000 0.713953
v -0.903938 0.000000 0.670406
v -0.935745 0.000000 0.625245
v -0.965297 0.000000 0.578577
v -0.992524 0.000000 0.530515
v -1.017359 0.000000 0.481175
v -1.039744 0.000000 0.430676
v -1.059624 0.000000 0.379139
v -1.076951 0.000000 0.326689
v -1.091684 0.000000 0.273453
v -1.103786 0.000000 0.219557
v -1.113230 0.000000 0.165132
v -1.119992 0.000000 0.100310
v -1.193230 0.000000 0.165132
v -1.199992 0.000000 0.100310
v -0.100310 0.000000 1.199992
v -0.165132 0.000000 1.193230
v 0.100361 0.000000 1.076049
v 0.158653 0.000000 1.069552
v 0.210942 0.000000 1.060479
v 0.262724 0.000000 1.048851
v 0.313872 0.000000 1.034697
v 0.364264 0.000000 1.018049
v 0.413778 0.000000 0.998950
v 0.462296 0.000000 0.977443
v 0.509700 0.000000 0.953582
v 0.555876 0.000000 0.927424
v 0.600713 0.000000 0.899031
v 0.644103 0.000000 0.868472
v 0.685941 0.000000 0.835822
v 0.726127 0.000000 0.801157
v 0.764563 0.000000 0.764563
v 0.801157 0.000000 0.726127
v 0.835822 0.000000 0.685941
v 0.868472 0.000000 0.644103
v 0.899031 0.000000 0.600713
v 0.927424 0.000000 0.555876
v 0.953582 0.000000 0.509700
v 0.977443 0.000000 0.462296
v 0.998950 0.000000 0.413778
v 1.018049 0.000000 0.364264
v 1.034697 0.000000 0.313872
v 1.048851 0.000000 0.262724
v 1.060479 0.000000 0.210942
v 1.069552 0.000000 0.158653
v 1.076049 0.000000 0.099947
v 0.100310 0.000000 1.119992
v 0.165132 0.000000 1.113230
v 0.219557 0.000000 1.103786
v 0.273453 0.000000 1.091684
v 0.326690 0.000000 1.076951
v 0.379139 0.000000 1.059624
v 0.430676 0.000000 1.039744
v 0.481175 0.000000 1.017359
v 0.530515 0.000000 0.992524
v 0.578577 0.000000 0.965297
v 0.625245 0.000000 0.935745
v 0.670406 0.000000 0.903938
v 0.713953 0.000000 0.869954
v 0.755780 0.000000 0.833874
v 0.795786 0.000000 0.795786
v 0.833874 0.000000 0.755780
v 0.869954 0.000000 0.713953
v 0.903938 0.000000 0.670406
v 0.935745 0.000000 0.625245
v 0.965297 0.000000 0.578577
v 0.992524 0.000000 0.530515
v 1.017359 0.000000 0.481175
v 1.039744 0.000000 0.430676
v 1.059624 0.000000 0.379139
v 1.076951 0.000000 0.326689
v 1.091684 0.000000 0.273453
v 1.103786 0.000000 0.219557
v 1.113230 0.000000 0.165132
v 1.119992 0.000000 0.100310
v 1.193230 0.000000 0.165132
v 1.199992 0.000000 0.100310
v 0.100310 0.000000 1.199992
v 0.165132 0.000000 1.193230
vt 0.000000 0.000000
vt 0.000000 0.000000
vt 0.000000 0.000000
vt 0.000000 0.000000
vt 0.000000 0.000000
vt 0.000000 0.000000
vt 0.000000 0.000000
vt 0.000000 0.000000
vt 0.000000 0.000000
vt 0.000000 0.000000
vt 0.000000 0.000000
vt 0.000000 0.000000
vt 0.000000 0.000000
vt 0.000000 0.000000
vt 0.000000 0.000000
vt 0.000000 0.000000
vt 0.000000 0.000000
vt 0.000000 0.000000
vt 0.000000 0.000000
vt 0.000000 0.000000
vt 0.000000 0.000000
vt 0.000000 0.000000
vt 0.000000 0.000000
vt 0.000000 0.000000
vt 0.000000 0.000000
vt 0.000000 0.000000
vt 0.000000 0.000000
vt 0.000000 0.000000
vt 0.000000 0.000000
vt 0.000000 0.000000
vt 0.000000 0.000000
vt 0.000000 0.000000
vt 0.000000 0.000000
vt 0.000000 0.000000
vt 0.000000 0.000000
vt 0.000000 0.000000
vt 0.000000 0.000000
vt 0.000000 0.000000
vt 0.000000 0.000000
vt 0.000000 0.000000
vt 0.000000 0.000000
vt 0.000000 0.000000
vt 0.000000 0.000000
vt 0.000000 0.000000
vt 0.000000 0.000000
vt 0.000000 0.000000
vt 0.000000 0.000000
vt 0.000000 0.000000
vt 0.000000 0.000000
vt 0.000000 0.000000
vt 0.000000 0.000000
vt 0.000000 0.000000
vt 0.000000 0.000000
vt 0.000000 0.000000
vt 0.000000 0.000000
vt 0.000000 0.000000
vt 0.000000 0.000000
vt 0.000000 0.000000
vt 0.000000 0.000000
vt 0.000000 0.000000
vt 0.000000 0.000000
vt 0.000000 0.000000
vt 0.000000 0.000000
vt 0.000000 0.000000
vt 0.000000 0.000000
vt 0.000000 0.000000
vt 0.000000 0.000000
vt 0.000000 0.000000
vt 0.000000 0.000000
vt 0.000000 0.000000
vt 0.000000 0.000000
vt 0.000000 0.000000
vt 0.000000 0.000000
vt 0.000000 0.000000
vt 0.000000 0.000000
vt 0.000000 0.000000
vt 0.000000 0.000000
vt 0.000000 0.000000
vt 0.000000 0.000000
vt 0.000000 0.000000
vt 0.000000 0.000000
vt 0.000000 0.000000
vt 0.000000 0.000000
vt 0.000000 0.000000
vt 0.000000 0.000000
vt 0.000000 0.000000
vt 0.000000 0.000000
vt 0.000000 0.000000
vt 0.000000 0.000000
vt 0.000000 0.000000
vt 0.000000 0.000000
vt 0.000000 0.000000
vt 0.000000 0.000000
vt 0.000000 0.000000
vt 0.000000 0.000000
vt 0.000000 0.000000
vt 0.000000 0.000000
vt 0.000000 0.000000
vt 0.000000 0.000000
vt 0.000000 0.000000
vt 0.000000 0.000000
vt 0.000000 0.000000
vt 0.000000 0.000000
vt 0.000000 0.000000
vt 0.000000 0.000000
vt 0.000000 0.000000
vt 0.000000 0.000000
vt 0.000000 0.000000
vt 0.000000 0.000000
vt 0.000000 0.000000
vt 0.000000 0.000000
vt 0.000000 0.000000
vt 0.000000 0.000000
vt 0.000000 0.000000
vt 0.000000 0.000000
vt 0.000000 0.000000
vt 0.000000 0.000000
vt 0.000000 0.000000
vt 0.000000 0.000000
vt 0.000000 0.000000
vt 0.000000 0.000000
vt 0.000000 0.000000
vt 0.000000 0.000000
vt 0.000000 0.000000
vt 0.000000 0.000000
vt 0.000000 0.000000
vt 0.000000 0.000000
vt 0.000000 0.000000
vt 0.000000 0.000000
vt 0.000000 0.000000
vt 0.000000 0.000000
vt 0.000000 0.000000
vt 0.000000 0.000000
vt 0.000000 0.000000
vt 0.000000 0.000000
vt 0.000000 0.000000
vt 0.000000 0.000000
vt 0.000000 0.000000
vt 0.000000 0.000000
vt 0.000000 0.000000
vt 0.000000 0.000000
vt 0.000000 0.000000
vt 0.000000 0.000000
vt 0.000000 0.000000
vt 0.000000 0.000000
vt 0.000000 0.000000
vt 0.000000 0.000000
vt 0.000000 0.000000
vt 0.000000 0.000000
vt 0.000000 0.000000
vt 0.000000 0.000000
vt 0.000000 0.000000
vt 0.000000 0.000000
vt 0.000000 0.000000
vt 0.000000 0.000000
vt 0.000000 0.000000
vt 0.000000 0.000000
vt 0.000000 0.000000
vt 0.000000 0.000000
vt 0.000000 0.000000
vt 0.000000 0.000000
vt 0.000000 0.000000
vt 0.000000 0.000000
vt 0.000000 0.000000
vt 0.000000 0.000000
vt 0.000000 0.000000
vt 0.000000 0.000000
vt 0.000000 0.000000
vt 0.000000 0.000000
vt 0.000000 0.000000
vt 0.000000 0.000000
vt 0.000000 0.000000
vt 0.000000 0.000000
vt 0.000000 0.000000
vt 0.000000 0.000000
vt 0.000000 0.000000
vt 0.000000 0.000000
vt 0.000000 0.000000
vt 0.000000 0.000000
vt 0.000000 0.000000
vt 0.000000 0.000000
vt 0.000000 0.000000
vt 0.000000 0.000000
vt 0.000000 0.000000
vt 0.000000 0.000000
vt 0.000000 0.000000
vt 0.000000 0.000000
vt 0.000000 0.000000
vt 0.000000 0.000000
vt 0.000000 0.000000
vt 0.000000 0.000000
vt 0.000000 0.000000
vt 0.000000 0.000000
vt 0.000000 0.000000
vt 0.000000 0.000000
vt 0.000000 0.000000
vt 0.000000 0.000000
vt 0.000000 0.000000
vt 0.000000 0.000000
vt 0.000000 0.000000
vt 0.000000 0.000000
vt 0.000000 0.000000
vt 0.000000 0.000000
vt 0.000000 0.000000
vt 0.000000 0.000000
vt 0.000000 0.000000
vt 0.000000 0.000000
vt 0.000000 0.000000
vt 0.000000 0.000000
vt 0.000000 0.000000
vt 0.000000 0.000000
vt 0.000000 0.000000
vt 0.000000 0.000000
vt 0.000000 0.000000
vt 0.000000 0.000000
vt 0.000000 0.000000
vt 0.000000 0.000000
vt 0.000000 0.000000
vt 0.000000 0.000000
vt 0.000000 0.000000
vt 0.000000 0.000000
vt 0.000000 0.000000
vt 0.000000 0.000000
vt 0.000000 0.000000
vt 0.000000 0.000000
vt 0.000000 0.000000
vt 0.000000 0.000000
vt 0.000000 0.000000
vt 0.000000 0.000000
vt 0.000000 0.000000
vt 0.000000 0.000000
vt 0.000000 0.000000
vt 0.000000 0.000000
vt 0.000000 0.000000
vt 0.000000 0.000000
vt 0.000000 0.000000
vt 0.000000 0.000000
vt 0.000000 0.000000
vt 0.000000 0.000000
vt 0.000000 0.000000
vt 0.000000 0.000000
vt 0.000000 0.000000
vt 0.000000 0.000000
vt 0.000000 0.000000
vt 0.000000 0.000000
vt 0.000000 0.000000
vt 0.000000 0.000000
vt 0.000000 0.000000
vn 0.0000 1.0000 0.0000
s off
f 2/1/1 1/2/1 30/3/1 31/4/1
f 3/5/1 2/1/1 31/4/1 32/6/1
f 4/7/1 3/5/1 32/6/1 33/8/1
f 5/9/1 4/7/1 33/8/1 34/10/1
f 6/11/1 5/9/1 34/10/1 35/12/1
f 7/13/1 6/11/1 35/12/1 36/14/1
f 8/15/1 7/13/1 36/14/1 37/16/1
f 9/17/1 8/15/1 37/16/1 38/18/1
f 10/19/1 9/17/1 38/18/1 39/20/1
f 11/21/1 10/19/1 39/20/1 40/22/1
f 12/23/1 11/21/1 40/22/1 41/24/1
f 13/25/1 12/23/1 41/24/1 42/26/1
f 14/27/1 13/25/1 42/26/1 43/28/1
f 15/29/1 14/27/1 43/28/1 44/30/1
f 16/31/1 15/29/1 44/30/1 45/32/1
f 17/33/1 16/31/1 45/32/1 46/34/1
f 18/35/1 17/33/1 46/34/1 47/36/1
f 19/37/1 18/35/1 47/36/1 48/38/1
f 20/39/1 19/37/1 48/38/1 49/40/1
f 21/41/1 20/39/1 49/40/1 50/42/1
f 22/43/1 21/41/1 50/42/1 51/44/1
f 23/45/1 22/43/1 51/44/1 52/46/1
f 24/47/1 23/45/1 52/46/1 53/48/1
f 25/49/1 24/47/1 53/48/1 54/50/1
f 26/51/1 25/49/1 54/50/1 55/52/1
f 27/53/1 26/51/1 55/52/1 56/54/1
f 28/55/1 27/53/1 56/54/1 57/56/1
f 29/57/1 28/55/1 57/56/1 58/58/1
f 58/58/1 57/56/1 59/59/1 60/60/1
f 31/4/1 30/3/1 61/61/1 62/62/1
f 64/63/1 93/64/1 92/65/1 63/66/1
f 65/67/1 94/68/1 93/64/1 64/63/1
f 66/69/1 95/70/1 94/68/1 65/67/1
f 67/71/1 96/72/1 95/70/1 66/69/1
f 68/73/1 97/74/1 96/72/1 67/71/1
f 69/75/1 98/76/1 97/74/1 68/73/1
f 70/77/1 99/78/1 98/76/1 69/75/1
f 71/79/1 100/80/1 99/78/1 70/77/1
f 72/81/1 101/82/1 100/80/1 71/79/1
f 73/83/1 102/84/1 101/82/1 72/81/1
f 74/85/1 103/86/1 102/84/1 73/83/1
f 75/87/1 104/88/1 103/86/1 74/85/1
f 76/89/1 105/90/1 104/88/1 75/87/1
f 77/91/1 106/92/1 105/90/1 76/89/1
f 78/93/1 107/94/1 106/92/1 77/91/1
f 79/95/1 108/96/1 107/94/1 78/93/1
f 80/97/1 109/98/1 108/96/1 79/95/1
f 81/99/1 110/100/1 109/98/1 80/97/1
f 82/101/1 111/102/1 110/100/1 81/99/1
f 83/103/1 112/104/1 111/102/1 82/101/1
f 84/105/1 113/106/1 112/104/1 83/103/1
f 85/107/1 114/108/1 113/106/1 84/105/1
f 86/109/1 115/110/1 114/108/1 85/107/1
f 87/111/1 116/112/1 115/110/1 86/109/1
f 88/113/1 117/114/1 116/112/1 87/111/1
f 89/115/1 118/116/1 117/114/1 88/113/1
f 90/117/1 119/118/1 118/116/1 89/115/1
f 91/119/1 120/120/1 119/118/1 90/117/1
f 120/120/1 122/121/1 121/122/1 119/118/1
f 93/64/1 124/123/1 123/124/1 92/65/1
f 126/125/1 155/126/1 154/127/1 125/128/1
f 127/129/1 156/130/1 155/126/1 126/125/1
f 128/131/1 157/132/1 156/130/1 127/129/1
f 129/133/1 158/134/1 157/132/1 128/131/1
f 130/135/1 159/136/1 158/134/1 129/133/1
f 131/137/1 160/138/1 159/136/1 130/135/1
f 132/139/1 161/140/1 160/138/1 131/137/1
f 133/141/1 162/142/1 161/140/1 132/139/1
f 134/143/1 163/144/1 162/142/1 133/141/1
f 135/145/1 164/146/1 163/144/1 134/143/1
f 136/147/1 165/148/1 164/146/1 135/145/1
f 137/149/1 166/150/1 165/148/1 136/147/1
f 138/151/1 167/152/1 166/150/1 137/149/1
f 139/153/1 168/154/1 167/152/1 138/151/1
f 140/155/1 169/156/1 168/154/1 139/153/1
f 141/157/1 170/158/1 169/156/1 140/155/1
f 142/159/1 171/160/1 170/158/1 141/157/1
f 143/161/1 172/162/1 171/160/1 142/159/1
f 144/163/1 173/164/1 172/162/1 143/161/1
f 145/165/1 174/166/1 173/164/1 144/163/1
f 146/167/1 175/168/1 174/166/1 145/165/1
f 147/169/1 176/170/1 175/168/1 146/167/1
f 148/171/1 177/172/1 176/170/1 147/169/1
f 149/173/1 178/174/1 177/172/1 148/171/1
f 150/175/1 179/176/1 178/174/1 149/173/1
f 151/177/1 180/178/1 179/176/1 150/175/1
f 152/179/1 181/180/1 180/178/1 151/177/1
f 153/181/1 182/182/1 181/180/1 152/179/1
f 182/182/1 184/183/1 183/184/1 181/180/1
f 155/126/1 186/185/1 185/186/1 154/127/1
f 188/187/1 187/188/1 216/189/1 217/190/1
f 189/191/1 188/187/1 217/190/1 218/192/1
f 190/193/1 189/191/1 218/192/1 219/194/1
f 191/195/1 190/193/1 219/194/1 220/196/1
f 192/197/1 191/195/1 220/196/1 221/198/1
f 193/199/1 192/197/1 221/198/1 222/200/1
f 194/201/1 193/199/1 222/200/1 223/202/1
f 195/203/1 194/201/1 223/202/1 224/204/1
f 196/205/1 195/203/1 224/204/1 225/206/1
f 197/207/1 196/205/1 225/206/1 226/208/1
f 198/209/1 197/207/1 226/208/1 227/210/1
f 199/211/1 198/209/1 227/210/1 228/212/1
f 200/213/1 199/211/1 228/212/1 229/214/1
f 201/215/1 200/213/1 229/214/1 230/216/1
f 202/217/1 201/215/1 230/216/1 231/218/1
f 203/219/1 202/217/1 231/218/1 232/220/1
f 204/221/1 203/219/1 232/220/1 233/222/1
f 205/223/1 204/221/1 233/222/1 234/224/1
f 206/225/1 205/223/1 234/224/1 235/226/1
f 207/227/1 206/225/1 235/226/1 236/228/1
f 208/229/1 207/227/1 236/228/1 237/230/1
f 209/231/1 208/229/1 237/230/1 238/232/1
f 210/233/1 209/231/1 238/232/1 239/234/1
f 211/235/1 210/233/1 239/234/1 240/236/1
f 212/237/1 211/235/1 240/236/1 241/238/1
f 213/239/1 212/237/1 241/238/1 242/240/1
f 214/241/1 213/239/1 242/240/1 243/242/1
f 215/243/1 214/241/1 243/242/1 244/244/1
f 244/244/1 243/242/1 245/245/1 246/246/1
f 217/190/1 216/189/1 247/247/1 248/248/1
