# Blender v2.90.1 OBJ File: 'ally_bomber.blend'
# www.blender.org
o Cube
v 1.401251 0.316606 -0.408847
v 1.035434 0.316606 -1.943030
v 0.787354 0.316606 -1.007596
v 1.039178 0.316606 -2.931636
v 0.794897 0.316606 -2.931636
v 1.345576 0.316606 -1.946828
v 1.356970 0.316606 -2.439232
v 1.450626 0.316606 -2.443030
v 1.634092 0.316606 -0.418182
v 1.653082 0.316606 0.081818
v 1.959426 0.316606 0.074221
v 1.948032 0.316606 -0.921981
v 1.979668 0.316606 -0.921981
v 2.115102 0.316606 0.305857
v 0.392062 0.316606 -2.484808
v 0.799658 0.316606 -2.750626
v 0.781631 0.316606 -2.379758
v 0.614572 0.316606 3.066625
v 0.396823 0.316606 -2.391152
v 0.907506 0.316606 4.010906
v 0.293322 0.316606 2.557447
v 0.420707 0.316606 2.995424
v 0.725525 0.316606 2.709383
v 0.417367 0.316606 0.252020
v 0.237377 0.316606 2.649202
v 0.000000 0.316606 3.000000
v -1.401251 0.316606 -0.408847
v 0.000000 0.316606 -0.242869
v -1.035434 0.316606 -1.943030
v -0.787354 0.316606 -1.007596
v -1.039178 0.316606 -2.931636
v -0.794897 0.316606 -2.931636
v -1.345576 0.316606 -1.946828
v -1.356970 0.316606 -2.439232
v -1.450626 0.316606 -2.443030
v -1.634092 0.316606 -0.418182
v -1.653082 0.316606 0.081818
v -1.959426 0.316606 0.074221
v -1.948032 0.316606 -0.921981
v -1.979668 0.316606 -0.921981
v -2.115102 0.316606 0.305857
v -0.392062 0.316606 -2.484808
v -0.799658 0.316606 -2.750626
v -0.781631 0.316606 -2.379758
v -0.614572 0.316606 3.066625
v -0.396823 0.316606 -2.391152
v 0.000000 0.316606 3.678073
v -0.907506 0.316606 4.010906
v -0.293322 0.316606 2.557447
v -0.420707 0.316606 2.995424
v -0.725525 0.316606 2.709383
v 0.000000 0.316606 1.162140
v -0.417367 0.316606 0.252020
v 0.000000 0.316606 2.148341
v -0.237377 0.316606 2.649202
v 0.000000 0.510198 0.406529
v 1.500000 0.000000 -0.500000
v 1.100000 0.000000 -2.000000
v 0.700000 0.000000 -1.000000
v 1.111341 0.000000 -3.000000
v 0.711341 0.000000 -3.000000
v 1.300000 0.000000 -2.000000
v 1.300000 0.000000 -2.500000
v 1.500000 0.000000 -2.500000
v 1.706254 0.000000 -0.494143
v 1.706254 0.000000 0.005857
v 1.906254 0.000000 0.005857
v 1.906254 0.000000 -0.994143
v 2.006254 0.000000 -0.994143
v 2.206254 0.000000 0.305857
v 0.308506 0.000000 -2.500000
v 0.708506 0.000000 -2.800000
v 0.705670 0.000000 -2.300000
v 0.671542 0.000000 3.005857
v 0.305670 0.000000 -2.300000
v 1.006254 0.000000 4.105857
v 0.338898 0.000000 2.659994
v 0.477677 0.000000 2.930857
v 0.733121 0.000000 2.811929
v 0.386982 0.000000 -0.006114
v 1.401251 -0.316606 -0.408847
v 1.035434 -0.316606 -1.943030
v 0.787354 -0.316606 -1.007596
v 1.039178 -0.316606 -2.931636
v 0.794897 -0.316606 -2.931636
v 1.345576 -0.316606 -1.946828
v 1.356970 -0.316606 -2.439232
v 1.450626 -0.316606 -2.443030
v 1.634092 -0.316606 -0.418182
v 1.653082 -0.316606 0.081818
v 1.959426 -0.316606 0.074221
v 1.948032 -0.316606 -0.921981
v 1.979668 -0.316606 -0.921981
v 2.115102 -0.316606 0.305857
v 0.392062 -0.316606 -2.484808
v 0.799658 -0.316606 -2.750626
v 0.781631 -0.316606 -2.379758
v 0.614572 -0.316606 3.066625
v 0.396823 -0.316606 -2.391152
v 0.907506 -0.316606 4.010906
v 0.293322 -0.316606 2.557447
v 0.420707 -0.316606 2.995424
v 0.725525 -0.316606 2.709383
v 0.417367 -0.316606 0.252020
v 0.237377 -0.316606 2.649202
v 0.000000 0.000000 3.000000
v -1.500000 0.000000 -0.500000
v 0.000000 0.000000 -0.501003
v -1.100000 0.000000 -2.000000
v -0.700000 0.000000 -1.000000
v -1.111341 0.000000 -3.000000
v -0.711341 0.000000 -3.000000
v -1.300000 0.000000 -2.000000
v -1.300000 0.000000 -2.500000
v -1.500000 0.000000 -2.500000
v -1.706254 0.000000 -0.494143
v -1.706254 0.000000 0.005857
v -1.906254 0.000000 0.005857
v -1.906254 0.000000 -0.994143
v -2.006254 0.000000 -0.994143
v -2.206254 0.000000 0.305857
v -0.308506 0.000000 -2.500000
v -0.708506 0.000000 -2.800000
v -0.705670 0.000000 -2.300000
v -0.671542 0.000000 3.005857
v -0.305670 0.000000 -2.300000
v 0.000000 0.000000 3.769226
v -1.006254 0.000000 4.105857
v -0.338898 0.000000 2.659994
v -0.477677 0.000000 2.930857
v -0.733121 0.000000 2.811929
v 0.000000 0.000000 1.162140
v -0.386982 0.000000 -0.006114
v 0.000000 0.000000 2.148341
v 0.000000 -0.316606 3.000000
v -1.401251 -0.316606 -0.408847
v 0.000000 -0.316606 -0.242869
v -1.035434 -0.316606 -1.943030
v -0.787354 -0.316606 -1.007596
v -1.039178 -0.316606 -2.931636
v -0.794897 -0.316606 -2.931636
v -1.345576 -0.316606 -1.946828
v -1.356970 -0.316606 -2.439232
v -1.450626 -0.316606 -2.443030
v -1.634092 -0.316606 -0.418182
v -1.653082 -0.316606 0.081818
v -1.959426 -0.316606 0.074221
v -1.948032 -0.316606 -0.921981
v -1.979668 -0.316606 -0.921981
v -2.115102 -0.316606 0.305857
v -0.392062 -0.316606 -2.484808
v -0.799658 -0.316606 -2.750626
v -0.781631 -0.316606 -2.379758
v -0.614572 -0.316606 3.066625
v -0.396823 -0.316606 -2.391152
v 0.000000 -0.316606 3.678073
v -0.907506 -0.316606 4.010906
v -0.293322 -0.316606 2.557447
v -0.420707 -0.316606 2.995424
v -0.725525 -0.316606 2.709383
v 0.000000 -0.316606 1.162140
v -0.417367 -0.316606 0.252020
v 0.000000 -0.316606 2.148341
v -0.237377 -0.316606 2.649202
v 0.000000 -0.510198 0.406529
vt 0.299764 0.499827
vt 0.222346 0.454442
vt 0.278089 0.432807
vt 0.277694 0.376558
vt 0.249428 0.346271
vt 0.277497 0.354924
vt 0.236282 0.389539
vt 0.250218 0.389539
vt 0.173135 0.489310
vt 0.194039 0.476329
vt 0.207975 0.476329
vt 0.305368 0.367905
vt 0.305566 0.376558
vt 0.280072 0.606134
vt 0.326865 0.639164
vt 0.256750 0.653729
vt 0.734936 0.449176
vt 0.719923 0.441043
vt 0.734977 0.429089
vt 0.207975 0.454695
vt 0.277299 0.346271
vt 0.222346 0.367905
vt 0.236282 0.367905
vt 0.326865 0.605881
vt 0.293581 0.602889
vt 0.303251 0.591169
vt 0.275782 0.597743
vt 0.326486 0.569031
vt 0.326716 0.526360
vt 0.298416 0.597029
vt 0.187071 0.433061
vt 0.194039 0.433061
vt 0.275782 0.597743
vt 0.173135 0.489310
vt 0.187071 0.433061
vt 0.249428 0.346271
vt 0.277299 0.346271
vt 0.305368 0.367905
vt 0.305566 0.376558
vt 0.277694 0.376558
vt 0.278089 0.432807
vt 0.277497 0.354924
vt 0.207975 0.454695
vt 0.222346 0.454442
vt 0.299764 0.499827
vt 0.236282 0.389539
vt 0.250218 0.389539
vt 0.280072 0.606134
vt 0.293581 0.602889
vt 0.236282 0.367905
vt 0.301955 0.464481
vt 0.317008 0.452526
vt 0.317008 0.452526
vt 0.301955 0.464481
vt 0.222346 0.367905
vt 0.326865 0.639164
vt 0.256750 0.653729
vt 0.207975 0.476329
vt 0.194039 0.476329
vt 0.303251 0.591169
vt 0.194039 0.433061
vt 0.734894 0.469264
vt 0.299764 0.499827
vt 0.278089 0.432807
vt 0.222346 0.454442
vt 0.277694 0.376558
vt 0.277497 0.354924
vt 0.249428 0.346271
vt 0.236282 0.389539
vt 0.250218 0.389539
vt 0.173135 0.489310
vt 0.207975 0.476329
vt 0.194039 0.476329
vt 0.305566 0.376558
vt 0.305368 0.367905
vt 0.280072 0.606134
vt 0.256750 0.653729
vt 0.719923 0.441043
vt 0.207975 0.454695
vt 0.277299 0.346271
vt 0.222346 0.367905
vt 0.236282 0.367905
vt 0.293581 0.602889
vt 0.303251 0.591169
vt 0.275782 0.597743
vt 0.298416 0.597029
vt 0.187071 0.433061
vt 0.194039 0.433061
vt 0.275782 0.597743
vt 0.173135 0.489310
vt 0.187071 0.433061
vt 0.249428 0.346271
vt 0.277299 0.346271
vt 0.326716 0.526360
vt 0.326486 0.569031
vt 0.305368 0.367905
vt 0.305566 0.376558
vt 0.277694 0.376558
vt 0.278089 0.432807
vt 0.277497 0.354924
vt 0.326865 0.605881
vt 0.207975 0.454695
vt 0.222346 0.454442
vt 0.299764 0.499827
vt 0.236282 0.389539
vt 0.250218 0.389539
vt 0.734977 0.429089
vt 0.734894 0.469264
vt 0.280072 0.606134
vt 0.293581 0.602889
vt 0.236282 0.367905
vt 0.301955 0.464481
vt 0.301955 0.464481
vt 0.222346 0.367905
vt 0.256750 0.653729
vt 0.207975 0.476329
vt 0.194039 0.476329
vt 0.303251 0.591169
vt 0.194039 0.433061
vt 0.719923 0.441043
vt 0.299764 0.499827
vt 0.278089 0.432807
vt 0.222346 0.454442
vt 0.277694 0.376558
vt 0.277497 0.354924
vt 0.249428 0.346271
vt 0.236282 0.389539
vt 0.250218 0.389539
vt 0.173135 0.489310
vt 0.207975 0.476329
vt 0.194039 0.476329
vt 0.305566 0.376558
vt 0.305368 0.367905
vt 0.280072 0.606134
vt 0.256750 0.653729
vt 0.326865 0.639164
vt 0.734936 0.449176
vt 0.734977 0.429089
vt 0.719923 0.441043
vt 0.207975 0.454695
vt 0.277299 0.346271
vt 0.222346 0.367905
vt 0.236282 0.367905
vt 0.326865 0.605881
vt 0.293581 0.602889
vt 0.303251 0.591169
vt 0.326486 0.569031
vt 0.275782 0.597743
vt 0.326716 0.526360
vt 0.298416 0.597029
vt 0.187071 0.433061
vt 0.194039 0.433061
vt 0.301955 0.464481
vt 0.317008 0.452526
vt 0.734894 0.469264
vt 0.719923 0.441043
vt 0.299764 0.499827
vt 0.222346 0.454442
vt 0.278089 0.432807
vt 0.277694 0.376558
vt 0.249428 0.346271
vt 0.277497 0.354924
vt 0.236282 0.389539
vt 0.250218 0.389539
vt 0.173135 0.489310
vt 0.194039 0.476329
vt 0.207975 0.476329
vt 0.305368 0.367905
vt 0.305566 0.376558
vt 0.280072 0.606134
vt 0.256750 0.653729
vt 0.719923 0.441043
vt 0.207975 0.454695
vt 0.277299 0.346271
vt 0.222346 0.367905
vt 0.236282 0.367905
vt 0.293581 0.602889
vt 0.303251 0.591169
vt 0.275782 0.597743
vt 0.298416 0.597029
vt 0.187071 0.433061
vt 0.194039 0.433061
vt 0.301955 0.464481
vn 0.0000 1.0000 0.0000
vn 0.3208 0.9077 -0.2706
vn 0.8443 0.2114 0.4923
vn 0.9722 0.1955 -0.1290
vn 0.0000 0.2111 -0.9775
vn -0.9638 0.2667 0.0063
vn -0.9683 0.2497 0.0000
vn -0.9642 0.2651 0.0049
vn -0.0077 0.2532 -0.9674
vn -0.9185 0.2809 -0.2784
vn -0.0073 0.1712 -0.9852
vn 0.3424 0.2413 -0.9080
vn -0.9868 0.1618 -0.0113
vn 0.7005 0.4305 -0.5692
vn -0.5577 0.2351 -0.7960
vn -0.0127 0.1829 -0.9830
vn -0.0140 0.2640 0.9644
vn -0.3221 0.2204 0.9207
vn 0.9743 0.2251 0.0119
vn 0.9799 0.1984 -0.0186
vn 0.9338 0.2142 -0.2867
vn -0.0146 0.2222 -0.9749
vn -0.3327 0.2652 0.9050
vn -0.9891 0.1471 0.0056
vn 0.9777 0.2097 0.0074
vn 0.9012 0.2710 -0.3384
vn 0.0000 0.2222 -0.9750
vn 0.4760 0.8519 0.2183
vn -0.3208 0.9077 -0.2706
vn -0.8443 0.2114 0.4923
vn -0.9722 0.1955 -0.1290
vn 1.0000 0.0000 0.0000
vn 0.9638 0.2667 0.0063
vn 0.9683 0.2497 0.0000
vn 0.9642 0.2651 0.0049
vn 0.0077 0.2532 -0.9674
vn 0.9185 0.2809 -0.2784
vn 0.0073 0.1712 -0.9852
vn -0.3424 0.2413 -0.9080
vn 0.9868 0.1618 -0.0113
vn -0.7005 0.4305 -0.5692
vn 0.5577 0.2351 -0.7960
vn 0.0127 0.1829 -0.9830
vn 0.0140 0.2640 0.9644
vn 0.3221 0.2204 0.9207
vn -0.9743 0.2251 0.0119
vn -0.9799 0.1984 -0.0186
vn -0.9338 0.2142 -0.2867
vn 0.0146 0.2222 -0.9749
vn 0.3327 0.2652 0.9050
vn 0.9891 0.1471 0.0056
vn -0.9777 0.2097 0.0074
vn -0.9012 0.2710 -0.3384
vn -0.4760 0.8519 0.2183
vn 0.0000 -1.0000 0.0000
vn 0.3208 -0.9077 -0.2706
vn 0.8443 -0.2114 0.4923
vn 0.9722 -0.1955 -0.1290
vn 0.0000 -0.2111 -0.9775
vn -0.9638 -0.2667 0.0063
vn -0.9683 -0.2497 0.0000
vn -0.9642 -0.2651 0.0049
vn -0.0077 -0.2532 -0.9674
vn -0.9185 -0.2809 -0.2784
vn -0.0073 -0.1712 -0.9852
vn 0.3424 -0.2413 -0.9080
vn -0.9868 -0.1618 -0.0113
vn 0.7005 -0.4305 -0.5692
vn -0.5577 -0.2351 -0.7960
vn -0.0127 -0.1829 -0.9830
vn -0.0140 -0.2640 0.9644
vn -0.3221 -0.2204 0.9207
vn 0.9743 -0.2251 0.0119
vn 0.9799 -0.1984 -0.0186
vn 0.9338 -0.2142 -0.2867
vn -0.0146 -0.2222 -0.9749
vn -0.3327 -0.2652 0.9050
vn -0.9891 -0.1471 0.0056
vn 0.9777 -0.2097 0.0074
vn 0.9012 -0.2710 -0.3384
vn 0.0000 -0.2222 -0.9750
vn 0.4760 -0.8519 0.2183
vn -0.3208 -0.9077 -0.2706
vn -0.8443 -0.2114 0.4923
vn -0.9722 -0.1955 -0.1290
vn 0.9638 -0.2667 0.0063
vn 0.9683 -0.2497 0.0000
vn 0.9642 -0.2651 0.0049
vn 0.0077 -0.2532 -0.9674
vn 0.9185 -0.2809 -0.2784
vn 0.0073 -0.1712 -0.9852
vn -0.3424 -0.2413 -0.9080
vn 0.9868 -0.1618 -0.0113
vn -0.7005 -0.4305 -0.5692
vn 0.5577 -0.2351 -0.7960
vn 0.0127 -0.1829 -0.9830
vn 0.0140 -0.2640 0.9644
vn 0.3221 -0.2204 0.9207
vn -0.9743 -0.2251 0.0119
vn -0.9799 -0.1984 -0.0186
vn -0.9338 -0.2142 -0.2867
vn 0.0146 -0.2222 -0.9749
vn 0.3327 -0.2652 0.9050
vn 0.9891 -0.1471 0.0056
vn -0.9777 -0.2097 0.0074
vn -0.9012 -0.2710 -0.3384
vn -0.4760 -0.8519 0.2183
s off
f 24/1/1 1/2/1 3/3/1
f 17/4/1 4/5/1 16/6/1
f 6/7/1 2/8/1 1/2/1
f 14/9/1 11/10/1 10/11/1
f 17/4/1 15/12/1 19/13/1
f 18/14/1 47/15/1 20/16/1
f 56/17/2 24/18/2 28/19/2
f 24/1/1 9/20/1 1/2/1
f 1/2/1 2/8/1 3/3/1
f 17/4/1 3/3/1 2/8/1
f 2/8/1 4/5/1 17/4/1
f 4/5/1 5/21/1 16/6/1
f 1/2/1 8/22/1 6/7/1
f 8/22/1 7/23/1 6/7/1
f 26/24/1 18/14/1 22/25/1
f 21/26/1 23/27/1 54/28/1
f 23/27/1 14/9/1 52/29/1
f 54/28/1 23/27/1 52/29/1
f 26/24/1 22/25/1 25/30/1 21/26/1
f 24/1/1 52/29/1 10/11/1
f 10/11/1 52/29/1 14/9/1
f 54/28/1 26/24/1 21/26/1
f 14/9/1 13/31/1 11/10/1
f 13/31/1 12/32/1 11/10/1
f 9/20/1 24/1/1 10/11/1
f 17/4/1 16/6/1 15/12/1
f 18/14/1 26/24/1 47/15/1
f 79/33/3 70/34/3 14/9/3 23/27/3
f 70/34/4 69/35/4 13/31/4 14/9/4
f 60/36/5 61/37/5 5/21/5 4/5/5
f 71/38/6 75/39/6 19/13/6 15/12/6
f 73/40/7 59/41/7 3/3/7 17/4/7
f 61/37/8 72/42/8 16/6/8 5/21/8
f 65/43/9 57/44/9 1/2/9 9/20/9
f 59/41/10 80/45/10 24/1/10 3/3/10
f 62/46/11 58/47/11 2/8/11 6/7/11
f 74/48/12 78/49/12 22/25/12 18/14/12
f 63/50/13 62/46/13 6/7/13 7/23/13
f 80/51/14 108/52/14 28/53/14 24/54/14
f 72/42/15 71/38/15 15/12/15 16/6/15
f 64/55/16 63/50/16 7/23/16 8/22/16
f 75/39/17 73/40/17 17/4/17 19/13/17
f 127/56/18 76/57/18 20/16/18 47/15/18
f 57/44/19 64/55/19 8/22/19 1/2/19
f 66/58/20 65/43/20 9/20/20 10/11/20
f 76/57/21 74/48/21 18/14/21 20/16/21
f 67/59/22 66/58/22 10/11/22 11/10/22
f 77/60/23 79/33/23 23/27/23 21/26/23
f 68/61/24 67/59/24 11/10/24 12/32/24
f 58/47/25 60/36/25 4/5/25 2/8/25
f 78/49/26 77/60/26 21/26/26 25/30/26 22/25/26
f 69/35/27 68/61/27 12/32/27 13/31/27
f 56/17/28 52/62/28 24/18/28
f 53/63/1 30/64/1 27/65/1
f 44/66/1 43/67/1 31/68/1
f 33/69/1 27/65/1 29/70/1
f 41/71/1 37/72/1 38/73/1
f 44/66/1 46/74/1 42/75/1
f 45/76/1 48/77/1 47/15/1
f 56/17/29 28/19/29 53/78/29
f 53/63/1 27/65/1 36/79/1
f 27/65/1 30/64/1 29/70/1
f 44/66/1 29/70/1 30/64/1
f 29/70/1 44/66/1 31/68/1
f 31/68/1 43/67/1 32/80/1
f 27/65/1 33/69/1 35/81/1
f 35/81/1 33/69/1 34/82/1
f 26/24/1 50/83/1 45/76/1
f 49/84/1 54/28/1 51/85/1
f 51/85/1 52/29/1 41/71/1
f 54/28/1 52/29/1 51/85/1
f 26/24/1 49/84/1 55/86/1 50/83/1
f 53/63/1 37/72/1 52/29/1
f 37/72/1 41/71/1 52/29/1
f 54/28/1 49/84/1 26/24/1
f 41/71/1 38/73/1 40/87/1
f 40/87/1 38/73/1 39/88/1
f 36/79/1 37/72/1 53/63/1
f 44/66/1 42/75/1 43/67/1
f 45/76/1 47/15/1 26/24/1
f 131/89/30 51/85/30 41/71/30 121/90/30
f 121/90/31 41/71/31 40/87/31 120/91/31
f 111/92/5 31/68/5 32/80/5 112/93/5
f 132/94/32 52/29/32 54/28/32 134/95/32
f 122/96/33 42/75/33 46/74/33 126/97/33
f 124/98/34 44/66/34 30/64/34 110/99/34
f 112/93/35 32/80/35 43/67/35 123/100/35
f 134/95/32 54/28/32 26/24/32 106/101/32
f 116/102/36 36/79/36 27/65/36 107/103/36
f 110/99/37 30/64/37 53/63/37 133/104/37
f 113/105/38 33/69/38 29/70/38 109/106/38
f 108/107/32 28/19/32 56/17/32 52/62/32 132/108/32
f 125/109/39 45/76/39 50/83/39 130/110/39
f 114/111/40 34/82/40 33/69/40 113/105/40
f 133/112/41 53/113/41 28/53/41 108/52/41
f 123/100/42 43/67/42 42/75/42 122/96/42
f 115/114/43 35/81/43 34/82/43 114/111/43
f 126/97/44 46/74/44 44/66/44 124/98/44
f 127/56/45 47/15/45 48/77/45 128/115/45
f 107/103/46 27/65/46 35/81/46 115/114/46
f 106/101/32 26/24/32 47/15/32 127/56/32
f 117/116/47 37/72/47 36/79/47 116/102/47
f 128/115/48 48/77/48 45/76/48 125/109/48
f 118/117/49 38/73/49 37/72/49 117/116/49
f 129/118/50 49/84/50 51/85/50 131/89/50
f 119/119/51 39/88/51 38/73/51 118/117/51
f 109/106/52 29/70/52 31/68/52 111/92/52
f 130/110/53 50/83/53 55/86/53 49/84/53 129/118/53
f 120/91/27 40/87/27 39/88/27 119/119/27
f 56/17/54 53/78/54 52/62/54
f 80/45/1 57/44/1 59/41/1
f 73/40/1 60/36/1 72/42/1
f 62/46/1 58/47/1 57/44/1
f 70/34/1 67/59/1 66/58/1
f 73/40/1 71/38/1 75/39/1
f 74/48/1 127/56/1 76/57/1
f 108/107/1 132/108/1 80/120/1
f 80/45/1 65/43/1 57/44/1
f 57/44/1 58/47/1 59/41/1
f 73/40/1 59/41/1 58/47/1
f 58/47/1 60/36/1 73/40/1
f 60/36/1 61/37/1 72/42/1
f 57/44/1 64/55/1 62/46/1
f 64/55/1 63/50/1 62/46/1
f 106/101/1 74/48/1 78/49/1
f 77/60/1 79/33/1 134/95/1
f 79/33/1 70/34/1 132/94/1
f 134/95/1 79/33/1 132/94/1
f 106/101/1 78/49/1 77/60/1
f 80/45/1 132/94/1 66/58/1
f 66/58/1 132/94/1 70/34/1
f 134/95/1 106/101/1 77/60/1
f 70/34/1 69/35/1 67/59/1
f 69/35/1 68/61/1 67/59/1
f 65/43/1 80/45/1 66/58/1
f 73/40/1 72/42/1 71/38/1
f 74/48/1 106/101/1 127/56/1
f 104/121/55 83/122/55 81/123/55
f 97/124/55 96/125/55 84/126/55
f 86/127/55 81/123/55 82/128/55
f 94/129/55 90/130/55 91/131/55
f 97/124/55 99/132/55 95/133/55
f 98/134/55 100/135/55 156/136/55
f 165/137/56 137/138/56 104/139/56
f 104/121/55 81/123/55 89/140/55
f 81/123/55 83/122/55 82/128/55
f 97/124/55 82/128/55 83/122/55
f 82/128/55 97/124/55 84/126/55
f 84/126/55 96/125/55 85/141/55
f 81/123/55 86/127/55 88/142/55
f 88/142/55 86/127/55 87/143/55
f 135/144/55 102/145/55 98/134/55
f 101/146/55 163/147/55 103/148/55
f 103/148/55 161/149/55 94/129/55
f 163/147/55 161/149/55 103/148/55
f 135/144/55 101/146/55 105/150/55 102/145/55
f 104/121/55 90/130/55 161/149/55
f 90/130/55 94/129/55 161/149/55
f 163/147/55 101/146/55 135/144/55
f 94/129/55 91/131/55 93/151/55
f 93/151/55 91/131/55 92/152/55
f 89/140/55 90/130/55 104/121/55
f 97/124/55 95/133/55 96/125/55
f 98/134/55 156/136/55 135/144/55
f 79/33/57 103/148/57 94/129/57 70/34/57
f 70/34/58 94/129/58 93/151/58 69/35/58
f 60/36/59 84/126/59 85/141/59 61/37/59
f 71/38/60 95/133/60 99/132/60 75/39/60
f 73/40/61 97/124/61 83/122/61 59/41/61
f 61/37/62 85/141/62 96/125/62 72/42/62
f 65/43/63 89/140/63 81/123/63 57/44/63
f 59/41/64 83/122/64 104/121/64 80/45/64
f 62/46/65 86/127/65 82/128/65 58/47/65
f 74/48/66 98/134/66 102/145/66 78/49/66
f 63/50/67 87/143/67 86/127/67 62/46/67
f 80/51/68 104/153/68 137/154/68 108/52/68
f 72/42/69 96/125/69 95/133/69 71/38/69
f 64/55/70 88/142/70 87/143/70 63/50/70
f 75/39/71 99/132/71 97/124/71 73/40/71
f 127/56/72 156/136/72 100/135/72 76/57/72
f 57/44/73 81/123/73 88/142/73 64/55/73
f 66/58/74 90/130/74 89/140/74 65/43/74
f 76/57/75 100/135/75 98/134/75 74/48/75
f 67/59/76 91/131/76 90/130/76 66/58/76
f 77/60/77 101/146/77 103/148/77 79/33/77
f 68/61/78 92/152/78 91/131/78 67/59/78
f 58/47/79 82/128/79 84/126/79 60/36/79
f 78/49/80 102/145/80 105/150/80 101/146/80 77/60/80
f 69/35/81 93/151/81 92/152/81 68/61/81
f 165/137/82 104/139/82 161/155/82
f 133/104/1 110/99/1 107/103/1
f 124/98/1 123/100/1 111/92/1
f 113/105/1 107/103/1 109/106/1
f 121/90/1 117/116/1 118/117/1
f 124/98/1 126/97/1 122/96/1
f 125/109/1 128/115/1 127/56/1
f 108/107/1 133/156/1 132/108/1
f 133/104/1 107/103/1 116/102/1
f 107/103/1 110/99/1 109/106/1
f 124/98/1 109/106/1 110/99/1
f 109/106/1 124/98/1 111/92/1
f 111/92/1 123/100/1 112/93/1
f 107/103/1 113/105/1 115/114/1
f 115/114/1 113/105/1 114/111/1
f 106/101/1 130/110/1 125/109/1
f 129/118/1 134/95/1 131/89/1
f 131/89/1 132/94/1 121/90/1
f 134/95/1 132/94/1 131/89/1
f 106/101/1 129/118/1 130/110/1
f 133/104/1 117/116/1 132/94/1
f 117/116/1 121/90/1 132/94/1
f 134/95/1 129/118/1 106/101/1
f 121/90/1 118/117/1 120/91/1
f 120/91/1 118/117/1 119/119/1
f 116/102/1 117/116/1 133/104/1
f 124/98/1 122/96/1 123/100/1
f 125/109/1 127/56/1 106/101/1
f 162/157/55 136/158/55 139/159/55
f 153/160/55 140/161/55 152/162/55
f 142/163/55 138/164/55 136/158/55
f 150/165/55 147/166/55 146/167/55
f 153/160/55 151/168/55 155/169/55
f 154/170/55 156/136/55 157/171/55
f 165/137/83 162/172/83 137/138/83
f 162/157/55 145/173/55 136/158/55
f 136/158/55 138/164/55 139/159/55
f 153/160/55 139/159/55 138/164/55
f 138/164/55 140/161/55 153/160/55
f 140/161/55 141/174/55 152/162/55
f 136/158/55 144/175/55 142/163/55
f 144/175/55 143/176/55 142/163/55
f 135/144/55 154/170/55 159/177/55
f 158/178/55 160/179/55 163/147/55
f 160/179/55 150/165/55 161/149/55
f 163/147/55 160/179/55 161/149/55
f 135/144/55 159/177/55 164/180/55 158/178/55
f 162/157/55 161/149/55 146/167/55
f 146/167/55 161/149/55 150/165/55
f 163/147/55 135/144/55 158/178/55
f 150/165/55 149/181/55 147/166/55
f 149/181/55 148/182/55 147/166/55
f 145/173/55 162/157/55 146/167/55
f 153/160/55 152/162/55 151/168/55
f 154/170/55 135/144/55 156/136/55
f 131/89/84 121/90/84 150/165/84 160/179/84
f 121/90/85 120/91/85 149/181/85 150/165/85
f 111/92/59 112/93/59 141/174/59 140/161/59
f 132/94/32 134/95/32 163/147/32 161/149/32
f 122/96/86 126/97/86 155/169/86 151/168/86
f 124/98/87 110/99/87 139/159/87 153/160/87
f 112/93/88 123/100/88 152/162/88 141/174/88
f 134/95/32 106/101/32 135/144/32 163/147/32
f 116/102/89 107/103/89 136/158/89 145/173/89
f 110/99/90 133/104/90 162/157/90 139/159/90
f 113/105/91 109/106/91 138/164/91 142/163/91
f 108/107/32 132/108/32 161/155/32 165/137/32 137/138/32
f 125/109/92 130/110/92 159/177/92 154/170/92
f 114/111/93 113/105/93 142/163/93 143/176/93
f 133/112/94 108/52/94 137/154/94 162/183/94
f 123/100/95 122/96/95 151/168/95 152/162/95
f 115/114/96 114/111/96 143/176/96 144/175/96
f 126/97/97 124/98/97 153/160/97 155/169/97
f 127/56/98 128/115/98 157/171/98 156/136/98
f 107/103/99 115/114/99 144/175/99 136/158/99
f 106/101/32 127/56/32 156/136/32 135/144/32
f 117/116/100 116/102/100 145/173/100 146/167/100
f 128/115/101 125/109/101 154/170/101 157/171/101
f 118/117/102 117/116/102 146/167/102 147/166/102
f 129/118/103 131/89/103 160/179/103 158/178/103
f 119/119/104 118/117/104 147/166/104 148/182/104
f 109/106/105 111/92/105 140/161/105 138/164/105
f 130/110/106 129/118/106 158/178/106 164/180/106 159/177/106
f 120/91/81 119/119/81 148/182/81 149/181/81
f 165/137/107 161/155/107 162/172/107
