# Blender v2.90.1 OBJ File: 'enemy_drone.blend'
# www.blender.org
mtllib enemy_drone.mtl
o Cone
v 0.000000 1.347656 1.538867
v -0.952937 0.952937 1.538867
v -1.347656 -0.000000 1.538867
v -0.952937 -0.952937 1.538867
v 0.000000 -1.347657 1.538866
v 0.952937 -0.952937 1.538866
v 1.347657 -0.000000 1.538866
v 0.952937 0.952937 1.538866
v -0.000001 0.000000 -4.010465
vt 0.250000 0.490000
vt 0.250000 0.250000
vt 0.419706 0.419706
vt 0.490000 0.250000
vt 0.419706 0.080294
vt 0.250000 0.010000
vt 0.080294 0.080294
vt 0.010000 0.250000
vt 0.750000 0.490000
vt 0.919706 0.419706
vt 0.990000 0.250000
vt 0.919706 0.080294
vt 0.750000 0.010000
vt 0.580294 0.080294
vt 0.510000 0.250000
vt 0.580294 0.419706
vt 0.080294 0.419706
vn -0.3734 0.9015 -0.2189
vn -0.9015 0.3734 -0.2189
vn -0.9015 -0.3734 -0.2189
vn -0.3734 -0.9015 -0.2189
vn 0.3734 -0.9015 -0.2189
vn 0.9015 -0.3734 -0.2189
vn 0.0000 -0.0000 1.0000
vn 0.9015 0.3734 -0.2189
vn 0.3734 0.9015 -0.2189
usemtl None
s off
f 1/1/1 9/2/1 2/3/1
f 2/3/2 9/2/2 3/4/2
f 3/4/3 9/2/3 4/5/3
f 4/5/4 9/2/4 5/6/4
f 5/6/5 9/2/5 6/7/5
f 6/7/6 9/2/6 7/8/6
f 1/9/7 2/10/7 3/11/7 4/12/7 5/13/7 6/14/7 7/15/7 8/16/7
f 7/8/8 9/2/8 8/17/8
f 8/17/9 9/2/9 1/1/9
