# Blender v3.2.1 OBJ File: 'enemies.blend'
# www.blender.org
o laser_antigrav_Circle.002
v -3.929711 -1.601177 -3.646111
v -2.947092 1.154499 -3.568266
v -3.094644 1.093229 -4.425978
v -3.513941 0.870101 -5.157821
v -4.141146 0.519084 -5.652386
v -4.880776 0.093617 -5.834375
v -5.620227 -0.341526 -5.676082
v -6.246924 -0.720098 -5.201606
v -6.665459 -0.984466 -4.483184
v -6.812115 -1.094382 -3.630188
v -6.664562 -1.033112 -2.772477
v -6.245265 -0.809984 -2.040631
v -5.618059 -0.458967 -1.546067
v -4.878428 -0.033500 -1.364079
v -4.138978 0.401643 -1.522372
v -3.512281 0.780215 -1.996847
v -3.093746 1.044583 -2.715271
v -4.940523 -0.677009 6.893289
v -4.394346 0.942225 6.939047
v -4.479661 0.904966 6.438012
v -4.722087 0.770451 6.010416
v -5.084722 0.559156 5.721359
v -5.512357 0.303251 5.614846
v -5.939886 0.041693 5.707093
v -6.302224 -0.185697 5.984056
v -6.544207 -0.344301 6.403571
v -6.628995 -0.409973 6.901768
v -6.543683 -0.372716 7.402804
v -6.301254 -0.238200 7.830400
v -5.938620 -0.026905 8.119457
v -5.510985 0.229000 8.225968
v -5.083456 0.490558 8.133723
v -4.721117 0.717949 7.856759
v -4.479135 0.876552 7.437245
v -4.942748 -0.556554 2.657304
v -4.396571 1.062679 2.703061
v -4.481885 1.025421 2.202025
v -4.724311 0.890906 1.774430
v -5.086946 0.679611 1.485373
v -5.514581 0.423705 1.378860
v -5.942110 0.162148 1.471107
v -6.304447 -0.065242 1.748070
v -6.546431 -0.223846 2.167585
v -6.631219 -0.289518 2.665782
v -6.545905 -0.252261 3.166818
v -6.303477 -0.117745 3.594414
v -5.940843 0.093549 3.883471
v -5.513209 0.349455 3.989984
v -5.085680 0.611013 3.897737
v -4.723341 0.838403 3.620773
v -4.481359 0.997007 3.201259
v 3.986129 -1.455051 -3.646111
v 2.902475 1.262481 -3.568266
v 3.052188 1.206698 -4.425978
v 3.479434 0.999197 -5.157821
v 4.119167 0.671568 -5.652386
v 4.873996 0.273689 -5.834375
v 5.629003 -0.133867 -5.676082
v 6.269245 -0.489052 -5.201606
v 6.697252 -0.737793 -4.483184
v 6.847865 -0.842221 -3.630188
v 6.698150 -0.786439 -2.772477
v 6.270904 -0.578938 -2.040631
v 5.631170 -0.251308 -1.546067
v 4.876341 0.146571 -1.364079
v 4.121335 0.554127 -1.522372
v 3.481092 0.909312 -1.996847
v 3.053086 1.158053 -2.715271
v 4.962144 -0.494207 6.893289
v 4.356578 1.103765 6.939047
v 4.443210 1.069681 6.438012
v 4.690435 0.944205 6.010416
v 5.060621 0.746438 5.721359
v 5.497409 0.506489 5.614846
v 5.934300 0.260888 5.707093
v 6.304783 0.047026 5.984056
v 6.552455 -0.102539 6.403571
v 6.639610 -0.165037 6.901768
v 6.552980 -0.130953 7.402804
v 6.305753 -0.005477 7.830400
v 5.935567 0.192290 8.119457
v 5.498779 0.432239 8.225968
v 5.061887 0.677840 8.133723
v 4.691403 0.891702 7.856759
v 4.443732 1.041267 7.437245
v 4.959921 -0.373752 2.657304
v 4.354355 1.224220 2.703061
v 4.440986 1.190136 2.202025
v 4.688212 1.064660 1.774430
v 5.058398 0.866893 1.485373
v 5.495186 0.626944 1.378860
v 5.932077 0.381343 1.471107
v 6.302560 0.167481 1.748070
v 6.550232 0.017916 2.167585
v 6.637386 -0.044582 2.665782
v 6.550756 -0.010498 3.166818
v 6.303528 0.114978 3.594414
v 5.933343 0.312745 3.883471
v 5.496556 0.552694 3.989984
v 5.059665 0.798295 3.897737
v 4.689181 1.012157 3.620773
v 4.441508 1.161722 3.201259
vt -0.000108 -0.000929
vt 0.999512 1.000208
vt 0.999245 1.000155
vt 0.999020 1.000004
vt 0.998869 0.999778
vt 0.998816 0.999512
vt 0.998869 0.999246
vt 0.999020 0.999020
vt 0.999245 0.998869
vt 0.999512 0.998816
vt 0.999778 0.998869
vt 1.000003 0.999020
vt 1.000154 0.999246
vt 1.000207 0.999512
vt 1.000154 0.999778
vt 1.000003 1.000004
vt 0.999778 1.000155
vt -0.000108 -0.000929
vt 0.999512 1.000208
vt 0.999245 1.000155
vt 0.999020 1.000004
vt 0.998869 0.999778
vt 0.998816 0.999512
vt 0.998869 0.999246
vt 0.999020 0.999020
vt 0.999245 0.998869
vt 0.999512 0.998816
vt 0.999778 0.998869
vt 1.000003 0.999020
vt 1.000154 0.999246
vt 1.000207 0.999512
vt 1.000154 0.999778
vt 1.000003 1.000004
vt 0.999778 1.000155
vt -0.000108 -0.000929
vt 0.999512 1.000208
vt 0.999245 1.000155
vt 0.999020 1.000004
vt 0.998869 0.999778
vt 0.998816 0.999512
vt 0.998869 0.999246
vt 0.999020 0.999020
vt 0.999245 0.998869
vt 0.999512 0.998816
vt 0.999778 0.998869
vt 1.000003 0.999020
vt 1.000154 0.999246
vt 1.000207 0.999512
vt 1.000154 0.999778
vt 1.000003 1.000004
vt 0.999778 1.000155
vt -0.000108 -0.000929
vt 0.999245 1.000155
vt 0.999512 1.000208
vt 0.999020 1.000004
vt 0.998869 0.999778
vt 0.998816 0.999512
vt 0.998869 0.999246
vt 0.999020 0.999020
vt 0.999245 0.998869
vt 0.999512 0.998816
vt 0.999778 0.998869
vt 1.000003 0.999020
vt 1.000154 0.999246
vt 1.000207 0.999512
vt 1.000154 0.999778
vt 1.000003 1.000004
vt 0.999778 1.000155
vt -0.000108 -0.000929
vt 0.999245 1.000155
vt 0.999512 1.000208
vt 0.999020 1.000004
vt 0.998869 0.999778
vt 0.998816 0.999512
vt 0.998869 0.999246
vt 0.999020 0.999020
vt 0.999245 0.998869
vt 0.999512 0.998816
vt 0.999778 0.998869
vt 1.000003 0.999020
vt 1.000154 0.999246
vt 1.000207 0.999512
vt 1.000154 0.999778
vt 1.000003 1.000004
vt 0.999778 1.000155
vt -0.000108 -0.000929
vt 0.999245 1.000155
vt 0.999512 1.000208
vt 0.999020 1.000004
vt 0.998869 0.999778
vt 0.998816 0.999512
vt 0.998869 0.999246
vt 0.999020 0.999020
vt 0.999245 0.998869
vt 0.999512 0.998816
vt 0.999778 0.998869
vt 1.000003 0.999020
vt 1.000154 0.999246
vt 1.000207 0.999512
vt 1.000154 0.999778
vt 1.000003 1.000004
vt 0.999778 1.000155
vn -0.9342 0.3292 0.1372
vn -0.8499 0.3716 0.3737
vn -0.6942 0.4570 0.5561
vn -0.4909 0.5725 0.6567
vn -0.2709 0.7005 0.6603
vn -0.0677 0.8215 0.5661
vn 0.0878 0.9172 0.3887
vn 0.1719 0.9729 0.1549
vn 0.1718 0.9801 -0.0996
vn 0.0875 0.9378 -0.3360
vn -0.0682 0.8524 -0.5185
vn -0.2715 0.7369 -0.6191
vn -0.4916 0.6089 -0.6226
vn -0.6948 0.4878 -0.5285
vn -0.8503 0.3922 -0.3510
vn -0.9344 0.3365 -0.1173
vn -0.9398 0.3131 0.1367
vn -0.8563 0.3569 0.3732
vn -0.7023 0.4450 0.5558
vn -0.5010 0.5639 0.6565
vn -0.2832 0.6957 0.6601
vn -0.0820 0.8202 0.5661
vn 0.0719 0.9185 0.3887
vn 0.1551 0.9757 0.1550
vn 0.1549 0.9829 -0.0995
vn 0.0715 0.9392 -0.3360
vn -0.0826 0.8511 -0.5185
vn -0.2839 0.7321 -0.6192
vn -0.5017 0.6003 -0.6229
vn -0.7028 0.4758 -0.5288
vn -0.8567 0.3775 -0.3515
vn -0.9399 0.3204 -0.1177
vn 0.9214 0.3635 0.1372
vn 0.8356 0.4027 0.3737
vn 0.6769 0.4823 0.5561
vn 0.4694 0.5902 0.6567
vn 0.2448 0.7100 0.6603
vn 0.0373 0.8235 0.5661
vn -0.1216 0.9133 0.3887
vn -0.2077 0.9658 0.1549
vn -0.2078 0.9731 -0.0996
vn -0.1220 0.9339 -0.3360
vn 0.0367 0.8543 -0.5185
vn 0.2442 0.7464 -0.6191
vn 0.4688 0.6266 -0.6226
vn 0.6763 0.5131 -0.5285
vn 0.8352 0.4233 -0.3510
vn 0.9213 0.3707 -0.1173
vn 0.9276 0.3476 0.1367
vn 0.8426 0.3882 0.3732
vn 0.6854 0.4706 0.5558
vn 0.4798 0.5820 0.6565
vn 0.2573 0.7057 0.6601
vn 0.0517 0.8227 0.5661
vn -0.1057 0.9153 0.3887
vn -0.1910 0.9693 0.1550
vn -0.1911 0.9765 -0.0995
vn -0.1061 0.9359 -0.3360
vn 0.0511 0.8536 -0.5185
vn 0.2567 0.7421 -0.6192
vn 0.4792 0.6184 -0.6229
vn 0.6848 0.5014 -0.5288
vn 0.8422 0.4089 -0.3515
vn 0.9275 0.3548 -0.1177
vn 0.6853 0.4706 0.5558
s off
f 1/1/1 2/2/1 3/3/1
f 1/1/2 3/3/2 4/4/2
f 1/1/3 4/4/3 5/5/3
f 1/1/4 5/5/4 6/6/4
f 1/1/5 6/6/5 7/7/5
f 1/1/6 7/7/6 8/8/6
f 1/1/7 8/8/7 9/9/7
f 1/1/8 9/9/8 10/10/8
f 1/1/9 10/10/9 11/11/9
f 1/1/10 11/11/10 12/12/10
f 1/1/11 12/12/11 13/13/11
f 1/1/12 13/13/12 14/14/12
f 1/1/13 14/14/13 15/15/13
f 1/1/14 15/15/14 16/16/14
f 1/1/15 16/16/15 17/17/15
f 1/1/16 17/17/16 2/2/16
f 18/18/17 19/19/17 20/20/17
f 18/18/18 20/20/18 21/21/18
f 18/18/19 21/21/19 22/22/19
f 18/18/20 22/22/20 23/23/20
f 18/18/21 23/23/21 24/24/21
f 18/18/22 24/24/22 25/25/22
f 18/18/23 25/25/23 26/26/23
f 18/18/24 26/26/24 27/27/24
f 18/18/25 27/27/25 28/28/25
f 18/18/26 28/28/26 29/29/26
f 18/18/27 29/29/27 30/30/27
f 18/18/28 30/30/28 31/31/28
f 18/18/29 31/31/29 32/32/29
f 18/18/30 32/32/30 33/33/30
f 18/18/31 33/33/31 34/34/31
f 18/18/32 34/34/32 19/19/32
f 35/35/17 36/36/17 37/37/17
f 35/35/18 37/37/18 38/38/18
f 35/35/19 38/38/19 39/39/19
f 35/35/20 39/39/20 40/40/20
f 35/35/21 40/40/21 41/41/21
f 35/35/22 41/41/22 42/42/22
f 35/35/23 42/42/23 43/43/23
f 35/35/24 43/43/24 44/44/24
f 35/35/25 44/44/25 45/45/25
f 35/35/26 45/45/26 46/46/26
f 35/35/27 46/46/27 47/47/27
f 35/35/28 47/47/28 48/48/28
f 35/35/29 48/48/29 49/49/29
f 35/35/30 49/49/30 50/50/30
f 35/35/31 50/50/31 51/51/31
f 35/35/32 51/51/32 36/36/32
f 52/52/33 54/53/33 53/54/33
f 52/52/34 55/55/34 54/53/34
f 52/52/35 56/56/35 55/55/35
f 52/52/36 57/57/36 56/56/36
f 52/52/37 58/58/37 57/57/37
f 52/52/38 59/59/38 58/58/38
f 52/52/39 60/60/39 59/59/39
f 52/52/40 61/61/40 60/60/40
f 52/52/41 62/62/41 61/61/41
f 52/52/42 63/63/42 62/62/42
f 52/52/43 64/64/43 63/63/43
f 52/52/44 65/65/44 64/64/44
f 52/52/45 66/66/45 65/65/45
f 52/52/46 67/67/46 66/66/46
f 52/52/47 68/68/47 67/67/47
f 52/52/48 53/54/48 68/68/48
f 69/69/49 71/70/49 70/71/49
f 69/69/50 72/72/50 71/70/50
f 69/69/51 73/73/51 72/72/51
f 69/69/52 74/74/52 73/73/52
f 69/69/53 75/75/53 74/74/53
f 69/69/54 76/76/54 75/75/54
f 69/69/55 77/77/55 76/76/55
f 69/69/56 78/78/56 77/77/56
f 69/69/57 79/79/57 78/78/57
f 69/69/58 80/80/58 79/79/58
f 69/69/59 81/81/59 80/80/59
f 69/69/60 82/82/60 81/81/60
f 69/69/61 83/83/61 82/82/61
f 69/69/62 84/84/62 83/83/62
f 69/69/63 85/85/63 84/84/63
f 69/69/64 70/71/64 85/85/64
f 86/86/49 88/87/49 87/88/49
f 86/86/50 89/89/50 88/87/50
f 86/86/65 90/90/65 89/89/65
f 86/86/52 91/91/52 90/90/52
f 86/86/53 92/92/53 91/91/53
f 86/86/54 93/93/54 92/92/54
f 86/86/55 94/94/55 93/93/55
f 86/86/56 95/95/56 94/94/56
f 86/86/57 96/96/57 95/95/57
f 86/86/58 97/97/58 96/96/58
f 86/86/59 98/98/59 97/97/59
f 86/86/60 99/99/60 98/98/60
f 86/86/61 100/100/61 99/99/61
f 86/86/62 101/101/62 100/100/62
f 86/86/63 102/102/63 101/101/63
f 86/86/64 87/88/64 102/102/64
