# Blender v2.90.1 OBJ File: ''
# www.blender.org
o Plane_Plane.001
v -0.322598 0.000000 -2.110774
v -0.270512 0.000000 -2.193690
v -0.186092 0.000000 -2.264868
v -0.070220 0.000000 -2.312872
v 0.037374 0.000000 -2.317838
v 0.120140 0.000000 -2.297974
v 0.202905 0.000000 -2.256592
v 0.288981 0.000000 -2.177137
v 0.351882 0.000000 -2.059610
v 2.459118 0.000000 1.816199
v 2.496859 0.000000 1.909558
v 2.498846 0.000000 2.000931
v 2.474936 0.000000 2.090878
v 2.434702 0.000000 2.174793
v 2.384124 0.000000 2.226522
v 2.314003 0.000000 2.272502
v 2.251929 0.000000 2.301240
v 2.196752 0.000000 2.316184
v 2.116286 0.000000 2.321932
v -2.102740 0.000000 2.322639
v -2.204280 0.000000 2.314017
v -2.296242 0.000000 2.280490
v -2.382456 0.000000 2.224930
v -2.445679 0.000000 2.140632
v -2.488786 0.000000 2.050586
v -2.504113 0.000000 1.960541
v -2.493576 0.000000 1.887738
v -2.464838 0.000000 1.811103
v -0.285023 0.000000 -0.893074
v 0.308504 0.000000 -0.895458
v 0.370479 0.000000 -0.871622
v 0.398304 0.000000 -0.841017
v 0.400603 0.000000 -0.769747
v 0.351604 0.000000 0.453075
v 0.342407 0.000000 0.491009
v 0.314819 0.000000 0.519747
v 0.268838 0.000000 0.533541
v -0.277183 0.000000 0.535841
v -0.307070 0.000000 0.525495
v -0.336958 0.000000 0.505953
v -0.349602 0.000000 0.484112
v -0.353051 0.000000 0.453075
v -0.400181 0.000000 -0.806796
v -0.396689 0.000000 -0.828453
v -0.382276 0.000000 -0.850627
v -0.365645 0.000000 -0.867258
v -0.344025 0.000000 -0.880562
v -0.321297 0.000000 -0.890541
v -0.300231 0.000000 -0.893867
v -0.253388 0.000000 0.892431
v 0.279861 0.000000 0.893230
v 0.314186 0.000000 0.906800
v 0.341328 0.000000 0.929152
v 0.353302 0.000000 0.959487
v 0.358092 0.000000 1.008980
v 0.356495 0.000000 1.536641
v 0.342126 0.000000 1.566177
v 0.318178 0.000000 1.590923
v 0.292633 0.000000 1.602099
v 0.256711 0.000000 1.605292
v -0.270950 0.000000 1.605292
v -0.306872 0.000000 1.596511
v -0.335610 0.000000 1.573361
v -0.354769 0.000000 1.542228
v -0.357164 0.000000 1.497525
v -0.357164 0.000000 0.966671
v -0.345988 0.000000 0.934740
v -0.318048 0.000000 0.909195
v -0.288512 0.000000 0.897221
vn 0.0000 1.0000 0.0000
s off
f 29//1 9//1 1//1
f 62//1 63//1 20//1
f 54//1 34//1 35//1
f 2//1 1//1 3//1
f 1//1 28//1 44//1
f 45//1 1//1 44//1
f 28//1 43//1 44//1
f 1//1 45//1 46//1
f 3//1 6//1 5//1
f 5//1 4//1 3//1
f 7//1 6//1 1//1
f 1//1 6//1 3//1
f 9//1 8//1 1//1
f 8//1 7//1 1//1
f 32//1 33//1 10//1
f 32//1 10//1 9//1
f 32//1 9//1 31//1
f 31//1 9//1 30//1
f 30//1 9//1 29//1
f 1//1 46//1 47//1
f 1//1 47//1 48//1
f 29//1 1//1 49//1
f 1//1 48//1 49//1
f 11//1 10//1 12//1
f 10//1 33//1 55//1
f 55//1 56//1 10//1
f 10//1 56//1 19//1
f 13//1 12//1 10//1
f 15//1 14//1 13//1
f 17//1 16//1 10//1
f 16//1 15//1 13//1
f 10//1 16//1 13//1
f 19//1 18//1 17//1
f 21//1 20//1 28//1
f 20//1 19//1 60//1
f 61//1 20//1 60//1
f 23//1 22//1 24//1
f 22//1 21//1 28//1
f 24//1 22//1 28//1
f 25//1 24//1 27//1
f 27//1 24//1 28//1
f 27//1 26//1 25//1
f 43//1 28//1 66//1
f 66//1 28//1 65//1
f 65//1 28//1 20//1
f 20//1 61//1 62//1
f 19//1 17//1 10//1
f 56//1 57//1 19//1
f 57//1 58//1 19//1
f 64//1 65//1 20//1
f 63//1 64//1 20//1
f 58//1 59//1 19//1
f 59//1 60//1 19//1
f 42//1 43//1 66//1
f 42//1 66//1 41//1
f 66//1 67//1 41//1
f 41//1 67//1 40//1
f 67//1 68//1 40//1
f 40//1 68//1 39//1
f 68//1 69//1 39//1
f 39//1 69//1 38//1
f 69//1 50//1 38//1
f 38//1 50//1 37//1
f 50//1 51//1 37//1
f 37//1 51//1 36//1
f 51//1 52//1 36//1
f 36//1 52//1 53//1
f 35//1 36//1 53//1
f 54//1 55//1 34//1
f 55//1 33//1 34//1
f 35//1 53//1 54//1
